SplineFontDB: 3.2
FontName: Mikhak-Light
FullName: Mikhak Light
FamilyName: Mikhak Light
Weight: Light
Copyright: Copyright (c) 2019, Amin Abedi (www.fontamin.com|aminabedi68@gmail.com),\nwith Reserved Font Name Mikhak.\n\nThis Font Software is licensed under the SIL Open Font License, Version 1.1.\nThis license is available with a FAQ at: http://scripts.sil.org/OFL
Version: 2.2
ItalicAngle: 0
UnderlinePosition: -450
UnderlineWidth: 100
Ascent: 1638
Descent: 410
InvalidEm: 0
sfntRevision: 0x00023cac
UFOAscent: 1638
UFODescent: -410
LayerCount: 2
Layer: 0 0 "Back" 1
Layer: 1 0 "public.default" 0
StyleMap: 0x0000
FSType: 0
OS2Version: 0
OS2_WeightWidthSlopeOnly: 0
OS2_UseTypoMetrics: 0
CreationTime: 1569500547
ModificationTime: 1587466231
PfmFamily: 16
TTFWeight: 300
TTFWidth: 5
LineGap: 0
VLineGap: 0
OS2TypoAscent: 2200
OS2TypoAOffset: 0
OS2TypoDescent: -1200
OS2TypoDOffset: 0
OS2TypoLinegap: 0
OS2WinAscent: 2200
OS2WinAOffset: 0
OS2WinDescent: 1200
OS2WinDOffset: 0
HheadAscent: 2200
HheadAOffset: 0
HheadDescent: -1200
HheadDOffset: 0
OS2SubXSize: 1277
OS2SubYSize: 1185
OS2SubXOff: 0
OS2SubYOff: 256
OS2SupXSize: 1277
OS2SupYSize: 1185
OS2SupXOff: 0
OS2SupYOff: 870
OS2StrikeYSize: 91
OS2StrikeYPos: 766
OS2CapHeight: 1400
OS2XHeight: 1012
OS2Vendor: 'AA68'
Lookup: 4 1 0 "'ccmp' Glyph Composition/Decomposition in Arabic lookup 0" { "'ccmp' Glyph Composition/Decomposition in Arabic lookup 0 subtable 0"  } ['ccmp' ('arab' <'FAR ' 'dflt' > ) ]
Lookup: 1 9 0 "Single Substitution 1" { "Single Substitution 1 subtable"  } []
Lookup: 2 9 0 "Multiple Substitution 2" { "Multiple Substitution 2 subtable"  } []
Lookup: 2 9 0 "Multiple Substitution 3" { "Multiple Substitution 3 subtable"  } []
Lookup: 1 9 0 "'fina' Terminal Forms in Arabic lookup 4" { "'fina' Terminal Forms in Arabic lookup 4 subtable"  } ['fina' ('arab' <'FAR ' 'dflt' > ) ]

StartChar: A
Encoding: 65 65 0
Width: 1416
GlyphClass: 2
Flags: HW
LayerCount: 2
Fore
SplineSet
138 -16 m 256
 112 -4 100 28 112 54 c 258
 690 1338 l 258
 702 1366 737 1377 763 1362 c 256
 774 1356 783 1345 787 1335 c 258
 1305 19 l 258
 1315 -8 1302 -39 1275 -49 c 256
 1248 -59 1217 -46 1207 -19 c 258
 735 1181 l 257
 208 10 l 258
 196 -16 164 -28 138 -16 c 256
1140 410 m 256
 1137 382 1111 359 1083 362 c 258
 333 430 l 258
 305 433 283 460 286 488 c 256
 289 516 315 537 343 534 c 258
 1093 466 l 258
 1121 463 1143 438 1140 410 c 256
EndSplineSet
EndChar

StartChar: AE
Encoding: 198 198 1
Width: 1908
GlyphClass: 2
Flags: HW
LayerCount: 2
Fore
SplineSet
1024 1368 m 256
 1053 1368 1077 1346 1077 1317 c 256
 1078 1260 1079 1191 1079 1119 c 256
 1079 827 1078 455 1036 218 c 256
 1032 199 1031 185 1031 175 c 256
 1031 96 1129 59 1249 52 c 256
 1375 44 1475 39 1602 39 c 256
 1644 39 1683 39 1725 40 c 256
 1754 40 1779 18 1779 -11 c 256
 1779 -40 1757 -64 1728 -64 c 256
 1686 -65 1644 -65 1602 -65 c 256
 1473 -65 1369 -60 1243 -52 c 256
 1099 -44 925 9 925 173 c 256
 925 191 928 208 932 226 c 256
 971 452 975 829 975 1119 c 256
 975 1191 974 1258 973 1315 c 256
 973 1344 995 1368 1024 1368 c 256
1799 1386 m 256
 1805 1358 1788 1329 1760 1323 c 256
 1589 1283 1410 1265 1224 1265 c 256
 1160 1265 686 1267 544 1271 c 257
 539 841 473 289 200 -34 c 256
 182 -56 148 -58 126 -40 c 256
 104 -22 102 12 120 34 c 256
 373 333 439 893 439 1325 c 256
 439 1353 465 1379 495 1377 c 256
 566 1373 1154 1369 1224 1369 c 256
 1404 1369 1575 1387 1736 1425 c 256
 1764 1431 1793 1414 1799 1386 c 256
336 688 m 256
 334 717 355 742 384 744 c 256
 548 757 921 763 1119 763 c 256
 1320 763 1518 757 1668 745 c 256
 1697 743 1718 718 1716 689 c 256
 1714 660 1688 639 1659 641 c 256
 1515 653 1318 659 1119 659 c 256
 923 659 548 653 392 640 c 256
 363 638 338 659 336 688 c 256
EndSplineSet
EndChar

StartChar: B
Encoding: 66 66 8
Width: 1138
GlyphClass: 2
Flags: HW
LayerCount: 2
Fore
SplineSet
190 716 m 256
 188 745 210 769 239 771 c 256
 307 775 464 786 536 786 c 256
 828 786 1031 656 1031 376 c 256
 1031 65 752 -37 501 -37 c 256
 393 -37 283 -21 188 9 c 256
 161 18 144 47 153 74 c 256
 162 101 191 118 218 109 c 256
 301 83 403 67 501 67 c 256
 736 67 925 153 925 376 c 256
 925 586 796 683 536 683 c 256
 470 683 313 671 245 667 c 256
 216 665 192 687 190 716 c 256
199 7 m 256
 170 9 149 34 151 63 c 256
 166 260 173 511 173 701 c 256
 173 937 163 1092 148 1276 c 256
 146 1305 167 1330 196 1332 c 256
 225 1334 251 1313 253 1284 c 256
 268 1100 277 944 277 706 c 256
 277 514 270 256 255 55 c 256
 253 26 228 5 199 7 c 256
151 1261 m 256
 141 1288 154 1319 181 1329 c 256
 290 1371 415 1399 533 1399 c 256
 747 1399 949 1270 949 1028 c 256
 949 687 375 675 244 669 c 256
 215 668 191 688 190 717 c 256
 189 746 211 771 240 772 c 256
 454 782 845 819 845 1037 c 256
 845 1202 711 1293 533 1293 c 256
 431 1293 316 1269 219 1231 c 256
 192 1221 161 1234 151 1261 c 256
EndSplineSet
EndChar

StartChar: C
Encoding: 67 67 9
Width: 1271
GlyphClass: 2
Flags: HW
LayerCount: 2
Fore
SplineSet
1124 1271 m 256
 1112 1245 1081 1232 1055 1244 c 256
 979 1278 898 1293 814 1293 c 256
 466 1293 213 1012 213 662 c 256
 213 319 462 67 810 67 c 256
 906 67 1001 90 1087 135 c 256
 1112 148 1145 138 1158 113 c 256
 1171 88 1160 56 1135 43 c 256
 1034 -10 922 -37 810 -37 c 256
 406 -37 107 263 107 662 c 256
 107 1064 404 1399 814 1399 c 256
 910 1399 1007 1380 1097 1340 c 256
 1123 1328 1136 1297 1124 1271 c 256
EndSplineSet
EndChar

StartChar: D
Encoding: 68 68 11
Width: 1279
GlyphClass: 2
Flags: HW
LayerCount: 2
Fore
SplineSet
274 1280 m 257
 291 1112 297 992 297 811 c 256
 297 576 283 320 257 100 c 257
 319 79 386 67 452 67 c 256
 803 67 1067 343 1067 701 c 256
 1067 1099 813 1293 406 1293 c 256
 362 1293 318 1289 274 1280 c 257
205 1376 m 256
 270 1391 339 1399 406 1399 c 256
 853 1399 1171 1163 1171 701 c 256
 1171 289 863 -37 452 -37 c 256
 360 -37 267 -21 181 13 c 256
 157 22 145 47 148 68 c 256
 177 291 193 565 193 811 c 256
 193 1008 185 1128 165 1320 c 256
 162 1348 183 1371 205 1376 c 256
EndSplineSet
EndChar

StartChar: E
Encoding: 69 69 12
Width: 1098
GlyphClass: 2
Flags: HW
LayerCount: 2
Fore
SplineSet
108 729 m 256
 105 757 126 784 154 787 c 256
 272 801 381 807 500 807 c 256
 624 807 745 799 865 785 c 256
 893 782 914 755 911 727 c 256
 908 699 881 678 853 681 c 256
 737 695 620 701 500 701 c 256
 383 701 280 697 166 683 c 256
 138 680 111 701 108 729 c 256
989 1371 m 256
 995 1343 978 1314 950 1308 c 256
 810 1275 633 1263 472 1263 c 256
 407 1263 341 1267 277 1270 c 257
 289 1162 295 1082 295 960 c 256
 295 745 279 530 253 340 c 256
 250 323 249 310 249 295 c 256
 249 109 454 97 768 97 c 256
 821 97 871 97 921 98 c 256
 950 98 975 76 975 47 c 256
 975 18 952 -6 923 -6 c 256
 873 -7 821 -7 768 -7 c 256
 494 -7 145 -15 145 295 c 256
 145 314 146 334 149 356 c 256
 175 539 189 751 189 960 c 256
 189 1103 183 1185 166 1318 c 256
 163 1340 183 1379 221 1377 c 256
 305 1372 389 1369 472 1369 c 256
 627 1369 798 1381 926 1410 c 256
 954 1416 983 1399 989 1371 c 256
EndSplineSet
EndChar

StartChar: Eth
Encoding: 208 208 17
Width: 1341
GlyphClass: 2
Flags: HW
LayerCount: 2
Fore
SplineSet
43 718 m 256
 41 744 60 765 86 767 c 256
 307 784 496 780 652 767 c 256
 676 765 696 743 694 718 c 256
 692 693 668 674 644 676 c 256
 492 689 308 693 92 676 c 256
 66 674 45 692 43 718 c 256
EndSplineSet
Refer: 11 68 N 1 0 0 1 150 0 2
EndChar

StartChar: F
Encoding: 70 70 18
Width: 1092
GlyphClass: 2
Flags: HW
LayerCount: 2
Fore
SplineSet
108 715 m 256
 105 743 126 770 154 773 c 256
 265 786 377 793 489 793 c 256
 609 793 730 785 849 771 c 256
 877 768 898 741 895 713 c 256
 892 685 865 664 837 667 c 256
 722 681 605 689 489 689 c 256
 381 689 273 682 166 669 c 256
 138 666 111 687 108 715 c 256
983 1350 m 256
 989 1322 972 1293 944 1287 c 256
 804 1254 627 1243 466 1243 c 256
 401 1243 335 1245 272 1248 c 257
 296 1028 301 831 301 583 c 256
 301 376 289 174 269 -6 c 256
 266 -34 239 -55 211 -52 c 256
 183 -49 162 -22 165 6 c 256
 185 182 195 380 195 583 c 256
 195 853 190 1060 161 1298 c 256
 158 1320 178 1358 216 1356 c 256
 298 1351 382 1349 466 1349 c 256
 621 1349 792 1360 920 1389 c 256
 948 1395 977 1378 983 1350 c 256
EndSplineSet
EndChar

StartChar: G
Encoding: 71 71 19
Width: 1349
GlyphClass: 2
Flags: HW
LayerCount: 2
Fore
SplineSet
595 649 m 256
 595 678 619 701 648 701 c 258
 1184 701 l 258
 1213 701 1234 676 1236 652 c 256
 1239 612 1241 575 1241 537 c 256
 1241 219 1114 -37 716 -37 c 256
 380 -37 107 187 107 639 c 256
 107 1043 313 1399 763 1399 c 256
 873 1399 982 1363 1069 1298 c 256
 1092 1281 1096 1248 1079 1225 c 256
 1062 1202 1029 1197 1006 1214 c 256
 937 1265 849 1293 763 1293 c 256
 388 1293 213 1013 213 639 c 256
 213 237 434 67 716 67 c 256
 1071 67 1147 277 1134 597 c 257
 648 597 l 258
 619 597 595 620 595 649 c 256
EndSplineSet
EndChar

StartChar: H
Encoding: 72 72 20
Width: 1319
GlyphClass: 2
Flags: HW
LayerCount: 2
Fore
SplineSet
1004 1368 m 256
 1033 1369 1058 1347 1059 1318 c 258
 1118 -18 l 258
 1119 -47 1097 -72 1068 -73 c 256
 1039 -74 1015 -53 1014 -24 c 258
 955 1314 l 258
 954 1343 975 1367 1004 1368 c 256
1171 652 m 256
 1170 623 1145 601 1116 602 c 256
 852 614 428 623 200 623 c 256
 171 623 148 647 148 676 c 256
 148 705 171 729 200 729 c 256
 431 729 856 718 1122 706 c 256
 1151 705 1172 681 1171 652 c 256
272 1368 m 256
 301 1368 324 1345 324 1316 c 256
 320 872 304 422 261 -6 c 256
 258 -34 230 -55 202 -52 c 256
 174 -49 153 -22 156 6 c 256
 199 430 216 874 220 1316 c 256
 220 1345 243 1368 272 1368 c 256
EndSplineSet
EndChar

StartChar: I
Encoding: 73 73 28
Width: 435
GlyphClass: 2
Flags: HW
LayerCount: 2
Fore
SplineSet
199 -52 m 256
 170 -52 148 -28 148 1 c 258
 183 1362 l 258
 183 1391 207 1413 236 1413 c 256
 265 1413 287 1389 287 1360 c 258
 252 -1 l 258
 252 -30 228 -52 199 -52 c 256
EndSplineSet
EndChar

StartChar: J
Encoding: 74 74 33
Width: 680
GlyphClass: 2
Flags: HW
LayerCount: 2
Fore
SplineSet
121 1317 m 256
 121 1346 144 1369 173 1369 c 258
 550 1369 l 258
 579 1369 603 1346 603 1317 c 256
 603 1288 579 1265 550 1265 c 258
 173 1265 l 258
 144 1265 121 1288 121 1317 c 256
403 1367 m 256
 431 1371 458 1350 462 1322 c 256
 507 979 527 668 527 300 c 256
 527 109 451 -37 233 -37 c 256
 208 -37 181 -36 156 -34 c 256
 128 -32 106 -6 108 22 c 256
 110 50 137 72 165 70 c 256
 187 68 210 67 233 67 c 256
 383 67 423 135 423 300 c 256
 423 664 403 969 358 1308 c 256
 354 1336 375 1363 403 1367 c 256
EndSplineSet
EndChar

StartChar: K
Encoding: 75 75 34
Width: 1217
GlyphClass: 2
Flags: HW
LayerCount: 2
Fore
SplineSet
199 -52 m 256
 170 -52 148 -28 148 1 c 258
 183 1361 l 258
 183 1390 207 1412 236 1412 c 256
 265 1412 287 1388 287 1359 c 258
 252 -1 l 258
 252 -30 228 -52 199 -52 c 256
1017 1403 m 256
 1040 1386 1045 1353 1028 1330 c 256
 832 1066 549 862 284 707 c 257
 495 461 810 222 1086 44 c 256
 1110 28 1117 -4 1101 -28 c 256
 1085 -52 1053 -60 1029 -44 c 256
 730 149 384 411 162 687 c 256
 146 707 147 748 177 766 c 256
 452 922 748 1128 944 1392 c 256
 961 1415 994 1420 1017 1403 c 256
EndSplineSet
EndChar

StartChar: L
Encoding: 76 76 35
Width: 1166
GlyphClass: 2
Flags: HW
LayerCount: 2
Fore
SplineSet
215 1368 m 256
 244 1370 268 1348 270 1319 c 256
 281 1151 287 989 287 830 c 256
 287 583 274 342 256 96 c 257
 1007 74 l 258
 1036 74 1058 50 1058 21 c 256
 1058 -8 1034 -30 1005 -30 c 258
 199 -7 l 258
 172 -7 146 19 148 49 c 256
 168 313 181 568 181 830 c 256
 181 987 177 1147 166 1313 c 256
 164 1342 186 1366 215 1368 c 256
EndSplineSet
EndChar

StartChar: M
Encoding: 77 77 36
Width: 1599
GlyphClass: 2
Flags: HW
LayerCount: 2
Fore
SplineSet
184 -52 m 256
 156 -49 135 -22 138 6 c 258
 275 1306 l 258
 278 1336 306 1358 336 1352 c 256
 357 1348 374 1329 378 1314 c 256
 441 1084 580 783 681 605 c 256
 725 529 760 493 787 493 c 256
 812 493 844 520 886 591 c 256
 1005 789 1142 1142 1179 1326 c 256
 1185 1356 1215 1374 1244 1366 c 256
 1268 1360 1282 1335 1282 1318 c 256
 1300 806 1356 467 1460 24 c 256
 1466 -4 1449 -33 1421 -39 c 256
 1393 -45 1364 -28 1358 0 c 256
 1273 363 1220 657 1196 1049 c 257
 1146 888 1054 672 972 534 c 256
 919 444 866 377 787 377 c 256
 701 377 645 458 593 550 c 256
 516 684 417 893 356 1075 c 257
 242 -6 l 258
 239 -34 212 -55 184 -52 c 256
EndSplineSet
EndChar

StartChar: N
Encoding: 78 78 37
Width: 1307
GlyphClass: 2
Flags: HW
LayerCount: 2
Fore
SplineSet
197 -52 m 256
 168 -51 147 -26 148 3 c 256
 170 448 187 864 193 1316 c 256
 193 1346 220 1371 250 1368 c 256
 265 1367 280 1357 287 1348 c 256
 566 982 820 585 1042 196 c 257
 1055 1362 l 258
 1055 1391 1079 1413 1108 1413 c 256
 1137 1413 1159 1389 1159 1360 c 258
 1144 4 l 258
 1144 -12 1136 -30 1121 -40 c 256
 1096 -57 1061 -47 1046 -21 c 256
 825 377 573 782 294 1160 c 257
 287 765 271 390 252 -3 c 256
 251 -32 226 -53 197 -52 c 256
EndSplineSet
EndChar

StartChar: O
Encoding: 79 79 39
Width: 1485
GlyphClass: 2
Flags: HW
LayerCount: 2
Fore
SplineSet
713 67 m 256
 1030 67 1273 320 1273 684 c 256
 1273 1013 1084 1293 799 1293 c 256
 465 1293 213 978 213 613 c 256
 213 283 423 67 713 67 c 256
713 -37 m 256
 363 -37 107 235 107 613 c 256
 107 1020 391 1399 799 1399 c 256
 1166 1399 1377 1043 1377 684 c 256
 1377 272 1094 -37 713 -37 c 256
EndSplineSet
EndChar

StartChar: OE
Encoding: 338 338 40
Width: 2327
GlyphClass: 2
Flags: HW
LayerCount: 2
Fore
SplineSet
1216 740 m 256
 1220 768 1248 788 1276 784 c 256
 1383 768 1543 757 1701 757 c 256
 1804 757 1907 761 1996 773 c 256
 2024 777 2050 756 2054 728 c 256
 2058 700 2036 673 2008 669 c 256
 1913 657 1808 651 1701 651 c 256
 1537 651 1373 664 1260 680 c 256
 1232 684 1212 712 1216 740 c 256
1268 118 m 256
 1274 146 1302 163 1330 157 c 256
 1500 119 1677 101 1849 101 c 256
 1956 101 2062 108 2160 123 c 256
 2188 127 2215 107 2219 79 c 256
 2223 51 2203 23 2175 19 c 256
 2071 4 1962 -5 1849 -5 c 256
 1671 -5 1486 15 1308 55 c 256
 1280 61 1262 90 1268 118 c 256
696 67 m 256
 1126 67 1237 486 1237 1065 c 256
 1237 1151 1235 1239 1231 1326 c 256
 1229 1361 1263 1385 1290 1381 c 256
 1522 1350 1717 1325 1889 1325 c 256
 1977 1325 2058 1331 2136 1349 c 256
 2164 1355 2193 1338 2199 1310 c 256
 2205 1282 2188 1253 2160 1247 c 256
 2072 1227 1983 1219 1889 1219 c 256
 1723 1219 1546 1241 1338 1269 c 257
 1341 1203 1343 1132 1343 1065 c 256
 1343 498 1234 -37 696 -37 c 256
 360 -37 107 265 107 643 c 256
 107 1006 337 1399 699 1399 c 256
 857 1399 978 1316 1055 1212 c 256
 1072 1189 1067 1156 1044 1139 c 256
 1021 1122 988 1127 971 1150 c 256
 910 1234 819 1293 699 1293 c 256
 425 1293 213 976 213 643 c 256
 213 307 432 67 696 67 c 256
EndSplineSet
EndChar

StartChar: Oslash
Encoding: 216 216 45
Width: 1494
GlyphClass: 2
Flags: HW
LayerCount: 2
Fore
SplineSet
139 -41 m 256
 123 -31 119 -9 129 6 c 256
 481 534 882 954 1324 1354 c 256
 1338 1366 1360 1366 1372 1352 c 256
 1384 1338 1384 1316 1370 1304 c 256
 931 906 534 491 186 -31 c 256
 176 -46 154 -51 139 -41 c 256
EndSplineSet
Refer: 39 79 N 1 0 0 1 0 0 2
EndChar

StartChar: P
Encoding: 80 80 47
Width: 1269
GlyphClass: 2
Flags: HW
LayerCount: 2
Fore
SplineSet
125 1128 m 256
 104 1147 102 1180 121 1202 c 256
 229 1326 450 1399 636 1399 c 256
 935 1399 1161 1158 1161 862 c 256
 1161 550 844 357 560 357 c 256
 484 357 339 366 258 398 c 256
 231 408 218 439 228 466 c 256
 238 493 270 506 297 496 c 256
 348 476 496 461 560 461 c 256
 808 461 1057 632 1057 862 c 256
 1057 1104 875 1293 636 1293 c 256
 474 1293 277 1220 199 1132 c 256
 180 1110 146 1109 125 1128 c 256
350 1291 m 256
 379 1289 401 1265 399 1236 c 258
 310 -4 l 258
 308 -33 283 -54 254 -52 c 256
 225 -50 204 -25 206 4 c 258
 295 1242 l 258
 297 1271 321 1293 350 1291 c 256
EndSplineSet
EndChar

StartChar: Q
Encoding: 81 81 48
Width: 1485
GlyphClass: 2
Flags: HW
LayerCount: 2
Fore
SplineSet
852 482 m 256
 876 499 909 494 926 470 c 256
 1058 288 1175 151 1343 4 c 256
 1365 -15 1367 -48 1348 -70 c 256
 1329 -92 1296 -93 1274 -74 c 256
 1100 79 974 222 840 408 c 256
 823 432 828 465 852 482 c 256
EndSplineSet
Refer: 39 79 N 1 0 0 1 0 0 2
EndChar

StartChar: R
Encoding: 82 82 49
Width: 1270
GlyphClass: 2
Flags: HW
LayerCount: 2
Fore
SplineSet
125 1128 m 256
 104 1147 102 1180 121 1202 c 256
 229 1324 436 1399 622 1399 c 256
 923 1399 1129 1155 1129 862 c 256
 1129 574 862 355 560 355 c 256
 457 355 349 380 245 437 c 256
 220 451 210 483 224 508 c 256
 238 533 271 543 296 529 c 256
 384 480 475 459 560 459 c 256
 816 459 1025 644 1025 862 c 256
 1025 1107 859 1293 622 1293 c 256
 460 1293 277 1222 199 1132 c 256
 180 1110 146 1109 125 1128 c 256
224 510 m 256
 238 534 272 542 296 528 c 258
 1136 46 l 258
 1160 32 1170 -2 1156 -26 c 256
 1142 -50 1108 -60 1084 -46 c 258
 244 438 l 258
 220 452 210 486 224 510 c 256
356 1296 m 256
 385 1294 407 1270 405 1241 c 258
 334 -3 l 258
 332 -32 308 -54 279 -52 c 256
 250 -50 228 -26 230 3 c 258
 301 1247 l 258
 303 1276 327 1298 356 1296 c 256
EndSplineSet
EndChar

StartChar: S
Encoding: 83 83 50
Width: 1182
GlyphClass: 2
Flags: HW
LayerCount: 2
Fore
SplineSet
1006 1234 m 256
 992 1209 960 1200 935 1214 c 256
 842 1266 731 1293 619 1293 c 256
 398 1293 217 1173 217 996 c 256
 217 841 377 783 597 716 c 256
 803 654 1075 580 1075 343 c 256
 1075 79 815 -37 578 -37 c 256
 414 -37 247 0 135 62 c 256
 110 76 100 108 114 133 c 256
 128 158 161 168 186 154 c 256
 276 104 430 67 578 67 c 256
 795 67 969 169 969 336 c 256
 969 480 797 546 567 616 c 256
 368 676 113 747 113 996 c 256
 113 1257 370 1399 619 1399 c 256
 749 1399 876 1368 987 1306 c 256
 1012 1292 1020 1259 1006 1234 c 256
EndSplineSet
EndChar

StartChar: T
Encoding: 84 84 51
Width: 1423
GlyphClass: 2
Flags: HW
LayerCount: 2
Fore
SplineSet
710 -49 m 256
 681 -50 657 -28 656 1 c 256
 650 184 645 367 645 551 c 256
 645 803 652 1050 664 1298 c 256
 665 1327 690 1348 719 1347 c 256
 748 1346 770 1321 769 1292 c 256
 757 1044 751 803 751 551 c 256
 751 369 754 188 760 5 c 256
 761 -24 739 -48 710 -49 c 256
108 1317 m 256
 108 1346 132 1368 161 1368 c 258
 1264 1349 l 258
 1293 1349 1315 1325 1315 1296 c 256
 1315 1267 1291 1245 1262 1245 c 258
 159 1264 l 258
 130 1264 108 1288 108 1317 c 256
EndSplineSet
EndChar

StartChar: U
Encoding: 85 85 60
Width: 1310
GlyphClass: 2
Flags: HW
LayerCount: 2
Fore
SplineSet
285 1385 m 256
 313 1379 331 1351 325 1323 c 256
 283 1132 253 946 253 734 c 256
 253 364 325 67 631 67 c 256
 1014 67 1057 647 1057 1095 c 256
 1057 1182 1054 1271 1050 1358 c 256
 1049 1387 1071 1412 1100 1413 c 256
 1129 1414 1154 1393 1155 1364 c 256
 1159 1277 1163 1186 1163 1095 c 256
 1163 689 1141 -37 631 -37 c 256
 219 -37 147 376 147 734 c 256
 147 956 181 1150 223 1345 c 256
 229 1373 257 1391 285 1385 c 256
EndSplineSet
EndChar

StartChar: V
Encoding: 86 86 65
Width: 1368
GlyphClass: 2
Flags: HW
LayerCount: 2
Fore
SplineSet
142 1366 m 256
 169 1375 201 1361 210 1334 c 258
 608 183 l 257
 1160 1339 l 258
 1172 1365 1205 1376 1231 1364 c 256
 1257 1352 1268 1319 1256 1293 c 258
 648 22 l 258
 644 13 633 2 621 -3 c 256
 593 -15 560 -1 550 28 c 258
 110 1298 l 258
 101 1325 115 1357 142 1366 c 256
EndSplineSet
EndChar

StartChar: W
Encoding: 87 87 66
Width: 2006
GlyphClass: 2
Flags: HW
LayerCount: 2
Fore
SplineSet
145 1400 m 256
 172 1408 202 1391 210 1364 c 258
 562 200 l 257
 982 1200 l 258
 994 1228 1027 1240 1054 1226 c 256
 1066 1220 1076 1208 1080 1196 c 258
 1415 208 l 257
 1796 1333 l 258
 1805 1360 1836 1375 1863 1366 c 256
 1890 1357 1905 1326 1896 1299 c 258
 1465 28 l 258
 1461 15 1450 3 1436 -3 c 256
 1408 -15 1375 -1 1365 28 c 258
 1024 1031 l 257
 601 24 l 258
 596 13 585 2 572 -4 c 256
 544 -15 511 1 502 30 c 258
 110 1334 l 258
 102 1361 118 1392 145 1400 c 256
EndSplineSet
EndChar

StartChar: X
Encoding: 88 88 67
Width: 1267
GlyphClass: 2
Flags: HW
LayerCount: 2
Fore
SplineSet
130 -43 m 256
 106 -27 101 6 117 30 c 258
 1027 1368 l 258
 1043 1392 1076 1397 1100 1381 c 256
 1124 1365 1129 1332 1113 1308 c 258
 203 -30 l 258
 187 -54 154 -59 130 -43 c 256
173 1320 m 256
 197 1336 230 1331 246 1307 c 258
 1150 26 l 258
 1166 2 1161 -31 1137 -47 c 256
 1113 -63 1080 -58 1064 -34 c 258
 160 1247 l 258
 144 1271 149 1304 173 1320 c 256
EndSplineSet
EndChar

StartChar: Y
Encoding: 89 89 68
Width: 1267
GlyphClass: 2
Flags: HW
LayerCount: 2
Fore
SplineSet
130 1330 m 256
 154 1347 185 1341 202 1317 c 258
 624 725 l 257
 1064 1368 l 258
 1080 1392 1113 1397 1137 1381 c 256
 1161 1365 1166 1332 1150 1308 c 258
 668 603 l 258
 666 600 662 596 658 593 c 256
 635 574 600 579 582 603 c 258
 118 1257 l 258
 101 1281 106 1313 130 1330 c 256
637 -52 m 256
 608 -52 584 -30 584 -1 c 258
 573 632 l 258
 573 661 595 685 624 685 c 256
 653 685 677 663 677 634 c 258
 688 1 l 258
 688 -28 666 -52 637 -52 c 256
EndSplineSet
EndChar

StartChar: Z
Encoding: 90 90 70
Width: 1422
GlyphClass: 2
Flags: HW
LayerCount: 2
Fore
SplineSet
109 1258 m 256
 102 1286 120 1314 148 1321 c 256
 454 1397 925 1409 1183 1346 c 256
 1228 1336 1240 1286 1211 1257 c 256
 857 902 551 497 308 110 c 257
 618 142 927 157 1262 157 c 256
 1291 157 1315 133 1315 104 c 256
 1315 75 1291 51 1262 51 c 256
 892 51 553 33 212 -5 c 256
 166 -10 140 39 161 74 c 256
 402 470 708 885 1066 1257 c 257
 829 1298 426 1282 172 1219 c 256
 144 1212 116 1230 109 1258 c 256
EndSplineSet
EndChar

StartChar: a
Encoding: 97 97 71
Width: 1269
GlyphClass: 2
Flags: HW
LayerCount: 2
Fore
SplineSet
521 67 m 256
 761 67 863 284 897 526 c 258
 961 993 l 258
 965 1021 992 1042 1020 1038 c 256
 1048 1034 1069 1007 1065 979 c 258
 1001 512 l 258
 967 264 847 -37 521 -37 c 256
 246 -37 107 185 107 419 c 256
 107 694 301 1053 650 1053 c 256
 751 1053 828 1017 874 986 c 256
 898 970 904 936 888 912 c 256
 872 888 838 882 814 898 c 256
 780 921 725 949 650 949 c 256
 385 949 213 660 213 419 c 256
 213 223 318 67 521 67 c 256
1020 1038 m 256
 1048 1034 1069 1007 1065 979 c 258
 993 456 l 258
 986 402 981 351 981 293 c 256
 981 181 1000 97 1111 97 c 256
 1138 97 1162 74 1162 45 c 256
 1162 16 1138 -7 1109 -7 c 256
 921 -7 877 154 877 293 c 256
 877 357 882 413 889 470 c 258
 961 993 l 258
 965 1021 992 1042 1020 1038 c 256
EndSplineSet
EndChar

StartChar: acute
Encoding: 180 180 74
Width: 522
GlyphClass: 2
Flags: HW
LayerCount: 2
Fore
SplineSet
383 1508 m 256
 397 1496 400 1474 388 1460 c 256
 313 1366 247 1279 191 1155 c 256
 183 1138 163 1130 146 1138 c 256
 130 1145 121 1166 129 1183 c 256
 189 1315 260 1408 335 1502 c 256
 347 1516 369 1519 383 1508 c 256
EndSplineSet
EndChar

StartChar: ae
Encoding: 230 230 76
Width: 1885
GlyphClass: 2
Flags: HW
LayerCount: 2
Fore
SplineSet
529 -37 m 256
 274 -37 107 181 107 419 c 256
 107 691 296 1053 604 1053 c 256
 701 1053 797 1016 868 953 c 256
 889 934 891 900 872 879 c 256
 853 858 820 856 799 875 c 256
 747 920 673 949 604 949 c 256
 388 949 213 663 213 419 c 256
 213 227 342 67 529 67 c 256
 773 67 876 290 914 484 c 256
 938 611 969 830 986 962 c 256
 990 990 1016 1011 1044 1007 c 256
 1072 1003 1094 976 1090 948 c 256
 1073 816 1044 597 1018 464 c 256
 980 262 856 -37 529 -37 c 256
1746 784 m 256
 1746 502 1342 407 1153 407 c 256
 1090 407 1037 412 971 420 c 256
 943 423 922 450 925 478 c 256
 928 506 955 527 983 524 c 256
 1046 516 1095 513 1153 513 c 256
 1346 513 1641 620 1641 784 c 256
 1641 871 1554 949 1457 949 c 256
 1211 949 1019 683 1019 419 c 256
 1019 178 1166 67 1372 67 c 256
 1490 67 1620 110 1704 186 c 256
 1725 205 1759 203 1778 182 c 256
 1797 161 1795 127 1774 108 c 256
 1666 10 1512 -37 1372 -37 c 256
 1118 -37 915 118 915 419 c 256
 915 721 1131 1053 1457 1053 c 256
 1602 1053 1746 941 1746 784 c 256
EndSplineSet
EndChar

StartChar: ampersand
Encoding: 38 38 78
Width: 1374
GlyphClass: 2
Flags: HW
LayerCount: 2
Fore
SplineSet
659 1413 m 256
 827 1413 1005 1302 1005 1095 c 256
 1005 839 790 748 618 677 c 256
 434 601 300 525 300 352 c 256
 300 163 455 67 639 67 c 256
 821 67 1009 151 1069 264 c 256
 1082 289 1115 299 1140 286 c 256
 1165 273 1175 241 1162 216 c 256
 1074 49 843 -37 639 -37 c 256
 417 -37 194 98 194 359 c 256
 194 608 405 701 578 773 c 256
 760 849 901 915 901 1095 c 256
 901 1230 787 1309 659 1309 c 256
 526 1309 399 1223 399 1063 c 256
 399 742 884 301 1162 81 c 256
 1184 63 1188 29 1170 7 c 256
 1152 -15 1118 -19 1096 -1 c 256
 824 215 295 664 295 1063 c 256
 295 1293 484 1413 659 1413 c 256
EndSplineSet
EndChar

StartChar: asciicircum
Encoding: 94 94 80
Width: 718
GlyphClass: 2
Flags: HW
LayerCount: 2
Fore
SplineSet
162 1140 m 256
 147 1150 141 1171 151 1187 c 258
 317 1456 l 258
 328 1476 361 1473 372 1459 c 258
 564 1218 l 258
 575 1204 573 1182 559 1170 c 256
 545 1159 523 1162 512 1176 c 258
 349 1380 l 257
 209 1151 l 258
 199 1136 178 1130 162 1140 c 256
EndSplineSet
EndChar

StartChar: asciitilde
Encoding: 126 126 81
Width: 870
GlyphClass: 2
Flags: HW
LayerCount: 2
Fore
SplineSet
105 1120 m 256
 87 1126 76 1145 82 1162 c 256
 112 1252 177 1324 279 1324 c 256
 359 1324 419 1290 471 1252 c 256
 513 1222 552 1206 591 1206 c 256
 655 1206 707 1251 741 1331 c 256
 748 1349 768 1356 785 1349 c 256
 802 1341 810 1322 803 1305 c 256
 757 1197 679 1138 591 1138 c 256
 535 1138 482 1159 430 1198 c 256
 385 1231 341 1258 281 1258 c 256
 211 1258 169 1206 148 1142 c 256
 142 1124 122 1114 105 1120 c 256
EndSplineSet
EndChar

StartChar: asterisk
Encoding: 42 42 82
Width: 1108
GlyphClass: 2
Flags: HW
LayerCount: 2
Fore
SplineSet
942 641 m 256
 926 622 895 618 876 634 c 256
 764 726 648 807 529 876 c 256
 405 948 277 1008 143 1058 c 256
 119 1066 108 1093 116 1117 c 256
 124 1141 151 1152 175 1144 c 256
 313 1092 448 1032 576 956 c 256
 699 885 820 803 936 706 c 256
 955 690 958 660 942 641 c 256
165 641 m 256
 149 660 152 690 171 706 c 256
 287 803 409 885 532 956 c 256
 660 1032 795 1092 933 1144 c 256
 957 1152 984 1141 992 1117 c 256
 1000 1093 989 1066 965 1058 c 256
 831 1008 702 948 578 876 c 256
 459 807 342 726 230 634 c 256
 211 618 181 622 165 641 c 256
509 1390 m 256
 533 1395 557 1377 562 1353 c 256
 588 1203 601 1057 601 915 c 256
 601 765 586 620 562 474 c 256
 558 450 533 433 509 437 c 256
 485 441 468 466 472 490 c 256
 496 630 507 771 507 915 c 256
 507 1053 498 1193 472 1337 c 256
 467 1361 485 1385 509 1390 c 256
EndSplineSet
EndChar

StartChar: at
Encoding: 64 64 83
Width: 2213
GlyphClass: 2
Flags: HW
LayerCount: 2
Fore
SplineSet
1665 -296 m 256
 1680 -320 1672 -354 1648 -369 c 256
 1497 -463 1319 -517 1129 -517 c 256
 592 -517 147 -146 147 400 c 256
 147 941 617 1447 1162 1447 c 256
 1650 1447 2065 1066 2065 564 c 256
 2065 338 1951 -27 1674 -27 c 256
 1487 -27 1379 191 1379 362 c 256
 1379 394 1381 428 1385 461 c 256
 1389 489 1416 510 1444 506 c 256
 1472 502 1493 475 1489 447 c 256
 1485 420 1484 388 1483 362 c 256
 1477 208 1567 79 1671 79 c 256
 1841 79 1961 344 1961 564 c 256
 1961 1004 1596 1343 1162 1343 c 256
 681 1343 253 885 253 400 c 256
 253 -80 640 -413 1129 -413 c 256
 1299 -413 1457 -363 1592 -279 c 256
 1616 -264 1650 -272 1665 -296 c 256
1432 784 m 257
 1342 843 1245 871 1152 871 c 256
 928 871 721 680 721 372 c 256
 721 194 839 67 1021 67 c 256
 1253 67 1358 279 1385 462 c 258
 1432 784 l 257
1541 803 m 258
 1489 446 l 258
 1460 247 1335 -37 1021 -37 c 256
 781 -37 615 140 615 372 c 256
 615 730 864 977 1152 977 c 256
 1276 977 1404 937 1520 854 c 256
 1536 842 1544 821 1541 803 c 258
EndSplineSet
EndChar

StartChar: b
Encoding: 98 98 85
Width: 1163
GlyphClass: 2
Flags: HW
LayerCount: 2
Fore
SplineSet
244 1413 m 256
 273 1412 295 1388 294 1359 c 258
 252 43 l 258
 251 14 227 -8 198 -7 c 256
 169 -6 147 18 148 47 c 258
 190 1363 l 258
 191 1392 215 1414 244 1413 c 256
211 677 m 256
 185 689 172 720 184 746 c 256
 274 946 428 1053 618 1053 c 256
 935 1053 1055 758 1055 495 c 256
 1055 204 824 -37 515 -37 c 256
 464 -37 411 -31 361 -18 c 256
 333 -11 316 18 323 46 c 256
 330 74 360 91 388 84 c 256
 429 73 472 67 515 67 c 256
 766 67 951 262 951 495 c 256
 951 740 847 949 618 949 c 256
 473 949 356 874 280 704 c 256
 268 678 237 665 211 677 c 256
EndSplineSet
EndChar

StartChar: backslash
Encoding: 92 92 86
Width: 1105
GlyphClass: 2
Flags: HW
LayerCount: 2
Fore
SplineSet
149 1358 m 256
 172 1375 205 1370 222 1347 c 256
 535 925 781 570 975 18 c 256
 984 -9 969 -41 942 -50 c 256
 915 -59 885 -45 876 -18 c 256
 688 520 451 865 138 1285 c 256
 121 1308 126 1341 149 1358 c 256
EndSplineSet
EndChar

StartChar: bar
Encoding: 124 124 87
Width: 417
GlyphClass: 2
Flags: HW
LayerCount: 2
Fore
SplineSet
217 1511 m 256
 246 1511 269 1488 269 1459 c 256
 269 1039 260 366 253 -1 c 256
 253 -30 228 -52 199 -52 c 256
 170 -52 148 -28 148 1 c 256
 155 368 165 1041 165 1459 c 256
 165 1488 188 1511 217 1511 c 256
EndSplineSet
EndChar

StartChar: braceleft
Encoding: 123 123 88
Width: 695
GlyphClass: 2
Flags: HW
LayerCount: 2
Fore
SplineSet
47 752 m 256
 47 781 71 805 100 805 c 256
 386 805 55 1463 495 1463 c 256
 524 1463 548 1440 548 1411 c 256
 548 1382 524 1359 495 1359 c 256
 177 1359 524 699 100 699 c 256
 71 699 47 723 47 752 c 256
547 93 m 256
 547 64 524 41 495 41 c 256
 59 41 381 699 100 699 c 256
 71 699 48 723 48 752 c 256
 48 781 71 805 100 805 c 256
 521 805 173 145 495 145 c 256
 524 145 547 122 547 93 c 256
EndSplineSet
EndChar

StartChar: braceright
Encoding: 125 125 89
Width: 695
GlyphClass: 2
Flags: HW
LayerCount: 2
Fore
SplineSet
147 1411 m 256
 147 1440 171 1463 200 1463 c 256
 636 1463 314 805 595 805 c 256
 624 805 648 781 648 752 c 256
 648 723 624 699 595 699 c 256
 174 699 522 1359 200 1359 c 256
 171 1359 147 1382 147 1411 c 256
647 752 m 256
 647 723 624 699 595 699 c 256
 309 699 639 41 200 41 c 256
 171 41 148 64 148 93 c 256
 148 122 171 145 200 145 c 256
 518 145 171 805 595 805 c 256
 624 805 647 781 647 752 c 256
EndSplineSet
PairPos2: "'kern' Horizontal Kerning in Arabic lookup 2 per glyph data 0" uni0622 dx=300 dy=0 dh=300 dv=0 dx=0 dy=0 dh=0 dv=0
EndChar

StartChar: bracketleft
Encoding: 91 91 90
Width: 715
GlyphClass: 2
Flags: HW
LayerCount: 2
Fore
SplineSet
567 1325 m 256
 569 1296 548 1271 519 1269 c 256
 474 1265 429 1264 383 1264 c 256
 343 1264 302 1264 262 1266 c 257
 272 1167 277 1070 277 972 c 256
 277 827 268 684 260 546 c 256
 252 415 253 389 253 266 c 256
 253 124 332 105 512 97 c 256
 541 96 564 71 563 42 c 256
 562 13 537 -8 508 -7 c 256
 302 3 147 45 147 266 c 256
 147 389 148 421 156 552 c 256
 164 690 171 831 171 972 c 256
 171 1086 166 1201 152 1315 c 256
 149 1338 170 1376 208 1373 c 256
 259 1369 309 1369 361 1369 c 256
 413 1369 463 1369 511 1373 c 256
 540 1375 565 1354 567 1325 c 256
EndSplineSet
EndChar

StartChar: bracketright
Encoding: 93 93 91
Width: 726
GlyphClass: 2
Flags: HW
LayerCount: 2
Fore
SplineSet
148 1352 m 256
 152 1380 180 1399 208 1395 c 256
 300 1380 407 1370 511 1368 c 256
 545 1368 567 1333 561 1304 c 256
 525 1142 525 1063 525 875 c 256
 525 781 536 685 551 587 c 256
 566 487 579 385 579 285 c 256
 579 44 393 -7 207 -7 c 256
 178 -7 155 16 155 45 c 256
 155 74 178 97 207 97 c 256
 382 97 473 128 473 285 c 256
 473 377 462 473 447 571 c 256
 432 671 419 773 419 875 c 256
 419 1039 421 1127 447 1266 c 257
 359 1270 270 1279 192 1291 c 256
 164 1295 144 1324 148 1352 c 256
EndSplineSet
PairPos2: "'kern' Horizontal Kerning in Arabic lookup 2 per glyph data 0" uni0622 dx=300 dy=0 dh=300 dv=0 dx=0 dy=0 dh=0 dv=0
EndChar

StartChar: brokenbar
Encoding: 166 166 92
Width: 419
GlyphClass: 2
Flags: HW
LayerCount: 2
Fore
SplineSet
204 1413 m 256
 233 1413 257 1390 257 1361 c 256
 257 1216 256 1057 253 894 c 256
 253 865 228 843 199 843 c 256
 170 843 148 867 148 896 c 256
 151 1059 151 1216 151 1361 c 256
 151 1390 175 1413 204 1413 c 256
220 549 m 256
 249 549 271 525 271 496 c 256
 267 316 262 143 254 -3 c 256
 252 -32 227 -54 198 -52 c 256
 169 -50 147 -26 149 3 c 256
 157 149 163 318 167 498 c 256
 167 527 191 549 220 549 c 256
EndSplineSet
EndChar

StartChar: c
Encoding: 99 99 93
Width: 1031
GlyphClass: 2
Flags: HW
LayerCount: 2
Fore
SplineSet
894 873 m 256
 876 851 843 850 821 868 c 256
 762 920 694 949 611 949 c 256
 377 949 213 657 213 411 c 256
 213 231 291 67 528 67 c 256
 658 67 754 103 844 158 c 256
 868 173 901 164 916 140 c 256
 931 116 922 83 898 68 c 256
 796 7 678 -37 528 -37 c 256
 219 -37 107 199 107 411 c 256
 107 681 285 1053 611 1053 c 256
 722 1053 814 1010 889 946 c 256
 911 928 912 895 894 873 c 256
EndSplineSet
EndChar

StartChar: cedilla
Encoding: 184 184 95
Width: 717
GlyphClass: 2
Flags: HW
LayerCount: 2
Fore
SplineSet
286 33 m 256
 304 55 338 59 360 41 c 256
 454 -35 609 -206 609 -361 c 256
 609 -487 500 -553 319 -553 c 256
 253 -553 191 -545 146 -532 c 256
 118 -524 102 -494 110 -466 c 256
 118 -438 146 -422 174 -430 c 256
 207 -439 263 -449 319 -449 c 256
 457 -449 504 -406 504 -352 c 256
 504 -260 372 -105 294 -41 c 256
 272 -23 268 11 286 33 c 256
EndSplineSet
EndChar

StartChar: cent
Encoding: 162 162 96
Width: 1031
GlyphClass: 2
Flags: HW
LayerCount: 2
Fore
SplineSet
547 -417 m 256
 518 -417 495 -394 495 -365 c 258
 495 13 l 258
 495 42 518 65 547 65 c 256
 576 65 599 42 599 13 c 258
 599 -365 l 258
 599 -394 576 -417 547 -417 c 256
547 949 m 256
 518 949 495 972 495 1001 c 258
 495 1316 l 258
 495 1345 518 1369 547 1369 c 256
 576 1369 599 1345 599 1316 c 258
 599 1001 l 258
 599 972 576 949 547 949 c 256
EndSplineSet
Refer: 93 99 N 1 0 0 1 0 0 2
EndChar

StartChar: comma
Encoding: 44 44 98
Width: 478
GlyphClass: 2
Flags: HW
LayerCount: 2
Fore
SplineSet
86 -252 m 256
 62 -238 53 -204 67 -180 c 258
 297 216 l 258
 311 240 344 248 368 234 c 256
 392 220 401 186 387 162 c 258
 157 -234 l 258
 143 -258 110 -266 86 -252 c 256
EndSplineSet
EndChar

StartChar: currency
Encoding: 164 164 100
Width: 1109
GlyphClass: 2
Flags: HW
LayerCount: 2
Fore
SplineSet
993 6 m 256
 971 -12 938 -11 920 11 c 258
 800 148 l 258
 782 170 783 204 805 222 c 256
 827 240 861 239 879 217 c 258
 998 79 l 258
 1016 57 1015 24 993 6 c 256
299 809 m 256
 278 790 243 791 224 812 c 258
 111 934 l 258
 92 955 93 990 114 1009 c 256
 135 1028 170 1027 189 1006 c 258
 302 884 l 258
 321 863 320 828 299 809 c 256
994 1009 m 256
 1015 990 1017 956 998 935 c 258
 897 822 l 258
 878 801 845 798 824 817 c 256
 803 836 800 870 819 891 c 258
 920 1005 l 258
 939 1026 973 1028 994 1009 c 256
286 194 m 256
 307 175 309 141 290 120 c 258
 190 10 l 258
 171 -11 137 -13 116 6 c 256
 95 25 93 59 112 80 c 258
 212 190 l 258
 231 211 265 213 286 194 c 256
EndSplineSet
Refer: 149 111 N 1 0 0 1 0 0 2
EndChar

StartChar: d
Encoding: 100 100 101
Width: 1197
GlyphClass: 2
Flags: HW
LayerCount: 2
Fore
SplineSet
971 1413 m 256
 1000 1413 1022 1389 1022 1360 c 258
 1003 510 l 257
 1003 209 1014 132 1058 78 c 256
 1076 56 1072 22 1050 4 c 256
 1028 -14 994 -10 976 12 c 256
 901 104 899 218 899 512 c 257
 918 1362 l 258
 918 1391 942 1413 971 1413 c 256
871 832 m 256
 850 812 816 814 796 835 c 256
 720 916 642 947 567 947 c 256
 356 947 213 708 213 465 c 256
 213 222 333 67 537 67 c 256
 724 67 846 210 900 374 c 256
 909 401 940 416 967 407 c 256
 994 398 1009 367 1000 340 c 256
 938 154 786 -37 537 -37 c 256
 261 -37 107 186 107 465 c 256
 107 732 266 1051 567 1051 c 256
 672 1051 782 1006 874 907 c 256
 894 886 892 852 871 832 c 256
EndSplineSet
EndChar

StartChar: degree
Encoding: 176 176 102
Width: 830
GlyphClass: 2
Flags: HW
LayerCount: 2
Fore
SplineSet
623 1398 m 256
 623 1507 528 1612 414 1612 c 256
 313 1612 207 1506 207 1391 c 256
 207 1288 300 1196 400 1196 c 256
 522 1196 623 1292 623 1398 c 256
677 1398 m 256
 677 1258 548 1142 400 1142 c 256
 268 1142 153 1258 153 1391 c 256
 153 1534 279 1666 414 1666 c 256
 560 1666 677 1535 677 1398 c 256
EndSplineSet
EndChar

StartChar: dieresis
Encoding: 168 168 103
Width: 688
GlyphClass: 2
Flags: HW
LayerCount: 2
Fore
SplineSet
570 1211 m 256
 570 1166 533 1138 493 1138 c 256
 449 1138 418 1175 418 1210 c 256
 418 1257 448 1290 486 1290 c 256
 534 1290 570 1254 570 1211 c 256
270 1224 m 256
 270 1174 234 1138 184 1138 c 256
 145 1138 118 1176 118 1214 c 256
 118 1256 151 1290 194 1290 c 256
 232 1290 270 1263 270 1224 c 256
EndSplineSet
EndChar

StartChar: dollar
Encoding: 36 36 105
Width: 1182
GlyphClass: 2
Flags: HW
LayerCount: 2
Fore
SplineSet
575 1652 m 256
 593 1652 608 1637 608 1619 c 258
 608 -174 l 258
 608 -193 593 -209 575 -209 c 256
 557 -209 542 -193 542 -174 c 258
 542 1619 l 258
 542 1637 557 1652 575 1652 c 256
EndSplineSet
Refer: 50 83 N 1 0 0 1 0 0 2
EndChar

StartChar: dotlessi
Encoding: 305 305 106
Width: 415
GlyphClass: 2
Flags: HW
LayerCount: 2
Fore
SplineSet
218 1023 m 256
 247 1022 268 997 267 968 c 256
 256 736 253 210 253 0 c 256
 253 -29 229 -52 200 -52 c 256
 171 -52 148 -29 148 0 c 256
 148 210 152 736 163 974 c 256
 164 1003 189 1024 218 1023 c 256
EndSplineSet
EndChar

StartChar: e
Encoding: 101 101 107
Width: 1131
GlyphClass: 2
Flags: HW
LayerCount: 2
Fore
SplineSet
703 949 m 256
 455 949 267 702 267 440 c 256
 267 156 412 67 620 67 c 256
 742 67 864 96 946 170 c 256
 967 189 1001 187 1020 166 c 256
 1039 145 1037 111 1016 92 c 256
 906 -8 756 -37 620 -37 c 256
 368 -37 163 100 163 440 c 256
 163 744 379 1053 703 1053 c 256
 841 1053 991 966 991 805 c 256
 991 661 869 569 795 525 c 256
 601 410 380 341 154 325 c 256
 125 323 100 345 98 374 c 256
 96 403 117 427 146 429 c 256
 354 443 561 508 741 615 c 256
 815 659 887 719 887 802 c 256
 887 892 802 949 703 949 c 256
EndSplineSet
EndChar

StartChar: eight
Encoding: 56 56 112
Width: 1079
GlyphClass: 2
Flags: HW
LayerCount: 2
Fore
SplineSet
472 702 m 256
 638 636 859 507 859 295 c 256
 859 105 692 -37 488 -37 c 256
 279 -37 111 110 111 324 c 256
 111 674 611 1039 898 1163 c 256
 924 1175 955 1162 967 1136 c 256
 979 1110 967 1077 940 1067 c 256
 657 953 217 588 217 324 c 256
 217 170 329 67 488 67 c 256
 644 67 753 173 753 295 c 256
 753 425 598 540 434 606 c 256
 296 661 107 816 107 1024 c 256
 107 1234 272 1399 518 1399 c 256
 732 1399 865 1256 945 1048 c 256
 955 1021 941 990 914 980 c 256
 887 970 857 983 847 1010 c 256
 775 1200 673 1293 517 1293 c 256
 320 1293 213 1172 213 1024 c 256
 213 882 356 748 472 702 c 256
EndSplineSet
EndChar

StartChar: equal
Encoding: 61 61 114
Width: 1037
GlyphClass: 2
Flags: HW
LayerCount: 2
Fore
SplineSet
120 879 m 256
 122 900 142 916 164 914 c 256
 276 904 465 900 557 900 c 256
 666 900 782 906 874 914 c 256
 895 916 915 899 917 878 c 256
 919 856 902 838 881 836 c 256
 787 828 670 822 557 822 c 256
 464 822 274 826 156 836 c 256
 135 838 118 858 120 879 c 256
121 478 m 256
 125 499 146 514 167 510 c 256
 215 501 394 496 498 496 c 256
 603 496 745 500 874 510 c 256
 896 512 915 496 917 474 c 256
 919 452 902 434 880 432 c 256
 748 422 606 416 498 416 c 256
 390 416 218 419 153 432 c 256
 132 436 117 457 121 478 c 256
EndSplineSet
EndChar

StartChar: eth
Encoding: 240 240 115
Width: 1089
GlyphClass: 2
Flags: HW
LayerCount: 2
Fore
SplineSet
192 961 m 256
 171 980 170 1015 189 1036 c 256
 302 1161 667 1404 826 1456 c 256
 853 1465 883 1449 892 1422 c 256
 901 1395 885 1365 858 1356 c 256
 733 1316 358 1065 267 964 c 256
 248 943 213 942 192 961 c 256
536 -37 m 256
 226 -37 97 186 97 427 c 256
 97 687 295 907 565 907 c 256
 594 907 617 883 617 854 c 256
 617 825 594 801 565 801 c 256
 355 801 203 635 203 427 c 256
 203 222 294 67 536 67 c 256
 755 67 887 211 887 525 c 256
 887 759 749 1175 238 1371 c 256
 211 1381 198 1411 208 1438 c 256
 218 1465 249 1479 276 1469 c 256
 833 1255 991 795 991 525 c 256
 991 179 825 -37 536 -37 c 256
EndSplineSet
EndChar

StartChar: exclam
Encoding: 33 33 116
Width: 583
GlyphClass: 2
Flags: HW
LayerCount: 2
Fore
SplineSet
243 1413 m 256
 271 1417 298 1396 302 1368 c 256
 338 1101 347 862 347 572 c 256
 347 533 347 490 346 448 c 256
 346 419 322 398 293 398 c 256
 264 398 241 421 241 450 c 256
 242 492 243 533 243 572 c 256
 243 860 234 1093 198 1354 c 256
 194 1382 215 1409 243 1413 c 256
385 85 m 256
 385 44 356 -7 298 -7 c 256
 258 -7 197 18 197 84 c 256
 197 137 240 181 294 181 c 256
 352 181 385 131 385 85 c 256
EndSplineSet
EndChar

StartChar: f
Encoding: 102 102 118
Width: 773
GlyphClass: 2
Flags: HW
LayerCount: 2
Fore
SplineSet
519 1661 m 256
 569 1661 613 1632 651 1589 c 256
 670 1568 668 1534 647 1515 c 256
 631 1501 610 1498 591 1508 c 256
 565 1536 542 1547 525 1547 c 256
 475 1547 426 1434 415 1304 c 256
 384 962 376 347 376 -4 c 256
 376 -33 352 -56 323 -56 c 256
 294 -56 271 -33 271 -4 c 256
 271 349 280 964 311 1314 c 256
 324 1467 379 1661 519 1661 c 256
108 825 m 256
 106 854 127 879 156 881 c 256
 212 885 262 887 312 887 c 256
 416 887 515 880 619 868 c 256
 647 865 668 838 665 810 c 256
 662 782 635 761 607 764 c 256
 507 776 412 781 312 781 c 256
 262 781 214 781 164 777 c 256
 135 775 110 796 108 825 c 256
EndSplineSet
EndChar

StartChar: five
Encoding: 53 53 119
Width: 1113
GlyphClass: 2
Flags: HW
LayerCount: 2
Fore
SplineSet
994 1348 m 256
 1000 1320 982 1292 954 1286 c 256
 881 1270 772 1263 637 1263 c 256
 515 1263 388 1270 302 1282 c 257
 262 870 l 257
 342 924 431 949 528 949 c 256
 760 949 1005 820 1005 470 c 256
 1005 148 764 -37 496 -37 c 256
 366 -37 235 5 127 91 c 256
 105 109 101 143 119 165 c 256
 137 187 171 191 193 173 c 256
 281 103 390 67 496 67 c 256
 716 67 901 210 901 470 c 256
 901 747 724 843 518 843 c 256
 420 843 317 809 234 735 c 256
 226 728 212 722 198 722 c 256
 168 722 144 749 147 779 c 258
 203 1346 l 258
 206 1372 232 1398 265 1392 c 256
 342 1377 495 1369 637 1369 c 256
 768 1369 873 1376 932 1388 c 256
 960 1394 988 1376 994 1348 c 256
EndSplineSet
EndChar

StartChar: four
Encoding: 52 52 120
Width: 1268
GlyphClass: 2
Flags: HW
LayerCount: 2
Fore
SplineSet
742 1364 m 256
 769 1353 781 1323 770 1296 c 256
 663 1031 408 598 254 376 c 257
 518 350 864 375 1096 432 c 256
 1124 438 1153 421 1159 393 c 256
 1165 365 1148 336 1120 330 c 256
 846 264 445 238 153 280 c 256
 148 280 138 283 132 287 c 256
 106 303 100 339 118 363 c 256
 264 561 561 1058 674 1336 c 256
 685 1363 715 1375 742 1364 c 256
815 725 m 256
 843 722 865 696 862 668 c 258
 788 -5 l 258
 785 -33 758 -55 730 -52 c 256
 702 -49 681 -23 684 5 c 258
 758 678 l 258
 761 706 787 728 815 725 c 256
EndSplineSet
EndChar

StartChar: g
Encoding: 103 103 121
Width: 1177
GlyphClass: 2
Flags: HW
LayerCount: 2
Fore
SplineSet
819 927 m 256
 804 903 771 894 747 909 c 256
 707 933 644 949 593 949 c 256
 372 949 221 674 221 420 c 256
 221 172 357 67 524 67 c 256
 764 67 878 286 920 488 c 256
 926 516 954 534 982 528 c 256
 1010 522 1028 494 1022 466 c 256
 978 252 844 -37 524 -37 c 256
 299 -37 117 122 117 420 c 256
 117 694 276 1053 593 1053 c 256
 662 1053 739 1037 801 999 c 256
 825 984 834 951 819 927 c 256
972 1023 m 256
 1001 1024 1025 1003 1026 974 c 256
 1028 925 1029 842 1029 764 c 256
 1029 337 1029 8 945 -212 c 256
 873 -400 685 -493 503 -493 c 256
 361 -493 216 -437 120 -319 c 256
 102 -297 105 -263 127 -245 c 256
 149 -227 183 -231 201 -253 c 256
 273 -341 387 -387 503 -387 c 256
 653 -387 795 -312 847 -174 c 256
 919 14 925 337 925 764 c 256
 925 840 924 923 922 968 c 256
 921 997 943 1022 972 1023 c 256
EndSplineSet
EndChar

StartChar: germandbls
Encoding: 223 223 122
Width: 1124
GlyphClass: 2
Flags: HW
LayerCount: 2
Fore
SplineSet
561 1399 m 256
 772 1399 885 1212 885 1060 c 256
 885 916 848 854 757 781 c 256
 704 739 663 681 663 623 c 256
 663 565 704 533 762 503 c 256
 867 450 1017 360 1017 182 c 256
 1017 24 820 -39 672 -39 c 256
 601 -39 530 -26 468 8 c 256
 443 22 434 54 448 79 c 256
 462 104 487 111 513 100 c 256
 555 78 614 66 672 66 c 256
 792 66 910 113 910 189 c 256
 910 293 815 358 714 409 c 256
 638 449 559 509 559 619 c 256
 559 723 623 808 691 863 c 256
 762 919 779 950 779 1060 c 256
 779 1170 700 1293 561 1293 c 256
 455 1293 367 1229 338 1004 c 256
 300 712 277 372 252 0 c 256
 250 -29 225 -50 196 -48 c 256
 167 -46 146 -21 148 8 c 256
 173 380 196 720 234 1018 c 256
 268 1278 391 1399 561 1399 c 256
EndSplineSet
EndChar

StartChar: grave
Encoding: 96 96 123
Width: 539
GlyphClass: 2
Flags: HW
LayerCount: 2
Fore
SplineSet
159 1509 m 256
 173 1520 196 1517 207 1503 c 256
 270 1423 342 1287 390 1183 c 256
 398 1166 389 1146 373 1138 c 256
 356 1130 336 1138 328 1155 c 256
 282 1255 209 1390 153 1461 c 256
 142 1475 145 1497 159 1509 c 256
EndSplineSet
EndChar

StartChar: greater
Encoding: 62 62 124
Width: 645
GlyphClass: 2
Flags: HW
LayerCount: 2
Fore
SplineSet
139 1080 m 256
 157 1091 183 1085 194 1067 c 256
 266 949 353 846 452 760 c 256
 470 744 466 712 450 700 c 256
 351 618 264 518 194 394 c 256
 183 375 159 368 140 379 c 256
 121 390 115 415 126 434 c 256
 193 552 273 647 365 730 c 257
 275 815 194 913 126 1025 c 256
 115 1043 121 1069 139 1080 c 256
EndSplineSet
EndChar

StartChar: h
Encoding: 104 104 129
Width: 1126
GlyphClass: 2
Flags: HW
LayerCount: 2
Fore
SplineSet
300 1438 m 256
 329 1436 351 1411 349 1382 c 258
 252 -4 l 258
 250 -33 225 -54 196 -52 c 256
 167 -50 146 -25 148 4 c 258
 245 1390 l 258
 247 1419 271 1440 300 1438 c 256
216 361 m 256
 188 369 171 398 179 426 c 256
 268 744 401 1053 654 1053 c 256
 911 1053 967 823 967 626 c 256
 967 556 961 484 953 419 c 256
 945 355 939 289 939 227 c 256
 939 149 949 77 974 21 c 256
 986 -5 973 -36 947 -48 c 256
 921 -60 890 -47 878 -21 c 256
 844 55 835 141 835 227 c 256
 835 295 841 365 849 431 c 256
 857 494 863 562 863 626 c 256
 863 819 817 947 654 947 c 256
 501 947 374 730 281 398 c 256
 273 370 244 353 216 361 c 256
EndSplineSet
EndChar

StartChar: hyphen
Encoding: 45 45 130
Width: 1037
GlyphClass: 2
Flags: HW
LayerCount: 2
Fore
SplineSet
120 433 m 256
 118 454 135 474 156 476 c 256
 411 498 632 500 877 500 c 256
 899 500 918 483 918 461 c 256
 918 439 899 422 877 422 c 256
 632 422 415 420 164 398 c 256
 142 396 122 412 120 433 c 256
EndSplineSet
EndChar

StartChar: k
Encoding: 107 107 137
Width: 1019
GlyphClass: 2
Flags: HW
LayerCount: 2
Fore
SplineSet
904 -27 m 256
 890 -51 856 -60 832 -45 c 256
 604 89 360 307 190 502 c 256
 166 530 181 571 206 584 c 256
 406 686 602 843 734 1004 c 256
 752 1026 785 1030 807 1012 c 256
 829 994 833 960 815 938 c 256
 687 781 506 630 314 524 c 257
 473 351 690 161 886 45 c 256
 910 30 918 -3 904 -27 c 256
262 1413 m 256
 291 1412 313 1387 312 1358 c 258
 252 2 l 258
 251 -27 227 -49 198 -48 c 256
 169 -47 147 -23 148 6 c 258
 208 1364 l 258
 209 1393 233 1414 262 1413 c 256
EndSplineSet
EndChar

StartChar: l
Encoding: 108 108 138
Width: 419
GlyphClass: 2
Flags: HW
LayerCount: 2
Fore
SplineSet
222 1402 m 256
 251 1401 272 1377 271 1348 c 256
 255 1008 253 394 253 0 c 256
 253 -29 229 -52 200 -52 c 256
 171 -52 148 -29 148 0 c 256
 148 394 151 1006 167 1352 c 256
 168 1381 193 1403 222 1402 c 256
EndSplineSet
EndChar

StartChar: less
Encoding: 60 60 139
Width: 645
GlyphClass: 2
Flags: HW
LayerCount: 2
Fore
SplineSet
506 379 m 256
 488 368 462 374 451 392 c 256
 379 510 292 613 193 699 c 256
 175 715 178 748 194 760 c 256
 293 842 380 941 450 1065 c 256
 461 1083 487 1091 505 1080 c 256
 524 1069 531 1043 520 1025 c 256
 452 907 372 812 280 728 c 257
 370 643 451 546 519 434 c 256
 530 416 524 390 506 379 c 256
EndSplineSet
EndChar

StartChar: logicalnot
Encoding: 172 172 140
Width: 975
GlyphClass: 2
Flags: HW
LayerCount: 2
Fore
SplineSet
97 661 m 256
 97 690 121 713 150 713 c 258
 795 713 l 258
 827 713 847 684 847 661 c 258
 847 388 l 258
 847 359 824 335 795 335 c 256
 766 335 743 359 743 388 c 258
 743 609 l 257
 150 609 l 258
 121 609 97 632 97 661 c 256
EndSplineSet
EndChar

StartChar: m
Encoding: 109 109 141
Width: 1582
GlyphClass: 2
Flags: HW
LayerCount: 2
Fore
SplineSet
208 1039 m 256
 236 1045 264 1027 270 999 c 256
 288 915 301 804 301 678 c 256
 301 627 298 576 294 521 c 258
 252 4 l 258
 250 -25 225 -46 196 -44 c 256
 167 -42 146 -17 148 12 c 258
 190 529 l 258
 194 580 195 631 195 678 c 256
 195 798 184 903 168 977 c 256
 162 1005 180 1033 208 1039 c 256
240 553 m 256
 212 557 191 584 195 612 c 256
 231 888 387 1053 550 1053 c 256
 842 1053 859 757 859 549 c 256
 859 379 848 165 834 -4 c 256
 832 -32 805 -54 777 -52 c 256
 749 -50 727 -24 729 4 c 256
 743 171 755 383 755 549 c 256
 755 779 730 949 550 949 c 256
 465 949 331 848 299 598 c 256
 295 570 268 549 240 553 c 256
804 470 m 256
 775 472 753 496 755 525 c 256
 768 781 923 1053 1142 1053 c 256
 1367 1053 1429 829 1429 651 c 256
 1429 582 1426 495 1422 408 c 256
 1418 321 1416 234 1416 169 c 256
 1416 111 1421 60 1434 14 c 256
 1441 -14 1425 -44 1397 -51 c 256
 1369 -58 1339 -42 1332 -14 c 256
 1316 44 1310 105 1310 169 c 256
 1310 238 1314 325 1318 412 c 256
 1322 499 1325 584 1325 651 c 256
 1325 825 1269 949 1142 949 c 256
 1019 949 872 757 859 519 c 256
 857 490 833 468 804 470 c 256
EndSplineSet
EndChar

StartChar: mu
Encoding: 181 181 143
Width: 1099
GlyphClass: 2
Flags: HW
LayerCount: 2
Fore
SplineSet
254 -499 m 256
 226 -502 199 -480 196 -452 c 256
 172 -211 147 88 147 367 c 256
 147 603 180 871 226 1030 c 256
 234 1057 262 1074 290 1066 c 256
 318 1058 335 1027 327 1000 c 256
 287 857 253 593 253 367 c 256
 253 94 276 -203 300 -442 c 256
 303 -470 282 -496 254 -499 c 256
289 1066 m 256
 317 1059 334 1030 327 1002 c 256
 297 884 257 683 257 535 c 256
 257 273 285 67 511 67 c 256
 810 67 832 637 833 1015 c 256
 833 1044 856 1067 885 1067 c 256
 914 1067 938 1044 938 1015 c 256
 937 691 954 -37 511 -37 c 256
 177 -37 153 293 153 535 c 256
 153 701 193 904 225 1028 c 256
 232 1056 261 1073 289 1066 c 256
888 1067 m 256
 917 1065 939 1041 937 1012 c 256
 929 885 929 710 929 587 c 256
 929 405 934 227 952 54 c 256
 955 26 932 -1 904 -4 c 256
 876 -7 850 14 847 42 c 256
 829 221 825 405 825 587 c 256
 825 710 825 885 833 1018 c 256
 835 1047 859 1069 888 1067 c 256
EndSplineSet
EndChar

StartChar: multiply
Encoding: 215 215 144
Width: 872
GlyphClass: 2
Flags: HW
LayerCount: 2
Fore
SplineSet
116 942 m 256
 131 966 164 973 188 958 c 256
 317 877 464 754 577 641 c 256
 661 557 727 478 759 414 c 256
 771 388 762 356 736 343 c 256
 710 330 677 340 665 366 c 256
 643 410 583 487 503 567 c 256
 396 674 251 795 132 870 c 256
 108 885 101 918 116 942 c 256
159 358 m 256
 137 376 132 411 150 433 c 256
 249 559 352 671 461 780 c 256
 521 840 584 899 648 957 c 256
 669 976 703 975 722 954 c 256
 741 933 739 898 718 879 c 256
 654 821 593 764 535 706 c 256
 428 599 331 489 234 367 c 256
 216 345 181 340 159 358 c 256
EndSplineSet
EndChar

StartChar: n
Encoding: 110 110 145
Width: 1126
GlyphClass: 2
Flags: HW
LayerCount: 2
Fore
SplineSet
180 1044 m 256
 202 1062 235 1059 253 1037 c 256
 298 983 305 875 305 746 c 256
 305 525 276 220 253 -6 c 256
 250 -34 222 -55 194 -52 c 256
 166 -49 145 -22 148 6 c 256
 171 232 201 533 201 746 c 256
 201 861 190 949 169 976 c 256
 155 996 159 1027 180 1044 c 256
223 361 m 256
 195 368 179 398 186 426 c 256
 269 733 403 1053 681 1053 c 256
 931 1053 965 796 965 609 c 256
 965 549 961 484 953 419 c 256
 945 354 941 285 941 221 c 256
 941 145 949 77 974 21 c 256
 986 -5 973 -36 947 -48 c 256
 921 -60 890 -47 878 -21 c 256
 844 55 835 139 835 221 c 256
 835 291 841 362 849 431 c 256
 857 493 861 555 861 609 c 256
 861 808 823 947 681 947 c 256
 499 947 375 717 288 398 c 256
 281 370 251 354 223 361 c 256
EndSplineSet
EndChar

StartChar: nine
Encoding: 57 57 146
Width: 1208
GlyphClass: 2
Flags: HW
LayerCount: 2
Fore
SplineSet
556 1365 m 256
 793 1365 1011 1183 1011 795 c 256
 1011 474 844 91 510 -53 c 256
 484 -65 453 -52 441 -26 c 256
 429 0 442 31 468 43 c 256
 750 165 907 504 907 795 c 256
 907 1139 729 1261 556 1261 c 256
 340 1261 213 1086 213 886 c 256
 213 628 381 535 575 535 c 256
 756 535 919 607 1012 697 c 256
 1033 717 1066 716 1086 695 c 256
 1106 674 1105 641 1084 621 c 256
 969 511 784 429 575 429 c 256
 343 429 107 562 107 886 c 256
 107 1128 271 1365 556 1365 c 256
EndSplineSet
EndChar

StartChar: numbersign
Encoding: 35 35 148
Width: 1734
GlyphClass: 2
Flags: HW
LayerCount: 2
Fore
SplineSet
108 498 m 256
 109 527 133 549 162 548 c 258
 1512 497 l 258
 1541 496 1563 472 1562 443 c 256
 1561 414 1537 392 1508 393 c 258
 158 444 l 258
 129 445 107 469 108 498 c 256
200 920 m 256
 199 949 221 973 250 974 c 258
 1572 1013 l 258
 1601 1014 1625 992 1626 963 c 256
 1627 934 1605 910 1576 909 c 258
 254 870 l 258
 225 869 201 891 200 920 c 256
1043 -52 m 256
 1015 -46 996 -18 1002 10 c 258
 1262 1371 l 258
 1268 1399 1295 1418 1323 1412 c 256
 1351 1406 1370 1379 1364 1351 c 258
 1104 -10 l 258
 1098 -38 1071 -58 1043 -52 c 256
373 -50 m 256
 346 -42 330 -12 338 15 c 258
 744 1376 l 258
 752 1403 783 1420 810 1412 c 256
 837 1404 854 1373 846 1346 c 258
 438 -15 l 258
 430 -42 400 -58 373 -50 c 256
EndSplineSet
EndChar

StartChar: o
Encoding: 111 111 149
Width: 1109
GlyphClass: 2
Flags: HW
LayerCount: 2
Fore
SplineSet
567 949 m 256
 342 949 213 733 213 486 c 256
 213 255 350 67 540 67 c 256
 747 67 897 295 897 538 c 256
 897 752 771 949 567 949 c 256
567 1053 m 256
 853 1053 1001 784 1001 538 c 256
 1001 265 833 -37 540 -37 c 256
 270 -37 107 221 107 486 c 256
 107 759 258 1053 567 1053 c 256
EndSplineSet
EndChar

StartChar: one
Encoding: 49 49 155
Width: 715
GlyphClass: 2
Flags: HW
LayerCount: 2
Fore
SplineSet
506 -52 m 256
 477 -52 454 -29 454 0 c 258
 463 1316 l 258
 463 1345 486 1368 515 1368 c 256
 544 1368 567 1345 567 1316 c 258
 558 -0 l 258
 558 -29 535 -52 506 -52 c 256
551 1355 m 256
 572 1336 573 1301 554 1280 c 256
 448 1164 325 1070 184 1001 c 256
 158 989 125 998 113 1024 c 256
 101 1050 111 1083 137 1095 c 256
 266 1158 378 1245 476 1352 c 256
 495 1373 530 1374 551 1355 c 256
EndSplineSet
EndChar

StartChar: onehalf
Encoding: 189 189 156
Width: 2060
GlyphClass: 2
Flags: HW
LayerCount: 2
Fore
SplineSet
458 16 m 256
 442 31 441 56 456 72 c 256
 814 451 1257 1037 1477 1433 c 256
 1488 1452 1514 1460 1532 1449 c 256
 1551 1438 1558 1414 1547 1395 c 256
 1322 989 877 403 514 18 c 256
 499 2 474 1 458 16 c 256
384 480 m 256
 362 482 344 500 346 522 c 258
 411 1523 l 257
 339 1463 260 1405 180 1355 c 256
 161 1344 137 1351 126 1369 c 256
 115 1387 122 1413 140 1424 c 256
 229 1476 319 1546 394 1616 c 256
 400 1621 411 1626 421 1626 c 258
 456 1626 l 258
 478 1626 498 1606 496 1584 c 258
 426 518 l 258
 424 496 406 478 384 480 c 256
1293 330 m 256
 1271 330 1254 348 1254 370 c 256
 1254 564 1386 744 1597 744 c 256
 1785 744 1900 599 1900 424 c 256
 1900 230 1756 66 1584 -87 c 258
 1360 -288 l 257
 1456 -281 1548 -278 1642 -278 c 256
 1727 -278 1815 -284 1902 -288 c 256
 1924 -289 1941 -307 1940 -329 c 256
 1939 -351 1920 -367 1898 -366 c 256
 1799 -361 1699 -358 1604 -358 c 256
 1485 -358 1369 -362 1253 -374 c 256
 1217 -378 1191 -333 1222 -305 c 258
 1509 -44 l 258
 1689 120 1820 262 1820 424 c 256
 1820 566 1731 666 1594 666 c 256
 1436 666 1332 530 1332 370 c 256
 1332 348 1315 330 1293 330 c 256
EndSplineSet
EndChar

StartChar: onequarter
Encoding: 188 188 157
Width: 2006
GlyphClass: 2
Flags: HW
LayerCount: 2
Fore
SplineSet
384 480 m 256
 362 482 344 500 346 522 c 258
 411 1523 l 257
 339 1463 260 1405 180 1355 c 256
 161 1344 137 1351 126 1369 c 256
 115 1387 122 1413 140 1424 c 256
 229 1476 319 1546 394 1616 c 256
 400 1621 411 1626 421 1626 c 258
 456 1626 l 258
 478 1626 498 1606 496 1584 c 258
 426 518 l 258
 424 496 406 478 384 480 c 256
1536 722 m 256
 1556 714 1566 690 1558 670 c 256
 1472 457 1266 113 1142 -69 c 257
 1359 -88 1649 -70 1837 -24 c 256
 1858 -19 1880 -33 1885 -54 c 256
 1890 -75 1876 -97 1855 -102 c 256
 1635 -156 1299 -174 1066 -141 c 256
 1062 -141 1054 -138 1050 -136 c 256
 1031 -124 1025 -97 1039 -78 c 256
 1157 80 1394 478 1484 700 c 256
 1492 720 1516 730 1536 722 c 256
1607 296 m 256
 1628 294 1644 274 1642 253 c 258
 1582 -372 l 258
 1580 -393 1559 -410 1538 -408 c 256
 1517 -406 1500 -385 1502 -364 c 258
 1564 261 l 258
 1566 282 1586 298 1607 296 c 256
458 16 m 256
 442 31 441 56 456 72 c 256
 814 451 1257 1038 1477 1433 c 256
 1488 1452 1514 1460 1532 1449 c 256
 1551 1438 1558 1414 1547 1395 c 256
 1322 990 876 403 514 18 c 256
 499 2 474 1 458 16 c 256
EndSplineSet
EndChar

StartChar: ordfeminine
Encoding: 170 170 158
Width: 936
GlyphClass: 2
Flags: HW
LayerCount: 2
Fore
SplineSet
394 923 m 256
 548 923 611 1099 611 1247 c 256
 611 1383 541 1432 437 1432 c 256
 305 1432 207 1312 207 1156 c 256
 207 1016 286 923 394 923 c 256
394 869 m 256
 250 869 153 996 153 1156 c 256
 153 1332 269 1486 437 1486 c 256
 565 1486 665 1411 665 1247 c 256
 665 1095 600 869 394 869 c 256
709 1484 m 256
 723 1478 728 1461 722 1447 c 256
 697 1395 659 1252 659 1134 c 256
 659 1020 692 923 756 923 c 256
 771 923 783 911 783 896 c 256
 783 881 771 869 756 869 c 256
 632 869 605 1028 605 1134 c 256
 605 1262 641 1407 672 1471 c 256
 678 1485 695 1490 709 1484 c 256
EndSplineSet
EndChar

StartChar: oslash
Encoding: 248 248 160
Width: 1144
GlyphClass: 2
Flags: HW
LayerCount: 2
Fore
SplineSet
130 -58 m 256
 114 -48 109 -27 119 -12 c 256
 358 358 697 787 981 1057 c 256
 994 1070 1016 1068 1029 1055 c 256
 1042 1042 1040 1020 1027 1007 c 256
 747 741 411 316 176 -48 c 256
 166 -64 145 -68 130 -58 c 256
EndSplineSet
Refer: 149 111 N 1 0 0 1 26 0 2
EndChar

StartChar: p
Encoding: 112 112 162
Width: 1187
GlyphClass: 2
Flags: HW
LayerCount: 2
Fore
SplineSet
383 15 m 256
 383 44 407 67 436 67 c 256
 848 67 975 352 975 568 c 256
 975 831 837 949 698 949 c 256
 520 949 299 733 281 289 c 256
 280 260 255 238 226 239 c 256
 197 240 175 264 176 293 c 256
 194 761 434 1053 698 1053 c 256
 909 1053 1079 869 1079 568 c 256
 1079 310 914 -37 436 -37 c 256
 407 -37 383 -14 383 15 c 256
190 -485 m 256
 161 -484 140 -459 141 -430 c 258
 173 256 l 258
 181 385 187 500 187 603 c 256
 187 743 171 873 133 948 c 256
 121 974 130 1006 156 1018 c 256
 182 1030 215 1020 227 994 c 256
 277 891 293 749 293 603 c 256
 293 495 285 378 277 250 c 258
 245 -436 l 258
 244 -465 219 -486 190 -485 c 256
EndSplineSet
EndChar

StartChar: paragraph
Encoding: 182 182 163
Width: 1319
GlyphClass: 2
Flags: HW
LayerCount: 2
Fore
SplineSet
620 1056 m 256
 640 1056 656 1040 656 1020 c 258
 656 -382 l 258
 656 -402 640 -418 620 -418 c 256
 600 -418 584 -402 584 -382 c 258
 584 1020 l 258
 584 1040 600 1056 620 1056 c 256
923 996 m 256
 943 996 957 980 957 960 c 258
 957 -442 l 258
 957 -462 943 -478 923 -478 c 256
 903 -478 889 -462 889 -442 c 258
 889 960 l 258
 889 980 903 996 923 996 c 256
1194 1108 m 256
 1172 1090 1138 1090 1120 1112 c 256
 1026 1220 893 1293 715 1293 c 256
 444 1293 213 1078 213 811 c 256
 213 549 474 361 750 361 c 256
 822 361 894 373 962 399 c 256
 989 409 1019 395 1029 368 c 256
 1039 341 1025 311 998 301 c 256
 918 271 834 255 750 255 c 256
 436 255 107 471 107 811 c 256
 107 1140 390 1399 715 1399 c 256
 923 1399 1086 1310 1198 1182 c 256
 1216 1160 1216 1126 1194 1108 c 256
EndSplineSet
EndChar

StartChar: parenleft
Encoding: 40 40 164
Width: 606
GlyphClass: 2
Flags: HW
LayerCount: 2
Fore
SplineSet
383 1460 m 256
 409 1448 420 1415 408 1389 c 256
 283 1132 253 963 253 682 c 256
 253 408 326 240 454 -23 c 256
 466 -49 455 -82 429 -94 c 256
 403 -106 371 -95 359 -69 c 256
 231 194 147 386 147 682 c 256
 147 971 181 1166 312 1435 c 256
 324 1461 357 1472 383 1460 c 256
EndSplineSet
EndChar

StartChar: parenright
Encoding: 41 41 165
Width: 606
GlyphClass: 2
Flags: HW
LayerCount: 2
Fore
SplineSet
223 -94 m 256
 197 -82 186 -49 198 -23 c 256
 323 234 353 403 353 684 c 256
 353 958 280 1126 152 1389 c 256
 140 1415 151 1448 177 1460 c 256
 203 1472 236 1461 248 1435 c 256
 376 1172 459 980 459 684 c 256
 459 395 425 200 294 -69 c 256
 282 -95 249 -106 223 -94 c 256
EndSplineSet
PairPos2: "'kern' Horizontal Kerning in Arabic lookup 2 per glyph data 0" uni0622 dx=320 dy=0 dh=320 dv=0 dx=0 dy=0 dh=0 dv=0
EndChar

StartChar: period
Encoding: 46 46 167
Width: 478
GlyphClass: 2
Flags: HW
LayerCount: 2
Fore
SplineSet
117 87 m 256
 117 131 154 173 206 173 c 256
 261 173 283 124 283 94 c 256
 283 49 253 1 201 1 c 256
 139 1 117 57 117 87 c 256
EndSplineSet
EndChar

StartChar: plus
Encoding: 43 43 169
Width: 1033
GlyphClass: 2
Flags: HW
LayerCount: 2
Fore
SplineSet
455 1104 m 256
 483 1110 512 1093 518 1065 c 256
 551 917 569 726 569 566 c 256
 569 447 561 345 537 276 c 256
 528 249 497 234 470 243 c 256
 443 252 429 283 438 310 c 256
 454 355 463 453 463 566 c 256
 463 718 447 905 416 1041 c 256
 410 1069 427 1098 455 1104 c 256
108 635 m 256
 105 663 126 690 154 693 c 256
 314 712 464 719 618 719 c 256
 703 719 790 717 876 713 c 256
 905 712 927 687 926 658 c 256
 925 629 899 608 870 609 c 256
 784 613 701 615 618 615 c 256
 468 615 320 608 166 589 c 256
 138 586 111 607 108 635 c 256
EndSplineSet
EndChar

StartChar: q
Encoding: 113 113 171
Width: 1163
GlyphClass: 2
Flags: HW
LayerCount: 2
Fore
SplineSet
813 844 m 256
 791 826 757 830 739 852 c 256
 694 908 626 949 532 949 c 256
 327 949 213 724 213 484 c 256
 213 236 297 67 506 67 c 256
 706 67 818 219 880 418 c 256
 888 445 919 462 946 453 c 256
 973 444 988 415 980 388 c 256
 914 175 774 -39 506 -39 c 256
 209 -39 107 222 107 484 c 256
 107 740 233 1053 532 1053 c 256
 658 1053 758 998 821 918 c 256
 839 896 835 862 813 844 c 256
967 1029 m 256
 996 1027 1017 1002 1015 973 c 256
 993 677 981 383 981 87 c 256
 981 -83 986 -252 993 -422 c 256
 994 -451 971 -476 942 -477 c 256
 913 -478 889 -457 888 -428 c 256
 881 -256 877 -83 877 87 c 256
 877 385 889 683 911 981 c 256
 913 1010 938 1031 967 1029 c 256
EndSplineSet
EndChar

StartChar: question
Encoding: 63 63 172
Width: 1155
GlyphClass: 2
Flags: HW
LayerCount: 2
Fore
SplineSet
321 876 m 256
 296 863 263 874 250 899 c 256
 215 967 197 1034 197 1097 c 256
 197 1290 361 1413 581 1413 c 256
 801 1413 957 1264 957 1058 c 256
 957 899 825 805 717 716 c 256
 618 633 581 593 581 486 c 256
 581 472 583 459 589 443 c 256
 597 421 580 391 553 382 c 256
 526 373 496 389 487 416 c 256
 479 439 477 464 477 486 c 256
 477 628 550 699 656 787 c 256
 770 882 853 956 853 1065 c 256
 853 1204 751 1309 579 1309 c 256
 403 1309 303 1219 303 1097 c 256
 303 1052 315 1003 344 947 c 256
 357 922 346 889 321 876 c 256
627 89 m 256
 627 36 584 -7 530 -7 c 256
 478 -7 433 34 433 89 c 256
 433 143 476 187 530 187 c 256
 585 187 627 141 627 89 c 256
EndSplineSet
EndChar

StartChar: quoteleft
Encoding: 8216 8216 178
Width: 644
GlyphClass: 2
Flags: HW
LayerCount: 2
Fore
SplineSet
335 1387 m 256
 260 1387 207 1335 207 1225 c 256
 207 1079 274 937 370 844 c 256
 381 834 381 817 371 806 c 256
 361 795 343 796 332 806 c 256
 226 909 153 1063 153 1225 c 256
 153 1355 226 1441 335 1441 c 256
 443 1441 491 1348 491 1261 c 256
 491 1175 436 1075 335 1075 c 256
 300 1075 250 1090 226 1134 c 256
 219 1146 224 1162 236 1169 c 256
 248 1176 265 1170 272 1158 c 256
 282 1140 312 1129 335 1129 c 256
 394 1129 437 1191 437 1261 c 256
 437 1332 403 1387 335 1387 c 256
EndSplineSet
EndChar

StartChar: quotesingle
Encoding: 39 39 182
Width: 331
GlyphClass: 2
Flags: HW
LayerCount: 2
Fore
SplineSet
157 884 m 256
 143 886 132 899 134 913 c 256
 141 976 144 1050 144 1126 c 256
 144 1204 141 1285 134 1358 c 256
 132 1372 143 1386 157 1388 c 256
 171 1390 185 1378 187 1364 c 256
 194 1289 198 1206 198 1126 c 256
 198 1048 193 972 186 907 c 256
 184 893 171 882 157 884 c 256
EndSplineSet
EndChar

StartChar: r
Encoding: 114 114 183
Width: 905
GlyphClass: 2
Flags: HW
LayerCount: 2
Fore
SplineSet
796 1001 m 256
 802 973 783 946 755 940 c 256
 348 862 306 488 266 -4 c 256
 264 -33 239 -54 210 -52 c 256
 181 -50 160 -25 162 4 c 256
 200 478 240 946 735 1042 c 256
 763 1048 790 1029 796 1001 c 256
208 -52 m 256
 180 -49 159 -22 162 6 c 256
 177 147 189 346 189 532 c 256
 189 704 176 868 150 956 c 256
 142 983 158 1014 185 1022 c 256
 212 1030 242 1013 250 986 c 256
 282 878 293 710 293 532 c 256
 293 340 281 139 266 -6 c 256
 263 -34 236 -55 208 -52 c 256
EndSplineSet
EndChar

StartChar: s
Encoding: 115 115 185
Width: 980
GlyphClass: 2
Flags: HW
LayerCount: 2
Fore
SplineSet
824 765 m 256
 797 756 767 773 758 800 c 256
 730 888 636 949 507 949 c 256
 373 949 260 854 260 760 c 257
 261 624 393 579 538 543 c 256
 668 511 873 446 873 239 c 256
 873 53 663 -37 488 -37 c 256
 335 -37 181 20 117 112 c 256
 101 136 107 169 131 185 c 256
 155 201 183 189 204 171 c 256
 245 117 365 67 488 67 c 256
 647 67 767 140 767 238 c 256
 767 356 651 408 514 441 c 256
 382 473 155 532 155 761 c 256
 155 927 330 1055 507 1055 c 256
 670 1055 814 968 858 830 c 256
 867 803 851 774 824 765 c 256
EndSplineSet
EndChar

StartChar: section
Encoding: 167 167 186
Width: 916
GlyphClass: 2
Flags: HW
LayerCount: 2
Fore
SplineSet
521 872 m 256
 521 843 498 819 469 819 c 256
 342 819 212 752 212 671 c 256
 212 571 327 529 448 517 c 256
 588 503 819 419 819 209 c 256
 819 17 601 -37 457 -37 c 256
 314 -37 201 15 117 82 c 256
 95 100 91 134 109 156 c 256
 127 178 161 182 183 164 c 256
 253 109 340 67 457 67 c 256
 587 67 713 113 713 215 c 256
 713 333 570 399 438 413 c 256
 302 427 105 484 105 673 c 256
 105 839 312 925 469 925 c 256
 498 925 521 901 521 872 c 256
772 1108 m 256
 744 1102 715 1120 709 1148 c 256
 689 1241 592 1293 472 1293 c 256
 338 1293 211 1204 211 1104 c 256
 211 974 314 940 474 924 c 256
 615 909 819 852 819 662 c 256
 819 469 583 413 443 413 c 256
 414 413 391 436 391 465 c 256
 391 494 414 517 443 517 c 256
 565 517 713 566 713 663 c 256
 713 763 593 806 464 820 c 256
 313 836 107 875 107 1104 c 256
 107 1284 306 1399 472 1399 c 256
 616 1399 775 1333 811 1170 c 256
 817 1142 800 1114 772 1108 c 256
EndSplineSet
EndChar

StartChar: seven
Encoding: 55 55 188
Width: 1080
GlyphClass: 2
Flags: HW
LayerCount: 2
Fore
SplineSet
108 1262 m 256
 106 1291 128 1315 157 1317 c 258
 911 1366 l 258
 941 1368 966 1344 966 1314 c 256
 966 1306 964 1296 961 1290 c 256
 782 933 668 443 594 -8 c 256
 589 -36 562 -57 534 -52 c 256
 506 -47 485 -20 490 8 c 256
 559 434 664 895 830 1256 c 257
 163 1213 l 258
 134 1211 110 1233 108 1262 c 256
EndSplineSet
EndChar

StartChar: six
Encoding: 54 54 189
Width: 1099
GlyphClass: 2
Flags: HW
LayerCount: 2
Fore
SplineSet
548 67 m 256
 746 67 891 222 887 416 c 256
 883 658 734 759 576 759 c 256
 414 759 253 641 215 579 c 256
 200 555 167 546 143 561 c 256
 119 576 110 609 125 633 c 256
 185 731 372 863 576 863 c 256
 788 863 985 714 991 418 c 256
 995 168 806 -37 548 -37 c 256
 243 -37 107 203 107 475 c 256
 107 909 199 1369 619 1369 c 256
 691 1369 771 1358 859 1332 c 256
 886 1324 902 1293 894 1266 c 256
 886 1239 856 1222 829 1230 c 256
 749 1254 679 1265 619 1265 c 256
 311 1265 213 921 213 475 c 256
 213 233 317 67 548 67 c 256
EndSplineSet
EndChar

StartChar: slash
Encoding: 47 47 190
Width: 965
GlyphClass: 2
Flags: HW
LayerCount: 2
Fore
SplineSet
173 -45 m 256
 149 -30 140 3 155 27 c 256
 424 474 617 909 714 1372 c 256
 720 1400 748 1418 776 1412 c 256
 804 1406 822 1378 816 1350 c 256
 716 873 518 426 245 -27 c 256
 230 -51 197 -60 173 -45 c 256
EndSplineSet
EndChar

StartChar: sterling
Encoding: 163 163 192
Width: 1454
GlyphClass: 2
Flags: HW
LayerCount: 2
Fore
SplineSet
298 691 m 256
 305 719 334 736 362 729 c 256
 427 712 502 705 578 705 c 256
 688 705 799 718 889 736 c 256
 917 742 944 723 950 695 c 256
 956 667 937 640 909 634 c 256
 813 616 696 601 578 601 c 256
 496 601 413 608 336 627 c 256
 308 634 291 663 298 691 c 256
1307 306 m 256
 1336 304 1358 280 1356 252 c 256
 1328 23 1042 -37 828 -37 c 256
 642 -37 500 14 382 62 c 257
 341 32 289 15 225 15 c 256
 162 15 97 44 97 110 c 256
 97 170 161 197 219 197 c 256
 257 197 301 192 349 180 c 257
 428 271 447 463 447 687 c 258
 447 939 l 258
 447 1152 456 1399 621 1399 c 256
 721 1399 779 1323 779 1211 c 256
 779 1167 763 1142 739 1142 c 256
 724 1142 713 1149 709 1158 c 256
 707 1226 677 1259 635 1259 c 256
 569 1259 551 1116 551 939 c 258
 551 687 l 258
 551 489 540 275 455 148 c 257
 556 108 677 67 828 67 c 256
 1050 67 1224 117 1252 264 c 256
 1258 291 1282 308 1307 306 c 256
EndSplineSet
EndChar

StartChar: t
Encoding: 116 116 193
Width: 775
GlyphClass: 2
Flags: HW
LayerCount: 2
Fore
SplineSet
667 814 m 256
 663 786 636 764 608 768 c 256
 539 777 465 781 388 781 c 256
 314 781 238 777 166 768 c 256
 138 765 111 786 108 814 c 256
 105 842 126 869 154 872 c 256
 232 881 310 885 388 885 c 256
 469 885 547 881 622 872 c 256
 650 868 671 842 667 814 c 256
408 1268 m 256
 436 1265 457 1238 454 1210 c 256
 421 926 395 644 395 355 c 256
 395 217 403 67 538 67 c 256
 557 67 579 70 603 74 c 256
 631 80 658 60 664 32 c 256
 670 4 650 -24 622 -30 c 256
 592 -36 563 -37 538 -37 c 256
 306 -37 291 206 291 355 c 256
 291 650 317 936 350 1222 c 256
 353 1250 380 1271 408 1268 c 256
EndSplineSet
EndChar

StartChar: thorn
Encoding: 254 254 194
Width: 1166
GlyphClass: 2
Flags: HW
LayerCount: 2
Fore
SplineSet
235 1413 m 256
 264 1413 286 1389 286 1360 c 258
 252 -366 l 258
 252 -395 228 -417 199 -417 c 256
 170 -417 148 -393 148 -364 c 258
 182 1362 l 258
 182 1391 206 1413 235 1413 c 256
EndSplineSet
Refer: 149 111 N 1 0 0 1 57 0 2
EndChar

StartChar: three
Encoding: 51 51 195
Width: 1078
GlyphClass: 2
Flags: HW
LayerCount: 2
Fore
SplineSet
214 1016 m 256
 186 1022 168 1050 174 1078 c 256
 218 1276 381 1399 581 1399 c 256
 759 1399 923 1271 923 1008 c 256
 923 724 592 650 368 619 c 256
 340 615 313 636 309 664 c 256
 305 692 326 719 354 723 c 256
 594 756 817 826 817 1008 c 256
 817 1211 704 1293 578 1293 c 256
 426 1293 310 1206 276 1056 c 256
 270 1028 242 1010 214 1016 c 256
120 159 m 256
 138 181 171 185 193 167 c 256
 272 102 379 67 484 67 c 256
 696 67 865 214 866 404 c 257
 860 578 725 637 531 637 c 256
 477 637 421 629 370 620 c 256
 342 615 315 634 310 662 c 256
 305 690 324 717 352 722 c 256
 403 731 466 742 532 742 c 256
 746 742 963 667 971 413 c 257
 971 157 746 -37 484 -37 c 256
 357 -37 227 2 127 85 c 256
 105 103 102 137 120 159 c 256
EndSplineSet
EndChar

StartChar: threequarters
Encoding: 190 190 196
Width: 2156
GlyphClass: 2
Flags: HW
LayerCount: 2
Fore
SplineSet
205 1312 m 256
 184 1317 170 1339 175 1360 c 256
 209 1510 349 1598 479 1598 c 256
 611 1598 734 1503 734 1307 c 256
 734 1080 479 1011 316 975 c 256
 295 970 273 984 268 1005 c 256
 263 1026 277 1048 298 1053 c 256
 474 1093 656 1158 656 1312 c 256
 656 1458 569 1520 477 1520 c 256
 377 1520 277 1448 253 1342 c 256
 248 1321 226 1307 205 1312 c 256
764 828 m 257
 764 620 593 498 402 498 c 256
 307 498 210 529 135 591 c 256
 119 605 115 631 129 647 c 256
 143 663 169 667 185 653 c 256
 244 605 325 578 402 578 c 256
 560 578 685 669 685 823 c 257
 681 934 590 1000 464 1000 c 256
 415 1000 363 987 317 975 c 256
 296 970 273 983 268 1004 c 256
 263 1025 276 1048 297 1053 c 256
 344 1065 401 1080 464 1080 c 256
 618 1080 758 993 764 828 c 257
608 16 m 256
 592 31 591 56 606 72 c 256
 964 451 1407 1038 1627 1433 c 256
 1638 1452 1664 1460 1682 1449 c 256
 1701 1438 1708 1414 1697 1395 c 256
 1472 990 1026 403 664 18 c 256
 649 2 624 1 608 16 c 256
1686 722 m 256
 1706 714 1716 690 1708 670 c 256
 1622 457 1416 113 1292 -69 c 257
 1509 -88 1799 -70 1987 -24 c 256
 2008 -19 2030 -33 2035 -54 c 256
 2040 -75 2026 -97 2005 -102 c 256
 1785 -156 1449 -174 1216 -141 c 256
 1212 -141 1204 -138 1200 -136 c 256
 1181 -124 1175 -97 1189 -78 c 256
 1307 80 1544 478 1634 700 c 256
 1642 720 1666 730 1686 722 c 256
1757 296 m 256
 1778 294 1794 274 1792 253 c 258
 1732 -372 l 258
 1730 -393 1709 -410 1688 -408 c 256
 1667 -406 1650 -385 1652 -364 c 258
 1714 261 l 258
 1716 282 1736 298 1757 296 c 256
EndSplineSet
EndChar

StartChar: two
Encoding: 50 50 197
Width: 1171
GlyphClass: 2
Flags: HW
LayerCount: 2
Fore
SplineSet
208 851 m 256
 179 851 155 875 155 904 c 256
 155 1159 331 1399 609 1399 c 256
 853 1399 1005 1211 1005 1021 c 256
 1005 777 802 560 572 350 c 258
 306 106 l 257
 414 115 517 119 626 119 c 256
 753 119 884 114 1014 108 c 256
 1043 107 1065 83 1064 54 c 256
 1063 25 1037 3 1008 4 c 256
 878 10 751 15 626 15 c 256
 469 15 318 9 166 -7 c 256
 152 -8 135 -4 124 6 c 256
 102 27 102 64 124 84 c 258
 502 428 l 258
 734 640 901 837 901 1021 c 256
 901 1157 795 1293 609 1293 c 256
 401 1293 261 1115 261 904 c 256
 261 875 237 851 208 851 c 256
EndSplineSet
EndChar

StartChar: u
Encoding: 117 117 198
Width: 1103
GlyphClass: 2
Flags: HW
LayerCount: 2
Fore
SplineSet
260 1022 m 256
 288 1016 305 988 299 960 c 256
 275 852 253 624 253 392 c 256
 253 195 302 67 454 67 c 256
 662 67 751 226 802 597 c 256
 806 625 834 646 862 642 c 256
 890 638 910 611 906 583 c 256
 855 216 750 -37 454 -37 c 256
 206 -37 147 193 147 392 c 256
 147 630 171 862 197 982 c 256
 203 1010 232 1028 260 1022 c 256
866 1023 m 256
 895 1021 917 997 915 968 c 256
 909 860 907 750 907 639 c 256
 907 438 909 278 954 55 c 256
 960 27 942 0 914 -6 c 256
 886 -12 858 7 852 35 c 256
 805 268 801 438 801 639 c 256
 801 752 805 864 811 974 c 256
 813 1003 837 1025 866 1023 c 256
EndSplineSet
EndChar

StartChar: underscore
Encoding: 95 95 203
Width: 600
GlyphClass: 2
Flags: HW
LayerCount: 2
Fore
SplineSet
653 45 m 256
 653 16 629 -7 600 -7 c 258
 0 -7 l 258
 -29 -7 -53 16 -53 45 c 256
 -53 74 -29 97 0 97 c 258
 600 97 l 258
 629 97 653 74 653 45 c 256
EndSplineSet
EndChar

StartChar: uni00B2
Encoding: 178 178 206
Width: 718
GlyphClass: 2
Flags: HW
LayerCount: 2
Fore
SplineSet
180 1271 m 256
 165 1271 153 1283 153 1298 c 256
 153 1404 226 1504 343 1504 c 256
 445 1504 515 1424 515 1327 c 256
 515 1202 442 1130 356 1047 c 258
 258 952 l 257
 536 966 l 258
 551 967 563 957 564 942 c 256
 565 927 555 915 540 914 c 258
 188 894 l 258
 182 894 174 896 169 901 c 256
 157 911 157 930 168 941 c 258
 320 1087 l 258
 408 1172 461 1225 461 1327 c 256
 461 1398 415 1450 343 1450 c 256
 262 1450 207 1382 207 1298 c 256
 207 1283 195 1271 180 1271 c 256
EndSplineSet
EndChar

StartChar: uni00B3
Encoding: 179 179 207
Width: 664
GlyphClass: 2
Flags: HW
LayerCount: 2
Fore
SplineSet
203 1322 m 256
 189 1325 180 1340 183 1354 c 256
 198 1424 258 1486 343 1486 c 256
 430 1486 495 1410 495 1326 c 256
 495 1206 350 1169 264 1151 c 256
 250 1148 235 1157 232 1171 c 256
 229 1185 239 1200 253 1203 c 256
 349 1223 441 1260 441 1326 c 256
 441 1384 396 1432 343 1432 c 256
 286 1432 246 1390 235 1342 c 256
 232 1328 217 1319 203 1322 c 256
232 1171 m 256
 229 1185 238 1200 252 1203 c 256
 278 1209 310 1216 343 1216 c 256
 427 1216 507 1170 511 1076 c 256
 511 960 415 893 310 893 c 256
 258 893 204 909 163 943 c 256
 152 952 150 970 159 981 c 256
 168 992 186 994 197 985 c 256
 227 961 270 947 310 947 c 256
 393 947 458 996 458 1076 c 256
 455 1130 411 1162 343 1162 c 256
 316 1162 288 1157 264 1151 c 256
 250 1148 235 1157 232 1171 c 256
EndSplineSet
EndChar

StartChar: uni00B9
Encoding: 185 185 208
Width: 526
GlyphClass: 2
Flags: HW
LayerCount: 2
Fore
SplineSet
324 806 m 256
 309 807 299 820 300 835 c 258
 335 1400 l 257
 285 1360 231 1329 170 1304 c 256
 156 1298 141 1306 135 1320 c 256
 129 1334 136 1348 150 1354 c 256
 225 1384 291 1428 348 1479 c 256
 352 1483 360 1486 366 1486 c 256
 382 1486 393 1473 392 1457 c 258
 352 831 l 258
 351 816 339 805 324 806 c 256
EndSplineSet
EndChar

StartChar: uni0237
Encoding: 567 567 209
Width: 404
GlyphClass: 2
Flags: HW
LayerCount: 2
Fore
SplineSet
201 1023 m 256
 230 1023 253 1000 253 971 c 256
 253 664 252 418 245 223 c 256
 229 -229 182 -467 -50 -467 c 256
 -79 -467 -102 -443 -102 -414 c 256
 -102 -385 -79 -361 -50 -361 c 256
 80 -361 125 -214 141 227 c 256
 148 420 149 664 149 971 c 256
 149 1000 172 1023 201 1023 c 256
EndSplineSet
EndChar

StartChar: uni060C
Encoding: 1548 1548 210
Width: 644
GlyphClass: 2
Flags: HW
LayerCount: 2
Fore
SplineSet
335 -12 m 256
 226 -12 153 74 153 204 c 256
 153 366 226 521 332 624 c 256
 343 634 361 633 371 622 c 256
 381 611 381 594 370 584 c 256
 274 491 207 350 207 204 c 256
 207 94 260 42 335 42 c 256
 403 42 437 97 437 168 c 256
 437 238 394 300 335 300 c 256
 312 300 282 288 272 270 c 256
 265 258 248 253 236 260 c 256
 224 267 219 284 226 296 c 256
 250 340 300 354 335 354 c 256
 436 354 491 254 491 168 c 256
 491 81 443 -12 335 -12 c 256
EndSplineSet
EndChar

StartChar: uni061F
Encoding: 1567 1567 213
Width: 1105
GlyphClass: 2
Flags: HW
LayerCount: 2
Fore
SplineSet
791 863 m 256
 767 878 759 911 773 935 c 256
 787 959 803 1017 803 1066 c 256
 803 1183 723 1263 617 1263 c 256
 416 1263 303 1098 303 986 c 256
 303 918 375 850 457 782 c 256
 559 698 648 608 650 470 c 256
 650 440 627 416 598 416 c 256
 567 416 544 439 544 468 c 256
 542 556 491 622 389 704 c 256
 307 770 197 859 197 983 c 256
 197 1152 354 1369 617 1369 c 256
 783 1369 907 1235 907 1066 c 256
 907 998 890 927 863 881 c 256
 848 857 815 848 791 863 c 256
491 89 m 256
 491 141 532 187 587 187 c 256
 641 187 685 143 685 89 c 256
 685 34 639 -7 587 -7 c 256
 534 -7 491 35 491 89 c 256
EndSplineSet
EndChar

StartChar: uni0660
Encoding: 1632 1632 265
Width: 737
GlyphClass: 2
Flags: HW
LayerCount: 2
Fore
SplineSet
202 395 m 256
 202 305 283 222 380 222 c 256
 462 222 536 303 536 404 c 256
 536 494 476 558 392 558 c 256
 284 558 202 481 202 395 c 256
118 395 m 256
 118 537 248 640 392 640 c 256
 524 640 618 534 618 404 c 256
 618 267 518 138 380 138 c 256
 237 138 118 257 118 395 c 256
EndSplineSet
EndChar

StartChar: uni0661
Encoding: 1633 1633 266
Width: 580
GlyphClass: 2
Flags: HW
LayerCount: 2
Fore
SplineSet
163 1221 m 256
 190 1230 221 1215 230 1188 c 256
 375 764 453 490 453 0 c 256
 453 -29 429 -52 400 -52 c 256
 371 -52 348 -29 348 0 c 256
 348 478 275 732 130 1154 c 256
 121 1181 136 1212 163 1221 c 256
EndSplineSet
EndChar

StartChar: uni0662
Encoding: 1634 1634 267
Width: 1014
GlyphClass: 2
Flags: HW
LayerCount: 2
Fore
SplineSet
854 1249 m 256
 883 1249 907 1225 907 1196 c 256
 907 907 822 617 578 617 c 256
 317 617 195 975 131 1147 c 256
 121 1174 135 1204 162 1214 c 256
 189 1224 219 1209 229 1183 c 256
 315 959 413 721 575 721 c 256
 720 721 801 900 801 1196 c 256
 801 1225 825 1249 854 1249 c 256
160 1213 m 256
 186 1224 217 1212 228 1186 c 256
 374 837 504 459 504 0 c 256
 504 -29 480 -52 451 -52 c 256
 422 -52 399 -29 399 0 c 256
 399 439 276 798 132 1144 c 256
 121 1170 134 1202 160 1213 c 256
EndSplineSet
EndChar

StartChar: uni0663
Encoding: 1635 1635 268
Width: 1285
GlyphClass: 2
Flags: HW
LayerCount: 2
Fore
SplineSet
1109 1268 m 256
 1137 1270 1163 1248 1165 1220 c 256
 1170 1155 1174 1096 1174 1040 c 256
 1174 814 1124 615 940 615 c 256
 708 615 656 881 656 1166 c 256
 656 1195 673 1218 702 1218 c 256
 731 1218 755 1195 755 1166 c 256
 755 870 807 721 934 721 c 256
 1028 721 1070 826 1070 1024 c 256
 1070 1080 1067 1144 1061 1212 c 256
 1059 1240 1081 1266 1109 1268 c 256
702 1219 m 256
 731 1219 754 1195 754 1166 c 256
 755 884 745 615 509 615 c 256
 311 615 249 800 131 1142 c 256
 122 1169 135 1201 162 1210 c 256
 189 1219 221 1205 230 1178 c 256
 356 814 404 721 507 721 c 256
 633 721 656 862 656 1166 c 256
 656 1195 673 1219 702 1219 c 256
162 1210 m 256
 189 1219 221 1205 230 1178 c 256
 368 778 462 445 462 0 c 256
 462 -29 438 -52 409 -52 c 256
 380 -52 357 -29 357 0 c 256
 357 429 268 745 130 1142 c 256
 121 1169 135 1201 162 1210 c 256
EndSplineSet
EndChar

StartChar: uni0664
Encoding: 1636 1636 269
Width: 1037
GlyphClass: 2
Flags: HW
LayerCount: 2
Fore
SplineSet
703 1182 m 256
 703 1153 679 1129 650 1129 c 256
 461 1129 237 1049 237 905 c 256
 237 781 402 662 528 630 c 256
 556 623 573 594 566 566 c 256
 559 538 530 521 502 528 c 256
 356 564 131 707 131 905 c 256
 131 1157 465 1235 650 1235 c 256
 679 1235 703 1211 703 1182 c 256
564 598 m 256
 575 571 561 541 534 530 c 256
 381 470 213 340 213 219 c 256
 213 102 340 67 560 67 c 256
 671 67 783 87 856 118 c 256
 882 130 913 117 925 91 c 256
 937 65 924 34 898 22 c 256
 806 -17 682 -37 548 -37 c 256
 318 -37 107 6 107 211 c 256
 107 409 335 564 496 628 c 256
 523 639 553 625 564 598 c 256
EndSplineSet
EndChar

StartChar: uni0665
Encoding: 1637 1637 270
Width: 1150
GlyphClass: 2
Flags: HW
LayerCount: 2
Fore
SplineSet
583 -37 m 256
 318 -37 107 94 107 348 c 256
 107 660 414 940 581 1076 c 256
 603 1094 637 1090 655 1068 c 256
 673 1046 669 1012 647 994 c 256
 480 858 213 594 213 348 c 256
 213 170 348 67 583 67 c 256
 805 67 937 156 937 332 c 256
 937 644 548 954 282 1144 c 256
 258 1161 253 1192 270 1216 c 256
 287 1240 318 1245 342 1228 c 256
 602 1044 1043 720 1043 332 c 256
 1043 76 829 -37 583 -37 c 256
EndSplineSet
EndChar

StartChar: uni0666
Encoding: 1638 1638 271
Width: 1136
GlyphClass: 2
Flags: HW
LayerCount: 2
Fore
SplineSet
108 1147 m 256
 103 1175 123 1203 151 1208 c 256
 238 1222 326 1229 412 1229 c 256
 663 1229 855 1143 855 856 c 256
 855 416 874 301 1004 22 c 256
 1016 -4 1004 -36 978 -48 c 256
 952 -60 920 -48 908 -22 c 256
 774 267 749 416 749 856 c 256
 749 1071 643 1123 412 1123 c 256
 330 1123 250 1118 169 1104 c 256
 141 1099 113 1119 108 1147 c 256
EndSplineSet
EndChar

StartChar: uni0667
Encoding: 1639 1639 272
Width: 1158
GlyphClass: 2
Flags: HW
LayerCount: 2
Fore
SplineSet
132 1210 m 256
 156 1225 189 1218 204 1194 c 256
 390 898 527 654 595 282 c 257
 659 660 778 916 952 1223 c 256
 966 1248 999 1256 1024 1242 c 256
 1049 1228 1058 1196 1044 1171 c 256
 830 793 701 503 649 -6 c 256
 647 -29 629 -48 606 -52 c 256
 576 -58 548 -36 545 -6 c 256
 493 501 347 772 116 1138 c 256
 101 1162 108 1195 132 1210 c 256
EndSplineSet
EndChar

StartChar: uni0668
Encoding: 1640 1640 273
Width: 1168
GlyphClass: 2
Flags: HW
LayerCount: 2
Fore
SplineSet
1036 -59 m 256
 1012 -74 978 -66 963 -42 c 256
 774 264 645 510 578 883 c 257
 513 512 395 278 205 -28 c 256
 190 -52 156 -60 132 -45 c 256
 108 -30 100 4 115 28 c 256
 349 406 474 663 526 1172 c 256
 528 1195 546 1214 569 1218 c 256
 599 1224 627 1202 630 1172 c 256
 682 664 819 392 1053 14 c 256
 1068 -10 1060 -44 1036 -59 c 256
EndSplineSet
EndChar

StartChar: uni0669
Encoding: 1641 1641 274
Width: 1022
GlyphClass: 2
Flags: HW
LayerCount: 2
Fore
SplineSet
451 1251 m 256
 705 1251 768 1005 776 773 c 256
 788 436 808 180 889 24 c 256
 902 -1 891 -34 866 -47 c 256
 841 -60 809 -49 796 -24 c 256
 698 164 683 433 671 770 c 256
 663 1006 607 1147 448 1147 c 256
 298 1147 213 985 213 823 c 256
 213 672 316 617 484 617 c 256
 530 617 583 622 597 624 c 256
 625 627 652 606 655 578 c 256
 658 550 637 523 609 520 c 256
 589 518 536 513 484 513 c 256
 296 513 107 592 107 823 c 256
 107 1007 212 1251 451 1251 c 256
EndSplineSet
EndChar

StartChar: uni066B
Encoding: 1643 1643 276
Width: 454
GlyphClass: 2
Flags: HW
LayerCount: 2
Fore
SplineSet
375 552 m 256
 401 540 414 509 402 483 c 258
 20 -404 l 258
 8 -430 -23 -443 -49 -431 c 256
 -75 -419 -88 -388 -76 -362 c 258
 306 525 l 258
 318 551 349 564 375 552 c 256
EndSplineSet
EndChar

StartChar: uni06F4
Encoding: 1780 1780 296
Width: 1118
GlyphClass: 2
Flags: HW
LayerCount: 2
Fore
SplineSet
873 1257 m 256
 881 1229 864 1200 836 1192 c 256
 604 1129 512 944 512 688 c 256
 512 659 488 636 459 636 c 256
 430 636 407 659 407 688 c 256
 407 970 518 1215 808 1294 c 256
 836 1302 865 1285 873 1257 c 256
990 608 m 256
 993 580 972 554 944 551 c 256
 902 547 861 545 824 545 c 256
 603 545 452 615 342 708 c 257
 434 489 461 258 461 0 c 256
 461 -29 437 -52 408 -52 c 256
 379 -52 356 -29 356 0 c 256
 356 348 309 634 136 902 c 256
 124 921 125 952 146 970 c 256
 169 989 204 984 222 960 c 256
 338 796 494 651 824 651 c 256
 859 651 894 651 932 655 c 256
 960 658 987 636 990 608 c 256
EndSplineSet
EndChar

StartChar: uni06F5
Encoding: 1781 1781 297
Width: 1155
GlyphClass: 2
Flags: HW
LayerCount: 2
Fore
SplineSet
322 1198 m 256
 338 1222 371 1229 395 1213 c 256
 581 1089 1047 738 1047 342 c 256
 1047 126 937 -41 772 -41 c 256
 681 -41 595 22 531 102 c 256
 513 124 517 158 539 176 c 256
 561 194 595 190 613 168 c 256
 665 104 726 63 774 63 c 256
 860 63 943 153 943 342 c 256
 943 660 523 1001 337 1125 c 256
 313 1141 306 1174 322 1198 c 256
600 179 m 256
 624 163 632 131 616 107 c 256
 556 13 468 -39 378 -39 c 256
 228 -39 107 93 107 317 c 256
 107 675 403 938 625 1061 c 256
 650 1075 682 1065 696 1040 c 256
 710 1015 701 983 676 969 c 256
 468 854 213 615 213 317 c 256
 213 131 300 65 378 65 c 256
 427 65 482 93 528 163 c 256
 544 187 576 195 600 179 c 256
EndSplineSet
EndChar

StartChar: uni06F6
Encoding: 1782 1782 298
Width: 976
GlyphClass: 2
Flags: HW
LayerCount: 2
Fore
SplineSet
725 1105 m 256
 708 1082 675 1077 652 1094 c 256
 602 1132 549 1147 501 1147 c 256
 355 1147 213 1003 213 839 c 256
 213 685 350 607 528 607 c 256
 628 607 712 632 796 668 c 256
 822 680 852 667 864 641 c 256
 876 615 863 584 837 572 c 256
 747 534 646 503 528 503 c 256
 328 503 107 601 107 839 c 256
 107 1057 289 1251 501 1251 c 256
 573 1251 646 1228 714 1178 c 256
 737 1161 742 1128 725 1105 c 256
863 644 m 256
 876 618 866 586 840 573 c 256
 552 428 374 235 232 -25 c 256
 218 -50 186 -60 161 -46 c 256
 136 -32 126 0 140 25 c 256
 290 299 486 512 792 667 c 256
 818 680 850 670 863 644 c 256
EndSplineSet
EndChar

StartChar: uniE000
Encoding: 57344 57344 304
Width: 509
GlyphClass: 2
Flags: HW
LayerCount: 2
Fore
SplineSet
135 141 m 256
 135 176 165 212 212 212 c 256
 260 212 285 170 285 141 c 256
 285 114 269 57 209 57 c 256
 150 57 135 113 135 141 c 256
EndSplineSet
EndChar

StartChar: uniE001
Encoding: 57345 57345 305
Width: 660
GlyphClass: 2
Flags: HW
LayerCount: 2
Fore
SplineSet
82 73 m 256
 67 93 72 121 92 135 c 256
 167 190 265 227 380 227 c 256
 482 227 596 195 582 85 c 256
 580 58 559 38 535 40 c 256
 513 42 498 58 496 77 c 256
 502 122 452 139 380 139 c 256
 285 139 205 108 144 63 c 256
 124 48 96 54 82 73 c 256
EndSplineSet
EndChar

StartChar: uniE002
Encoding: 57346 57346 306
Width: 696
GlyphClass: 2
Flags: HW
LayerCount: 2
Fore
SplineSet
402 509 m 256
 494 509 593 472 594 371 c 256
 594 245 442 109 334 75 c 256
 310 67 286 83 279 106 c 256
 273 128 284 149 309 161 c 256
 380 186 500 294 500 360 c 256
 500 403 461 420 396 420 c 256
 298 420 146 369 111 345 c 256
 87 332 63 336 49 355 c 256
 35 374 39 402 59 417 c 256
 117 460 273 509 402 509 c 256
EndSplineSet
EndChar

StartChar: uniE003
Encoding: 57347 57347 307
Width: 696
GlyphClass: 2
Flags: HW
LayerCount: 2
Fore
SplineSet
450 89 m 256
 430 102 425 131 438 151 c 256
 451 170 459 194 459 230 c 256
 459 309 399 361 308 361 c 256
 231 361 167 301 167 234 c 256
 167 159 205 121 263 69 c 256
 281 53 282 24 266 6 c 256
 250 -12 221 -13 203 3 c 256
 147 55 77 119 77 234 c 256
 77 357 189 451 308 451 c 256
 435 451 547 365 547 230 c 256
 547 179 535 136 512 101 c 256
 499 81 470 76 450 89 c 256
EndSplineSet
EndChar

StartChar: uniE007
Encoding: 57351 57351 311
Width: 1067
GlyphClass: 2
Flags: HW
LayerCount: 2
Fore
SplineSet
128 1392 m 256
 117 1413 125 1441 146 1452 c 258
 740 1769 l 258
 761 1780 789 1772 800 1751 c 256
 811 1730 803 1702 782 1691 c 258
 188 1374 l 258
 167 1363 139 1371 128 1392 c 256
EndSplineSet
EndChar

StartChar: uniE008
Encoding: 57352 57352 312
Width: 250
GlyphClass: 2
Flags: HW
LayerCount: 2
Fore
SplineSet
-53 45 m 256
 -53 74 -29 97 0 97 c 258
 250 97 l 258
 279 97 303 74 303 45 c 256
 303 16 279 -7 250 -7 c 258
 0 -7 l 258
 -29 -7 -53 16 -53 45 c 256
EndSplineSet
EndChar

StartChar: uniE009
Encoding: 57353 57353 313
Width: 150
GlyphClass: 2
Flags: HW
LayerCount: 2
Fore
SplineSet
-53 45 m 256
 -53 74 -29 97 0 97 c 258
 150 97 l 258
 179 97 203 74 203 45 c 256
 203 16 179 -7 150 -7 c 258
 0 -7 l 258
 -29 -7 -53 16 -53 45 c 256
EndSplineSet
EndChar

StartChar: uniE00C
Encoding: 57356 57356 316
Width: 1069
GlyphClass: 2
Flags: HW
LayerCount: 2
Fore
SplineSet
541 919 m 256
 310 919 199 740 199 508 c 256
 199 276 310 97 541 97 c 256
 772 97 883 276 883 508 c 256
 883 740 772 919 541 919 c 256
541 1023 m 256
 848 1023 989 772 989 508 c 256
 989 244 848 -7 541 -7 c 256
 234 -7 95 244 95 508 c 256
 95 772 234 1023 541 1023 c 256
EndSplineSet
EndChar

StartChar: uniE00D
Encoding: 57357 57357 317
Width: 950
GlyphClass: 2
Flags: HW
LayerCount: 2
Fore
SplineSet
147 -53 m 256
 118 -53 95 -29 95 0 c 258
 95 584 l 258
 95 812 216 1023 482 1023 c 256
 748 1023 869 812 869 584 c 258
 869 0 l 258
 869 -29 846 -53 817 -53 c 256
 788 -53 765 -29 765 0 c 258
 765 584 l 258
 765 780 676 919 482 919 c 256
 288 919 199 780 199 584 c 258
 199 0 l 258
 199 -29 176 -53 147 -53 c 256
EndSplineSet
EndChar

StartChar: uniE00E
Encoding: 57358 57358 318
Width: 850
GlyphClass: 2
Flags: HW
LayerCount: 2
Fore
SplineSet
147 -53 m 256
 118 -53 95 -29 95 0 c 258
 95 598 l 258
 95 822 197 1023 432 1023 c 256
 667 1023 769 822 769 598 c 258
 769 0 l 258
 769 -29 746 -53 717 -53 c 256
 688 -53 665 -29 665 0 c 258
 665 598 l 258
 665 798 585 919 432 919 c 256
 279 919 199 798 199 598 c 258
 199 0 l 258
 199 -29 176 -53 147 -53 c 256
EndSplineSet
EndChar

StartChar: uniE012
Encoding: 57362 57362 321
Width: 0
GlyphClass: 2
Flags: H
LayerCount: 2
Fore
SplineSet
407 1721 m 256
 407 1706 395 1694 380 1694 c 256
 247 1694 107 1611 107 1545 c 256
 107 1503 150 1475 228 1455 c 256
 305 1435 383 1400 383 1315 c 256
 383 1215 222 1140 14 1140 c 256
 -1 1140 -12 1151 -12 1166 c 256
 -12 1181 -1 1193 14 1193 c 256
 225 1193 329 1270 329 1315 c 256
 329 1358 293 1383 216 1403 c 256
 142 1422 53 1456 53 1542 c 256
 53 1668 241 1748 380 1748 c 256
 395 1748 407 1736 407 1721 c 256
EndSplineSet
EndChar

StartChar: uniE014
Encoding: 57364 57364 323
Width: 1693
GlyphClass: 2
Flags: HW
LayerCount: 2
Fore
SplineSet
213 616 m 256
 213 348 496 97 752 97 c 256
 1203 97 1481 346 1481 760 c 256
 1481 1039 1226 1309 831 1309 c 256
 524 1309 213 1045 213 616 c 256
107 616 m 256
 107 1099 464 1413 831 1413 c 256
 1274 1413 1585 1105 1585 760 c 256
 1585 284 1247 -7 752 -7 c 256
 440 -7 107 282 107 616 c 256
EndSplineSet
EndChar

StartChar: uniE015
Encoding: 57365 57365 324
Width: 1693
GlyphClass: 2
Flags: HW
LayerCount: 2
Fore
SplineSet
1058 948 m 256
 1046 934 1021 932 1007 944 c 256
 967 980 922 999 864 999 c 256
 696 999 566 837 566 669 c 256
 566 524 641 423 808 423 c 256
 896 423 962 447 1024 485 c 256
 1040 495 1062 489 1072 473 c 256
 1082 457 1077 434 1061 424 c 256
 991 382 912 351 808 351 c 256
 600 351 495 495 495 669 c 256
 495 869 648 1071 864 1071 c 256
 939 1071 1002 1042 1054 998 c 256
 1068 986 1070 962 1058 948 c 256
EndSplineSet
EndChar

StartChar: uniE016
Encoding: 57366 57366 325
Width: 1667
GlyphClass: 2
Flags: HW
LayerCount: 2
Fore
SplineSet
556 882 m 256
 540 894 536 916 548 932 c 256
 605 1009 699 1054 793 1054 c 256
 932 1054 1083 957 1083 803 c 256
 1083 688 999 603 877 582 c 257
 943 513 1025 456 1108 410 c 256
 1125 400 1132 380 1122 363 c 256
 1112 346 1091 339 1074 349 c 256
 967 409 856 484 777 582 c 256
 773 586 770 594 770 602 c 256
 768 622 785 641 805 641 c 256
 939 641 1011 710 1011 803 c 256
 1011 904 907 983 793 983 c 256
 720 983 649 948 605 890 c 256
 593 874 572 870 556 882 c 256
694 922 m 256
 714 922 728 905 728 885 c 256
 720 714 707 533 690 369 c 256
 688 350 669 336 650 338 c 256
 631 340 616 358 618 377 c 256
 635 540 650 719 658 889 c 256
 658 909 674 922 694 922 c 256
EndSplineSet
EndChar

StartChar: uniE01D
Encoding: 57373 57373 332
Width: 1478
GlyphClass: 2
Flags: HW
LayerCount: 2
Fore
SplineSet
1097 98 m 256
 1190 98 1276 170 1276 253 c 256
 1276 339 1203 402 1109 402 c 256
 1017 402 964 353 964 263 c 256
 964 167 1028 98 1097 98 c 256
1097 14 m 256
 970 14 882 135 882 263 c 256
 882 397 977 486 1109 486 c 256
 1239 486 1360 391 1360 253 c 256
 1360 112 1224 14 1097 14 c 256
202 1188 m 256
 202 1096 273 1010 357 1010 c 256
 443 1010 506 1081 506 1175 c 256
 506 1268 456 1320 367 1320 c 256
 271 1320 202 1256 202 1188 c 256
118 1188 m 256
 118 1316 239 1402 367 1402 c 256
 502 1402 588 1306 588 1175 c 256
 588 1045 495 926 357 926 c 256
 217 926 118 1060 118 1188 c 256
EndSplineSet
EndChar

StartChar: uniE01E
Encoding: 57374 57374 333
Width: 1857
GlyphClass: 2
Flags: HW
LayerCount: 2
Fore
SplineSet
1423 1099 m 256
 1698 1099 1749 699 1749 399 c 256
 1749 76 1442 -7 1005 -7 c 258
 775 -7 l 258
 746 -7 723 16 723 45 c 256
 723 74 746 97 775 97 c 258
 1005 97 l 258
 1454 97 1645 180 1645 399 c 256
 1645 729 1574 993 1418 993 c 256
 1276 993 1207 820 1207 668 c 256
 1207 524 1287 467 1440 467 c 256
 1503 467 1562 481 1612 502 c 256
 1638 513 1669 500 1680 474 c 256
 1691 448 1678 417 1652 406 c 256
 1590 381 1519 363 1440 363 c 256
 1246 363 1103 455 1103 665 c 256
 1103 835 1186 1099 1423 1099 c 256
723 51 m 256
 726 79 753 100 781 97 c 256
 1078 61 1253 -60 1253 -234 c 256
 1253 -427 1030 -563 703 -563 c 256
 291 -563 127 -349 127 -62 c 256
 127 92 170 264 234 437 c 256
 244 464 274 478 301 468 c 256
 328 458 343 428 333 401 c 256
 272 234 233 72 233 -62 c 256
 233 -297 339 -457 703 -457 c 256
 1018 -457 1149 -334 1149 -234 c 256
 1149 -143 1056 -41 769 -7 c 256
 741 -4 720 23 723 51 c 256
EndSplineSet
EndChar

StartChar: uniE021
Encoding: 57377 57377 336
Width: 2243
GlyphClass: 2
Flags: HW
LayerCount: 2
Fore
SplineSet
690 -644 m 256
 904 -644 1225 -577 1225 -325 c 256
 1225 -141 1081 -100 929 -72 c 256
 806 -48 695 -20 695 87 c 256
 695 265 902 395 1167 448 c 257
 1246 178 1377 -7 1712 -7 c 258
 2243 -7 l 258
 2272 -7 2295 16 2295 45 c 256
 2295 74 2272 97 2243 97 c 258
 1712 97 l 258
 1416 97 1327 244 1255 523 c 256
 1249 547 1222 566 1195 562 c 256
 904 514 591 366 591 85 c 256
 591 -105 777 -153 909 -176 c 256
 1028 -198 1119 -219 1119 -325 c 256
 1119 -462 915 -538 690 -538 c 256
 379 -538 233 -433 233 -151 c 256
 233 -35 259 101 297 238 c 256
 305 266 288 295 260 303 c 256
 232 311 203 294 195 266 c 256
 155 123 127 -19 127 -151 c 256
 127 -498 347 -644 690 -644 c 256
EndSplineSet
EndChar

StartChar: uniE022
Encoding: 57378 57378 337
Width: 1712
GlyphClass: 2
Flags: HW
LayerCount: 2
Fore
SplineSet
690 -644 m 256
 904 -644 1225 -577 1225 -325 c 256
 1225 -141 1081 -100 929 -72 c 256
 806 -48 695 -20 695 87 c 256
 695 265 902 395 1167 448 c 257
 1246 178 1377 -7 1711 -7 c 257
 1712 -7 l 257
 1741 -7 1764 16 1764 45 c 256
 1764 74 1741 97 1712 97 c 257
 1711 97 l 257
 1416 97 1325 244 1255 523 c 256
 1249 547 1222 566 1195 562 c 256
 904 514 591 366 591 85 c 256
 591 -105 777 -153 909 -176 c 256
 1028 -198 1119 -219 1119 -325 c 256
 1119 -462 915 -538 690 -538 c 256
 379 -538 233 -433 233 -151 c 256
 233 -35 259 101 297 238 c 256
 305 266 288 295 260 303 c 256
 232 311 203 294 195 266 c 256
 155 123 127 -19 127 -151 c 256
 127 -498 347 -644 690 -644 c 256
EndSplineSet
EndChar

StartChar: uniE030
Encoding: 57392 57392 345
Width: 0
GlyphClass: 2
Flags: H
LayerCount: 2
Fore
SplineSet
146 1745 m 256
 160 1748 174 1738 177 1724 c 256
 192 1632 201 1537 201 1441 c 256
 201 1402 199 1362 196 1322 c 257
 240 1392 305 1449 393 1449 c 256
 472 1449 542 1392 542 1309 c 256
 542 1162 370 1130 258 1130 c 256
 222 1130 187 1132 152 1136 c 256
 101 1142 52 1152 2 1165 c 256
 -12 1169 -22 1184 -18 1198 c 256
 -14 1212 1 1221 15 1217 c 256
 53 1207 91 1200 129 1194 c 257
 141 1279 147 1361 147 1441 c 256
 147 1535 140 1626 125 1714 c 256
 122 1728 132 1742 146 1745 c 256
188 1186 m 257
 211 1184 234 1184 258 1184 c 256
 376 1184 488 1220 488 1309 c 256
 488 1358 448 1395 393 1395 c 256
 294 1395 225 1295 188 1186 c 257
EndSplineSet
EndChar

StartChar: uniE031
Encoding: 57393 57393 346
Width: 883
GlyphClass: 2
Flags: HW
LayerCount: 2
Fore
SplineSet
670 595 m 256
 654 579 628 581 612 597 c 256
 566 644 517 662 457 662 c 256
 348 662 228 550 228 414 c 256
 228 321 275 242 445 242 c 256
 512 242 632 251 718 262 c 256
 740 265 761 248 764 226 c 256
 767 204 750 183 728 180 c 256
 638 169 518 160 445 160 c 256
 237 160 144 277 144 414 c 256
 144 594 298 746 457 746 c 256
 535 746 612 718 672 653 c 256
 688 637 686 611 670 595 c 256
764 228 m 256
 768 206 752 184 730 180 c 256
 541 144 360 74 182 -35 c 256
 163 -47 137 -41 125 -22 c 256
 113 -3 119 23 138 35 c 256
 324 148 517 224 716 262 c 256
 738 266 760 250 764 228 c 256
EndSplineSet
EndChar

StartChar: uniE032
Encoding: 57394 57394 347
Width: 522
GlyphClass: 2
Flags: HW
LayerCount: 2
Fore
SplineSet
-109 1388 m 256
 -136 1399 -151 1429 -140 1456 c 256
 -77 1620 27 1734 179 1734 c 256
 259 1734 331 1700 404 1658 c 256
 470 1621 529 1591 594 1591 c 256
 657 1591 713 1630 714 1736 c 256
 717 1768 736 1789 765 1789 c 256
 794 1789 818 1765 818 1736 c 256
 818 1578 724 1485 602 1485 c 256
 502 1485 420 1529 350 1568 c 256
 286 1604 231 1628 179 1628 c 256
 87 1628 15 1561 -40 1418 c 256
 -51 1391 -82 1377 -109 1388 c 256
273 1198 m 256
 301 1202 328 1181 332 1153 c 256
 361 935 377 704 377 468 c 256
 377 312 370 155 357 -3 c 256
 355 -31 328 -53 300 -51 c 256
 272 -49 250 -23 252 5 c 256
 265 161 271 316 271 468 c 256
 271 700 257 925 228 1139 c 256
 224 1167 245 1194 273 1198 c 256
EndSplineSet
EndChar

StartChar: uniE033
Encoding: 57395 57395 348
Width: 445
GlyphClass: 2
Flags: HW
LayerCount: 2
Fore
SplineSet
193 1218 m 256
 221 1222 248 1201 252 1173 c 256
 284 933 297 796 297 531 c 256
 297 365 291 164 277 -3 c 256
 275 -31 248 -53 220 -51 c 256
 192 -49 170 -23 172 5 c 256
 186 168 193 367 193 531 c 256
 193 792 180 919 148 1159 c 256
 144 1187 165 1214 193 1218 c 256
EndSplineSet
EndChar

StartChar: uniE034
Encoding: 57396 57396 349
Width: 1252
GlyphClass: 2
Flags: HW
LayerCount: 2
Fore
SplineSet
693 -646 m 256
 419 -646 107 -516 107 -201 c 256
 107 254 707 459 935 520 c 257
 775 598 520 712 432 712 c 256
 349 712 282 668 234 533 c 256
 224 506 193 491 166 500 c 256
 139 509 125 541 134 568 c 256
 197 747 303 818 433 818 c 256
 583 818 954 633 1100 559 c 256
 1125 546 1145 531 1145 506 c 256
 1145 480 1124 458 1096 453 c 256
 966 435 213 241 213 -201 c 256
 213 -424 437 -540 693 -540 c 256
 821 -540 951 -509 1064 -449 c 256
 1090 -435 1121 -446 1135 -472 c 256
 1149 -498 1138 -529 1112 -543 c 256
 983 -611 839 -646 693 -646 c 256
EndSplineSet
EndChar

StartChar: uniE035
Encoding: 57397 57397 350
Width: 900
GlyphClass: 2
Flags: HW
LayerCount: 2
Fore
SplineSet
377 806 m 256
 396 827 430 829 451 810 c 256
 587 689 793 487 793 245 c 256
 793 62 603 -37 397 -37 c 256
 318 -37 232 -25 144 5 c 256
 117 14 102 45 111 72 c 256
 120 99 150 114 177 105 c 256
 254 79 330 67 397 67 c 256
 575 67 687 143 687 249 c 256
 687 427 517 611 381 732 c 256
 360 751 358 785 377 806 c 256
EndSplineSet
EndChar

StartChar: uniE036
Encoding: 57398 57398 351
Width: 807
GlyphClass: 2
Flags: HW
LayerCount: 2
Fore
SplineSet
529 535 m 256
 557 542 586 525 593 497 c 256
 635 336 659 195 659 71 c 256
 659 -241 510 -438 171 -508 c 256
 143 -514 115 -496 109 -468 c 256
 103 -440 122 -412 150 -406 c 256
 449 -344 555 -199 555 71 c 256
 555 183 533 316 491 471 c 256
 484 499 501 528 529 535 c 256
EndSplineSet
EndChar

StartChar: uniE037
Encoding: 57399 57399 352
Width: 2260
GlyphClass: 2
Flags: HW
LayerCount: 2
Fore
SplineSet
276 408 m 256
 302 397 315 365 304 339 c 256
 249 205 213 64 213 -58 c 256
 213 -261 333 -421 644 -421 c 256
 940 -421 1067 -253 1067 -23 c 256
 1067 95 1039 230 989 364 c 256
 979 391 993 421 1020 431 c 256
 1047 441 1077 427 1087 400 c 256
 1140 256 1173 111 1173 -23 c 256
 1173 -303 994 -525 644 -525 c 256
 285 -525 107 -319 107 -58 c 256
 107 84 149 237 208 379 c 256
 219 405 250 419 276 408 c 256
1019 431 m 256
 1046 441 1077 428 1087 401 c 256
 1190 139 1259 73 1363 73 c 256
 1491 73 1556 159 1591 427 c 256
 1595 455 1622 476 1650 472 c 256
 1678 468 1699 441 1695 413 c 256
 1658 131 1569 -33 1362 -33 c 256
 1193 -33 1095 94 989 363 c 256
 979 390 992 421 1019 431 c 256
1650 472 m 256
 1678 468 1699 441 1695 413 c 256
 1687 355 1683 326 1683 275 c 256
 1683 145 1744 69 1866 69 c 256
 1986 69 2047 155 2047 298 c 256
 2047 394 2029 477 2009 553 c 256
 2002 581 2019 611 2047 618 c 256
 2075 625 2104 609 2111 581 c 256
 2132 501 2153 406 2153 298 c 256
 2153 121 2060 -37 1867 -37 c 256
 1681 -37 1579 97 1579 275 c 256
 1579 332 1583 369 1591 427 c 256
 1595 455 1622 476 1650 472 c 256
EndSplineSet
EndChar

StartChar: uniE038
Encoding: 57400 57400 353
Width: 2305
GlyphClass: 2
Flags: HW
LayerCount: 2
Fore
SplineSet
2198 378 m 256
 2198 88 1886 -37 1650 -37 c 256
 1264 -37 1095 123 1003 346 c 256
 992 372 1005 403 1031 414 c 256
 1057 425 1089 412 1100 386 c 256
 1180 195 1312 67 1650 67 c 256
 1868 67 2093 184 2093 373 c 256
 2093 485 1998 557 1868 557 c 256
 1658 557 1502 395 1376 129 c 256
 1364 103 1332 92 1306 104 c 256
 1280 116 1268 147 1280 173 c 256
 1410 449 1595 663 1873 663 c 256
 2039 663 2198 559 2198 378 c 256
1035 416 m 256
 1062 425 1092 409 1101 382 c 256
 1147 240 1171 109 1171 -7 c 256
 1171 -326 975 -525 589 -525 c 256
 354 -525 107 -403 107 -117 c 256
 107 59 190 251 290 409 c 256
 305 433 339 441 363 426 c 256
 387 411 393 377 378 353 c 256
 284 207 213 27 213 -117 c 256
 213 -325 382 -421 589 -421 c 256
 931 -421 1067 -270 1067 -7 c 256
 1067 95 1045 216 1001 350 c 256
 992 377 1008 407 1035 416 c 256
EndSplineSet
EndChar

StartChar: uniE039
Encoding: 57401 57401 354
Width: 1511
GlyphClass: 2
Flags: HW
LayerCount: 2
Fore
SplineSet
1404 449 m 256
 1404 107 1049 -37 574 -37 c 256
 444 -37 303 -27 153 -7 c 256
 125 -3 104 24 108 52 c 256
 112 80 139 101 167 97 c 256
 313 77 450 67 574 67 c 256
 1049 67 1299 209 1299 445 c 256
 1299 567 1209 651 1082 651 c 256
 831 651 545 332 431 -88 c 256
 424 -111 401 -126 378 -120 c 256
 355 -114 339 -89 345 -66 c 256
 445 329 749 755 1087 755 c 256
 1264 755 1404 628 1404 449 c 256
375 -120 m 256
 352 -112 337 -87 345 -64 c 256
 431 206 477 548 477 892 c 256
 477 995 473 1101 464 1207 c 256
 462 1235 484 1261 512 1263 c 256
 540 1265 567 1243 569 1215 c 256
 578 1105 581 997 581 892 c 256
 581 538 521 190 431 -90 c 256
 423 -113 398 -128 375 -120 c 256
EndSplineSet
EndChar

StartChar: uniE03A
Encoding: 57402 57402 355
Width: 1275
GlyphClass: 2
Flags: HW
LayerCount: 2
Fore
SplineSet
889 962 m 256
 868 943 833 944 814 965 c 256
 769 1013 707 1041 632 1041 c 256
 486 1041 335 912 335 745 c 256
 335 583 469 509 687 509 c 256
 729 509 771 512 814 515 c 256
 837 517 862 518 884 519 c 256
 913 520 938 499 939 470 c 256
 940 441 917 416 888 415 c 256
 866 414 845 413 822 411 c 256
 779 408 733 405 687 405 c 256
 455 405 231 495 231 745 c 256
 231 976 430 1147 632 1147 c 256
 735 1147 827 1107 892 1037 c 256
 911 1016 910 981 889 962 c 256
939 467 m 256
 939 438 915 415 886 415 c 256
 587 415 213 162 213 -172 c 256
 213 -426 434 -547 717 -547 c 256
 852 -547 989 -514 1091 -462 c 256
 1116 -449 1149 -460 1162 -485 c 256
 1175 -510 1164 -543 1139 -556 c 256
 1019 -618 868 -651 717 -651 c 256
 414 -651 107 -512 107 -172 c 256
 107 242 545 519 886 519 c 256
 915 519 939 496 939 467 c 256
EndSplineSet
EndChar

StartChar: uniE03B
Encoding: 57403 57403 356
Width: 668
GlyphClass: 2
Flags: HW
LayerCount: 2
Fore
SplineSet
-53 45 m 256
 -53 74 -29 97 0 97 c 258
 668 97 l 258
 697 97 721 74 721 45 c 256
 721 16 697 -7 668 -7 c 258
 0 -7 l 258
 -29 -7 -53 16 -53 45 c 256
EndSplineSet
EndChar

StartChar: uniE03C
Encoding: 57404 57404 357
Width: 1276
GlyphClass: 2
Flags: HW
LayerCount: 2
Fore
SplineSet
1044 1263 m 256
 1073 1265 1097 1243 1099 1214 c 256
 1127 824 1149 496 1149 148 c 256
 1149 -199 1032 -477 619 -477 c 256
 306 -477 107 -287 107 -15 c 256
 107 125 155 276 208 382 c 256
 220 408 253 417 279 405 c 256
 305 393 314 360 302 334 c 256
 255 240 213 101 213 -15 c 256
 213 -227 352 -371 619 -371 c 256
 958 -371 1043 -179 1043 148 c 256
 1043 492 1023 818 995 1208 c 256
 993 1237 1015 1261 1044 1263 c 256
EndSplineSet
EndChar

StartChar: uniE03D
Encoding: 57405 57405 358
Width: 1177
GlyphClass: 2
Flags: HW
LayerCount: 2
Fore
SplineSet
724 625 m 256
 921 625 1070 473 1070 221 c 256
 1070 50 952 -37 796 -37 c 256
 694 -37 596 -20 514 -1 c 256
 442 16 384 28 340 28 c 256
 266 28 213 -7 213 -166 c 256
 213 -183 213 -199 214 -216 c 258
 243 -801 l 258
 244 -830 223 -855 194 -856 c 256
 165 -857 140 -836 139 -807 c 258
 109 -222 l 258
 108 -200 107 -183 107 -166 c 256
 107 35 193 133 332 133 c 256
 394 133 461 119 531 103 c 256
 617 85 708 67 796 67 c 256
 904 67 965 114 965 221 c 256
 965 426 857 521 727 521 c 256
 564 521 493 308 473 188 c 256
 468 160 440 139 412 144 c 256
 384 149 365 176 370 204 c 256
 388 316 462 625 724 625 c 256
EndSplineSet
EndChar

StartChar: uniE03E
Encoding: 57406 57406 359
Width: 865
GlyphClass: 2
Flags: HW
LayerCount: 2
Fore
SplineSet
429 -37 m 256
 241 -37 107 75 107 242 c 256
 107 407 222 622 395 770 c 256
 417 788 451 786 469 764 c 256
 487 742 485 708 463 690 c 256
 308 558 213 368 213 247 c 256
 213 147 290 67 429 67 c 256
 571 67 653 147 653 259 c 256
 653 392 519 605 301 794 c 256
 279 812 278 845 296 867 c 256
 314 889 347 890 369 872 c 256
 597 675 757 440 757 257 c 256
 757 76 619 -37 429 -37 c 256
EndSplineSet
EndChar

StartChar: uniE03F
Encoding: 57407 57407 360
Width: 878
GlyphClass: 2
Flags: HW
LayerCount: 2
Fore
SplineSet
444 699 m 256
 722 699 771 313 771 108 c 256
 771 -277 516 -447 170 -512 c 256
 142 -518 114 -498 108 -470 c 256
 102 -442 122 -416 150 -410 c 256
 474 -349 665 -213 665 108 c 256
 665 350 603 593 444 593 c 256
 338 593 254 461 254 269 c 256
 254 135 320 67 452 67 c 256
 492 67 538 73 592 87 c 256
 620 93 650 76 656 48 c 256
 662 20 646 -9 618 -15 c 256
 558 -29 502 -37 452 -37 c 256
 264 -37 154 77 154 260 c 256
 154 480 253 699 444 699 c 256
EndSplineSet
EndChar

StartChar: uniE040
Encoding: 57408 57408 361
Width: 0
GlyphClass: 2
Flags: H
LayerCount: 2
Fore
SplineSet
158 1890 m 256
 159 1875 149 1863 134 1862 c 256
 16 1853 -128 1713 -128 1561 c 256
 -128 1531 -123 1502 -111 1472 c 256
 -105 1458 -112 1443 -126 1437 c 256
 -140 1431 -155 1438 -161 1452 c 256
 -175 1488 -182 1525 -182 1561 c 256
 -182 1743 -20 1903 130 1914 c 256
 145 1915 157 1905 158 1890 c 256
191 1705 m 256
 305 1705 307 1562 307 1488 c 256
 307 1283 172 1213 -34 1202 c 256
 -49 1201 -61 1211 -62 1226 c 256
 -63 1241 -51 1253 -36 1254 c 256
 161 1265 253 1319 253 1488 c 256
 253 1580 244 1651 190 1651 c 256
 129 1651 84 1576 84 1510 c 256
 84 1432 237 1410 355 1410 c 256
 370 1410 382 1398 382 1383 c 256
 382 1368 370 1356 355 1356 c 256
 257 1356 30 1364 30 1508 c 256
 30 1588 83 1705 191 1705 c 256
EndSplineSet
EndChar

StartChar: uniE041
Encoding: 57409 57409 362
Width: 0
GlyphClass: 2
Flags: H
LayerCount: 2
Fore
SplineSet
-10 1332 m 256
 -15 1346 -8 1361 6 1366 c 258
 411 1510 l 258
 425 1515 440 1508 445 1494 c 256
 450 1480 443 1465 429 1460 c 258
 24 1316 l 258
 10 1311 -5 1318 -10 1332 c 256
EndSplineSet
EndChar

StartChar: uniE042
Encoding: 57410 57410 363
Width: 0
GlyphClass: 2
Flags: H
LayerCount: 2
Fore
SplineSet
191 1705 m 256
 305 1705 307 1562 307 1488 c 256
 307 1283 172 1213 -34 1202 c 256
 -49 1201 -61 1211 -62 1226 c 256
 -63 1241 -51 1253 -36 1254 c 256
 161 1265 253 1319 253 1488 c 256
 253 1580 244 1651 190 1651 c 256
 129 1651 84 1576 84 1510 c 256
 84 1432 237 1410 355 1410 c 256
 370 1410 382 1398 382 1383 c 256
 382 1368 370 1356 355 1356 c 256
 257 1356 30 1364 30 1508 c 256
 30 1588 83 1705 191 1705 c 256
EndSplineSet
EndChar

StartChar: uniE043
Encoding: 57411 57411 364
Width: 0
GlyphClass: 2
Flags: H
LayerCount: 2
Fore
SplineSet
407 1584 m 256
 421 1590 436 1585 442 1571 c 256
 463 1523 490 1445 490 1374 c 256
 490 1285 436 1236 364 1236 c 256
 308 1236 264 1274 239 1331 c 257
 213 1274 166 1237 110 1237 c 256
 45 1237 -11 1279 -11 1360 c 256
 -11 1422 19 1488 55 1535 c 256
 64 1547 81 1549 93 1540 c 256
 105 1531 107 1513 98 1501 c 256
 68 1462 43 1404 43 1360 c 256
 43 1311 69 1291 110 1291 c 256
 158 1291 207 1339 212 1443 c 256
 212 1455 222 1466 236 1468 c 256
 251 1470 265 1460 266 1444 c 256
 272 1338 317 1290 365 1290 c 256
 408 1290 436 1312 436 1374 c 256
 436 1433 413 1507 394 1549 c 256
 388 1563 393 1578 407 1584 c 256
EndSplineSet
EndChar

StartChar: uniE044
Encoding: 57412 57412 365
Width: 0
GlyphClass: 2
Flags: H
LayerCount: 2
Fore
SplineSet
176 1562 m 256
 121 1562 64 1510 64 1434 c 256
 64 1379 111 1324 175 1324 c 256
 232 1324 286 1372 286 1452 c 256
 286 1508 242 1562 176 1562 c 256
176 1616 m 256
 276 1616 340 1534 340 1452 c 256
 340 1348 266 1270 175 1270 c 256
 79 1270 10 1351 10 1434 c 256
 10 1536 87 1616 176 1616 c 256
EndSplineSet
EndChar

StartChar: uniE045
Encoding: 57413 57413 366
Width: 0
GlyphClass: 2
Flags: H
LayerCount: 2
Fore
SplineSet
583 1440 m 256
 597 1434 602 1418 596 1404 c 256
 562 1333 507 1261 419 1261 c 256
 381 1261 337 1275 291 1307 c 256
 255 1332 224 1342 194 1342 c 256
 138 1342 87 1305 52 1244 c 256
 44 1232 28 1227 16 1235 c 256
 4 1243 -2 1260 6 1272 c 256
 47 1343 114 1396 194 1396 c 256
 236 1396 279 1380 321 1351 c 256
 361 1325 393 1315 419 1315 c 256
 473 1315 514 1361 546 1428 c 256
 552 1442 569 1446 583 1440 c 256
EndSplineSet
EndChar

StartChar: uniE046
Encoding: 57414 57414 367
Width: 0
GlyphClass: 2
Flags: H
LayerCount: 2
Fore
SplineSet
368 1566 m 256
 356 1557 339 1559 330 1571 c 256
 300 1612 264 1627 228 1627 c 256
 154 1627 77 1557 77 1463 c 256
 77 1381 129 1350 221 1350 c 256
 278 1350 343 1363 410 1387 c 256
 425 1392 441 1383 445 1368 c 256
 448 1354 442 1339 428 1335 c 258
 23 1194 l 258
 9 1189 -7 1197 -12 1211 c 256
 -17 1225 -9 1241 5 1246 c 258
 175 1305 l 257
 91 1316 23 1363 23 1463 c 256
 23 1585 122 1681 228 1681 c 256
 282 1681 334 1656 374 1603 c 256
 383 1591 380 1575 368 1566 c 256
EndSplineSet
EndChar

StartChar: uniE047
Encoding: 57415 57415 368
Width: 0
GlyphClass: 2
Flags: H
LayerCount: 2
Fore
SplineSet
216 1005 m 257
 216 1125 131 1386 8 1504 c 256
 -3 1514 -4 1531 6 1542 c 256
 16 1553 33 1554 44 1544 c 256
 140 1452 209 1296 243 1166 c 257
 276 1294 346 1452 442 1544 c 256
 453 1554 470 1553 480 1542 c 256
 490 1531 489 1514 478 1504 c 256
 355 1386 270 1126 270 1004 c 256
 270 986 257 978 244 978 c 256
 230 978 216 987 216 1005 c 257
EndSplineSet
EndChar

StartChar: uniE048
Encoding: 57416 57416 369
Width: 1726
GlyphClass: 2
Flags: HW
LayerCount: 2
Fore
SplineSet
1482 672 m 256
 1506 686 1540 678 1554 653 c 256
 1592 586 1619 481 1619 383 c 256
 1619 5 1118 -37 843 -37 c 256
 544 -37 107 1 107 373 c 256
 107 452 123 550 153 610 c 256
 165 636 198 646 224 633 c 256
 250 621 257 593 247 562 c 256
 231 529 213 435 213 373 c 256
 213 121 520 67 843 67 c 256
 1146 67 1513 129 1513 383 c 256
 1513 461 1487 556 1462 601 c 256
 1449 629 1458 658 1482 672 c 256
EndSplineSet
EndChar

StartChar: uniE049
Encoding: 57417 57417 370
Width: 1439
GlyphClass: 2
Flags: HW
LayerCount: 2
Fore
SplineSet
998 695 m 256
 1292 695 1331 302 1331 91 c 256
 1331 -279 1130 -519 717 -519 c 256
 316 -519 107 -329 107 -40 c 256
 107 116 162 293 258 479 c 256
 271 504 303 515 328 502 c 256
 353 489 364 456 351 431 c 256
 261 255 213 92 213 -40 c 256
 213 -261 350 -413 717 -413 c 256
 1076 -413 1227 -231 1227 91 c 256
 1227 326 1171 591 996 591 c 256
 870 591 775 444 775 263 c 256
 775 121 851 67 996 67 c 256
 1090 67 1160 83 1220 116 c 256
 1245 130 1276 119 1290 94 c 256
 1304 69 1293 38 1268 24 c 256
 1190 -17 1104 -39 996 -39 c 256
 803 -39 671 56 671 260 c 256
 671 468 788 695 998 695 c 256
EndSplineSet
EndChar

StartChar: uniE04A
Encoding: 57418 57418 371
Width: 0
GlyphClass: 2
Flags: H
LayerCount: 2
Fore
SplineSet
11 1650 m 256
 25 1652 38 1640 40 1626 c 256
 48 1549 53 1478 53 1409 c 256
 53 1336 46 1262 22 1190 c 256
 18 1176 2 1169 -12 1173 c 256
 -26 1177 -34 1194 -30 1208 c 256
 -8 1274 -1 1340 -1 1409 c 256
 -1 1476 -4 1543 -12 1620 c 256
 -14 1634 -3 1648 11 1650 c 256
EndSplineSet
EndChar

StartChar: uniE04B
Encoding: 57419 57419 372
Width: 1719
GlyphClass: 2
Flags: HW
LayerCount: 2
Fore
SplineSet
1280 1085 m 256
 1543 1085 1611 744 1611 406 c 256
 1611 17 1179 -41 829 -41 c 256
 516 -41 107 10 107 367 c 256
 107 446 124 518 142 584 c 256
 150 611 180 628 208 620 c 256
 236 612 252 583 244 556 c 256
 226 496 213 432 213 367 c 256
 213 126 496 63 829 63 c 256
 1197 63 1507 131 1507 406 c 256
 1507 766 1428 979 1275 979 c 256
 1133 979 1047 828 1047 661 c 256
 1047 526 1095 445 1259 445 c 256
 1353 445 1457 470 1527 501 c 256
 1553 513 1584 500 1596 474 c 256
 1608 448 1595 417 1569 405 c 256
 1485 368 1371 341 1259 341 c 256
 1029 341 941 479 941 658 c 256
 941 852 1052 1085 1280 1085 c 256
EndSplineSet
EndChar

StartChar: uniE04C
Encoding: 57420 57420 373
Width: 1870
GlyphClass: 2
Flags: HW
LayerCount: 2
Fore
SplineSet
1757 1334 m 256
 1769 1308 1759 1276 1733 1264 c 258
 1063 936 l 257
 1237 755 1441 531 1441 303 c 256
 1441 43 1184 -37 768 -37 c 256
 406 -37 107 24 107 340 c 256
 107 399 117 466 140 541 c 256
 148 568 178 584 205 576 c 256
 232 568 248 538 240 511 c 256
 220 444 213 387 213 340 c 256
 213 128 394 67 768 67 c 256
 1196 67 1335 151 1335 303 c 256
 1335 489 1128 720 938 914 c 256
 938 914 933 921 931 924 c 256
 916 950 926 985 953 998 c 258
 1687 1358 l 258
 1713 1370 1745 1360 1757 1334 c 256
EndSplineSet
EndChar

StartChar: uniE04D
Encoding: 57421 57421 374
Width: 1384
GlyphClass: 2
Flags: HW
LayerCount: 2
Fore
SplineSet
252 453 m 256
 279 443 293 413 283 386 c 256
 238 268 213 121 213 16 c 256
 213 -227 348 -373 697 -373 c 256
 1051 -373 1171 -212 1171 23 c 256
 1171 149 1137 304 1080 438 c 256
 1068 464 1081 495 1107 507 c 256
 1133 519 1164 506 1176 480 c 256
 1239 334 1277 167 1277 23 c 256
 1277 -268 1095 -477 697 -477 c 256
 310 -477 107 -289 107 16 c 256
 107 137 134 290 185 422 c 256
 195 449 225 463 252 453 c 256
EndSplineSet
EndChar

StartChar: uniE04E
Encoding: 57422 57422 375
Width: 1347
GlyphClass: 2
Flags: HW
LayerCount: 2
Fore
SplineSet
1178 608 m 256
 1162 584 1129 579 1105 595 c 256
 1053 631 998 645 944 645 c 256
 780 645 625 499 625 324 c 256
 625 162 749 135 928 132 c 256
 1142 129 1249 64 1249 -116 c 256
 1249 -342 1001 -477 671 -477 c 256
 310 -477 110 -338 110 -13 c 256
 110 75 122 174 144 288 c 256
 150 316 178 335 206 329 c 256
 234 323 253 296 247 268 c 256
 225 160 216 65 216 -13 c 256
 216 -274 340 -373 671 -373 c 256
 989 -373 1145 -249 1145 -118 c 256
 1145 -9 1098 26 928 28 c 256
 746 31 521 66 521 324 c 256
 521 559 722 751 944 751 c 256
 1018 751 1095 729 1165 681 c 256
 1189 665 1194 632 1178 608 c 256
EndSplineSet
EndChar

StartChar: uniE04F
Encoding: 57423 57423 376
Width: 1959
GlyphClass: 2
Flags: HW
LayerCount: 2
Fore
SplineSet
2011 45 m 256
 2011 16 1988 -7 1959 -7 c 258
 1958 -7 l 257
 1712 -7 1565 95 1532 346 c 257
 1397 84 1111 -37 711 -37 c 256
 345 -37 107 122 107 414 c 256
 107 482 120 557 146 638 c 256
 155 665 185 682 212 673 c 256
 239 664 255 635 246 608 c 256
 223 535 213 470 213 414 c 256
 213 200 369 67 711 67 c 256
 1180 67 1447 233 1515 566 c 256
 1520 590 1541 608 1565 608 c 256
 1595 608 1620 583 1618 553 c 256
 1616 522 1615 493 1615 465 c 256
 1615 186 1712 97 1958 97 c 257
 1959 97 l 258
 1988 97 2011 74 2011 45 c 256
EndSplineSet
EndChar

StartChar: uniE050
Encoding: 57424 57424 377
Width: 852
GlyphClass: 2
Flags: HW
LayerCount: 2
Fore
SplineSet
418 1099 m 256
 693 1099 745 699 745 399 c 256
 745 76 437 -7 0 -7 c 256
 -29 -7 -52 16 -52 45 c 256
 -52 74 -29 97 0 97 c 256
 449 97 639 180 639 399 c 256
 639 729 569 993 415 993 c 256
 277 993 203 825 203 665 c 256
 203 524 284 467 435 467 c 256
 498 467 557 481 607 502 c 256
 633 513 665 500 676 474 c 256
 687 448 673 417 647 406 c 256
 585 381 514 363 435 363 c 256
 241 363 97 455 97 665 c 256
 97 835 181 1099 418 1099 c 256
EndSplineSet
EndChar

StartChar: uniE051
Encoding: 57425 57425 378
Width: 945
GlyphClass: 2
Flags: HW
LayerCount: 2
Fore
SplineSet
483 861 m 256
 686 861 805 690 805 499 c 256
 805 135 347 -7 0 -7 c 256
 -29 -7 -52 16 -52 45 c 256
 -52 74 -29 97 0 97 c 256
 347 97 699 245 699 499 c 256
 699 650 614 755 483 755 c 256
 347 755 245 646 245 504 c 256
 245 245 577 97 944 97 c 257
 945 97 l 258
 974 97 997 74 997 45 c 256
 997 16 974 -7 945 -7 c 258
 944 -7 l 257
 575 -7 141 139 141 504 c 256
 141 698 284 861 483 861 c 256
EndSplineSet
EndChar

StartChar: uniE052
Encoding: 57426 57426 379
Width: 645
GlyphClass: 2
Flags: HW
LayerCount: 2
Fore
SplineSet
901 1752 m 256
 923 1744 938 1720 930 1688 c 256
 887 1587 819 1512 707 1512 c 256
 646 1512 588 1536 526 1572 c 256
 464 1608 411 1627 364 1627 c 256
 289 1627 202 1556 177 1459 c 256
 168 1432 137 1418 110 1427 c 256
 83 1436 70 1466 78 1494 c 256
 111 1627 233 1731 354 1731 c 256
 415 1731 480 1707 550 1668 c 256
 610 1635 659 1616 701 1616 c 256
 758 1616 797 1650 836 1721 c 256
 848 1750 878 1760 901 1752 c 256
393 1218 m 256
 421 1222 448 1201 452 1173 c 256
 484 933 497 796 497 531 c 256
 497 365 491 164 477 -3 c 256
 475 -31 448 -53 420 -51 c 256
 392 -49 370 -23 372 5 c 256
 386 168 393 367 393 531 c 256
 393 792 380 919 348 1159 c 256
 344 1187 365 1214 393 1218 c 256
EndSplineSet
EndChar

StartChar: uniE053
Encoding: 57427 57427 380
Width: 1383
GlyphClass: 2
Flags: HW
LayerCount: 2
Fore
SplineSet
946 993 m 256
 807 993 733 824 733 670 c 256
 733 526 814 467 966 467 c 256
 1029 467 1088 481 1138 502 c 256
 1164 513 1195 500 1206 474 c 256
 1217 448 1204 417 1178 406 c 256
 1116 381 1045 363 966 363 c 256
 772 363 629 455 629 665 c 256
 629 835 712 1099 949 1099 c 256
 1224 1099 1275 699 1275 398 c 256
 1275 264 1218 162 1127 98 c 256
 1013 18 857 -7 698 -7 c 258
 697 -7 l 257
 458 -7 312 13 226 104 c 256
 159 176 147 276 147 398 c 256
 147 658 150 934 160 1213 c 256
 161 1242 185 1264 214 1263 c 256
 243 1262 265 1238 264 1209 c 256
 254 932 253 658 253 398 c 256
 253 290 265 220 307 176 c 256
 361 119 473 97 697 97 c 257
 698 97 l 258
 847 97 983 124 1067 184 c 256
 1132 230 1171 294 1171 398 c 256
 1171 729 1105 993 946 993 c 256
EndSplineSet
EndChar

StartChar: uniE054
Encoding: 57428 57428 381
Width: 1921
GlyphClass: 2
Flags: HW
LayerCount: 2
Fore
SplineSet
1757 1334 m 256
 1769 1308 1759 1276 1733 1264 c 258
 999 904 l 258
 973 892 941 902 929 928 c 256
 917 954 927 986 953 998 c 258
 1687 1358 l 258
 1713 1370 1745 1360 1757 1334 c 256
768 -37 m 256
 406 -37 107 24 107 340 c 256
 107 399 118 466 140 541 c 256
 149 570 179 584 206 576 c 256
 232 568 248 539 240 511 c 256
 220 444 213 387 213 340 c 256
 213 128 394 67 768 67 c 256
 1196 67 1335 151 1335 303 c 256
 1335 429 1266 532 1195 626 c 256
 1120 730 1027 824 938 914 c 256
 916 936 920 971 942 990 c 256
 962 1007 994 1008 1013 988 c 256
 1099 902 1177 818 1251 723 c 256
 1323 632 1380 547 1422 437 c 256
 1542 114 1600 97 1920 97 c 257
 1921 97 l 258
 1950 97 1974 74 1974 45 c 256
 1974 16 1950 -7 1921 -7 c 258
 1920 -7 l 257
 1657 -7 1528 11 1410 224 c 257
 1368 28 1148 -37 768 -37 c 256
EndSplineSet
EndChar

StartChar: uniE055
Encoding: 57429 57429 382
Width: 532
GlyphClass: 2
Flags: HW
LayerCount: 2
Fore
SplineSet
276 716 m 256
 303 725 333 709 342 682 c 256
 381 558 405 447 405 349 c 256
 405 250 384 161 321 95 c 256
 252 24 146 -7 0 -7 c 256
 -29 -7 -52 16 -52 45 c 256
 -52 74 -29 97 0 97 c 256
 134 97 205 126 245 167 c 256
 282 205 299 262 299 349 c 256
 299 429 279 532 242 650 c 256
 233 677 249 707 276 716 c 256
EndSplineSet
EndChar

StartChar: uniE056
Encoding: 57430 57430 383
Width: 811
GlyphClass: 2
Flags: HW
LayerCount: 2
Fore
SplineSet
-53 45 m 256
 -53 74 -29 97 0 97 c 256
 31 97 60 98 86 101 c 256
 319 122 371 221 343 527 c 256
 340 557 364 584 394 584 c 256
 421 584 444 564 447 538 c 256
 482 192 494 97 810 97 c 257
 811 97 l 258
 840 97 864 74 864 45 c 256
 864 16 840 -7 811 -7 c 258
 810 -7 l 257
 574 -7 469 60 411 224 c 257
 361 60 232 -7 0 -7 c 256
 -29 -7 -53 16 -53 45 c 256
EndSplineSet
EndChar

StartChar: uniE057
Encoding: 57431 57431 384
Width: 1382
GlyphClass: 2
Flags: HW
LayerCount: 2
Fore
SplineSet
1435 45 m 256
 1435 16 1411 -7 1382 -7 c 258
 1047 -7 l 257
 1183 -57 1253 -140 1253 -234 c 256
 1253 -427 1030 -563 703 -563 c 256
 291 -563 127 -349 127 -62 c 256
 127 92 170 264 234 437 c 256
 244 464 274 478 301 468 c 256
 328 458 343 428 333 401 c 256
 272 234 233 72 233 -62 c 256
 233 -297 339 -457 703 -457 c 256
 1018 -457 1149 -330 1149 -234 c 256
 1149 -148 1056 -41 769 -7 c 256
 745 -4 725 17 723 41 c 256
 721 71 745 97 775 97 c 258
 1382 97 l 258
 1411 97 1435 74 1435 45 c 256
EndSplineSet
EndChar

StartChar: uniE058
Encoding: 57432 57432 385
Width: 1586
GlyphClass: 2
Flags: HW
LayerCount: 2
Fore
SplineSet
214 1263 m 256
 243 1262 265 1238 264 1209 c 256
 254 932 253 658 253 398 c 256
 253 290 264 220 306 176 c 256
 360 120 468 97 657 97 c 257
 658 97 l 258
 795 97 906 117 973 163 c 256
 1024 197 1051 244 1051 312 c 256
 1051 489 844 720 654 914 c 256
 633 936 635 972 658 991 c 256
 662 995 669 998 669 998 c 257
 1403 1358 l 258
 1429 1370 1461 1360 1473 1334 c 256
 1485 1308 1475 1276 1449 1264 c 258
 779 936 l 257
 951 757 1157 532 1157 312 c 256
 1157 210 1110 128 1032 76 c 256
 940 15 811 -7 658 -7 c 258
 657 -7 l 257
 457 -7 311 14 226 104 c 256
 158 176 147 276 147 398 c 256
 147 658 150 934 160 1213 c 256
 161 1242 185 1264 214 1263 c 256
EndSplineSet
EndChar

StartChar: uniE059
Encoding: 57433 57433 386
Width: 2206
GlyphClass: 2
Flags: HW
LayerCount: 2
Fore
SplineSet
301 468 m 256
 328 458 342 428 332 401 c 256
 271 234 233 72 233 -62 c 256
 233 -297 339 -457 703 -457 c 256
 1018 -457 1149 -330 1149 -234 c 256
 1149 -148 1056 -41 769 -7 c 256
 741 -4 720 23 723 51 c 256
 726 79 753 100 781 97 c 256
 1077 61 1253 -60 1253 -234 c 256
 1253 -427 1030 -563 703 -563 c 256
 291 -563 127 -349 127 -62 c 256
 127 92 171 264 234 437 c 256
 244 464 274 478 301 468 c 256
723 45 m 256
 723 74 746 97 775 97 c 258
 1152 97 l 258
 1554 97 1671 176 1671 312 c 256
 1671 489 1464 720 1274 914 c 256
 1253 936 1255 972 1278 991 c 256
 1282 995 1289 998 1289 998 c 257
 2023 1358 l 258
 2049 1370 2081 1360 2093 1334 c 256
 2105 1308 2095 1276 2069 1264 c 258
 1399 936 l 257
 1571 757 1777 532 1777 312 c 256
 1777 70 1542 -7 1152 -7 c 258
 775 -7 l 258
 746 -7 723 16 723 45 c 256
EndSplineSet
EndChar

StartChar: uniE05A
Encoding: 57434 57434 387
Width: 1645
GlyphClass: 2
Flags: HW
LayerCount: 2
Fore
SplineSet
214 1263 m 256
 243 1262 265 1238 264 1209 c 256
 254 932 253 658 253 398 c 256
 253 290 264 220 306 176 c 256
 360 120 468 97 657 97 c 257
 658 97 l 258
 795 97 906 117 973 163 c 256
 1024 197 1051 244 1051 312 c 256
 1051 489 844 720 654 914 c 256
 633 936 635 972 658 991 c 256
 662 995 669 998 669 998 c 257
 1403 1358 l 258
 1429 1370 1461 1360 1473 1334 c 256
 1485 1308 1475 1276 1449 1264 c 258
 779 936 l 257
 951 757 1157 532 1157 312 c 256
 1157 210 1110 128 1032 76 c 256
 940 15 811 -7 658 -7 c 258
 657 -7 l 257
 457 -7 311 14 226 104 c 256
 158 176 147 276 147 398 c 256
 147 658 150 934 160 1213 c 256
 161 1242 185 1264 214 1263 c 256
656 988 m 256
 676 1008 709 1008 729 988 c 256
 898 816 1060 643 1135 447 c 256
 1261 116 1329 97 1644 97 c 257
 1645 97 l 258
 1674 97 1698 74 1698 45 c 256
 1698 16 1674 -7 1645 -7 c 258
 1644 -7 l 257
 1304 -7 1175 41 1037 409 c 256
 975 575 824 742 655 914 c 256
 635 934 636 968 656 988 c 256
EndSplineSet
EndChar

StartChar: uniE05B
Encoding: 57435 57435 388
Width: 2265
GlyphClass: 2
Flags: HW
LayerCount: 2
Fore
SplineSet
1276 988 m 256
 1296 1008 1329 1008 1349 988 c 256
 1518 816 1681 641 1755 445 c 256
 1882 106 1942 97 2264 97 c 257
 2265 97 l 258
 2294 97 2318 74 2318 45 c 256
 2318 16 2294 -7 2265 -7 c 258
 2264 -7 l 257
 1924 -7 1795 41 1657 409 c 256
 1595 575 1444 742 1275 914 c 256
 1255 934 1256 968 1276 988 c 256
301 468 m 256
 328 458 342 428 332 401 c 256
 271 234 233 72 233 -62 c 256
 233 -297 339 -457 703 -457 c 256
 1018 -457 1149 -330 1149 -234 c 256
 1149 -148 1056 -41 769 -7 c 256
 741 -4 720 23 723 51 c 256
 726 79 753 100 781 97 c 256
 1077 61 1253 -60 1253 -234 c 256
 1253 -427 1030 -563 703 -563 c 256
 291 -563 127 -349 127 -62 c 256
 127 92 171 264 234 437 c 256
 244 464 274 478 301 468 c 256
723 45 m 256
 723 74 746 97 775 97 c 258
 1102 97 l 258
 1508 97 1671 181 1671 312 c 256
 1671 489 1464 720 1274 914 c 256
 1253 936 1255 972 1278 991 c 256
 1282 995 1289 998 1289 998 c 257
 2023 1358 l 258
 2049 1370 2081 1360 2093 1334 c 256
 2105 1308 2095 1276 2069 1264 c 258
 1399 936 l 257
 1571 757 1777 532 1777 312 c 256
 1777 65 1488 -7 1102 -7 c 258
 775 -7 l 258
 746 -7 723 16 723 45 c 256
EndSplineSet
EndChar

StartChar: uniE05C
Encoding: 57436 57436 389
Width: 2443
GlyphClass: 2
Flags: HW
LayerCount: 2
Fore
SplineSet
690 -619 m 256
 347 -619 127 -473 127 -126 c 256
 127 6 155 148 195 291 c 256
 203 319 232 336 260 328 c 256
 288 320 305 291 297 263 c 256
 259 126 233 -10 233 -126 c 256
 233 -408 379 -513 690 -513 c 256
 915 -513 1119 -437 1119 -300 c 256
 1119 -194 1028 -172 909 -150 c 256
 777 -127 591 -80 591 110 c 256
 591 391 904 538 1195 586 c 256
 1222 590 1249 572 1255 548 c 256
 1333 251 1402 77 1542 77 c 256
 1689 77 1730 267 1761 495 c 256
 1765 523 1792 544 1820 540 c 256
 1848 536 1867 510 1864 481 c 256
 1836 269 1784 -27 1542 -27 c 256
 1320 -27 1236 216 1166 473 c 257
 901 420 695 290 695 112 c 256
 695 5 806 -24 929 -48 c 256
 1081 -76 1225 -116 1225 -300 c 256
 1225 -552 904 -619 690 -619 c 256
1822 540 m 256
 1850 536 1867 509 1864 480 c 256
 1859 442 1856 396 1856 354 c 256
 1856 192 1917 79 2045 79 c 256
 2183 79 2231 155 2231 286 c 256
 2231 394 2204 495 2172 604 c 256
 2164 631 2180 662 2207 670 c 256
 2234 678 2264 661 2272 634 c 256
 2304 525 2335 412 2335 286 c 256
 2335 108 2247 -25 2046 -25 c 256
 1830 -25 1751 177 1751 368 c 256
 1751 410 1755 453 1761 496 c 256
 1765 524 1794 544 1822 540 c 256
EndSplineSet
EndChar

StartChar: uniE05D
Encoding: 57437 57437 390
Width: 2538
GlyphClass: 2
Flags: HW
LayerCount: 2
Fore
SplineSet
690 -619 m 256
 347 -619 127 -473 127 -126 c 256
 127 6 155 148 195 291 c 256
 203 319 232 336 260 328 c 256
 288 320 305 291 297 263 c 256
 259 126 233 -10 233 -126 c 256
 233 -408 379 -514 690 -514 c 256
 915 -514 1119 -436 1119 -300 c 256
 1119 -194 1028 -172 909 -150 c 256
 777 -127 591 -80 591 110 c 256
 591 391 904 538 1195 586 c 256
 1222 590 1249 572 1255 548 c 256
 1325 280 1522 77 1832 77 c 256
 2114 77 2325 197 2325 414 c 256
 2325 547 2233 637 2098 637 c 256
 1845 637 1592 232 1500 -16 c 256
 1490 -43 1459 -57 1432 -47 c 256
 1405 -37 1391 -7 1401 20 c 256
 1493 268 1751 743 2098 743 c 256
 2287 743 2431 605 2431 414 c 256
 2431 107 2132 -27 1832 -27 c 256
 1488 -27 1260 193 1169 474 c 257
 904 421 695 290 695 112 c 256
 695 5 806 -24 929 -48 c 256
 1081 -76 1225 -116 1225 -300 c 256
 1225 -552 904 -619 690 -619 c 256
EndSplineSet
EndChar

StartChar: uniE05E
Encoding: 57438 57438 391
Width: 2690
GlyphClass: 2
Flags: HW
LayerCount: 2
Fore
SplineSet
2325 414 m 256
 2325 547 2233 637 2098 637 c 256
 1843 637 1592 231 1544 101 c 256
 1534 74 1504 60 1477 70 c 256
 1450 80 1436 111 1446 138 c 256
 1497 274 1753 743 2098 743 c 256
 2287 743 2431 605 2431 414 c 256
 2431 107 2132 -27 1832 -27 c 256
 1488 -27 1260 193 1169 474 c 257
 902 420 695 290 695 112 c 256
 695 5 806 -24 929 -48 c 256
 1081 -76 1225 -116 1225 -300 c 256
 1225 -552 904 -619 690 -619 c 256
 347 -619 127 -473 127 -126 c 256
 127 6 155 148 195 291 c 256
 203 319 232 336 260 328 c 256
 288 320 305 291 297 263 c 256
 259 126 233 -10 233 -126 c 256
 233 -408 379 -514 690 -514 c 256
 915 -514 1119 -436 1119 -300 c 256
 1119 -194 1028 -172 909 -150 c 256
 777 -127 591 -80 591 110 c 256
 591 391 904 538 1195 586 c 256
 1222 590 1249 572 1255 548 c 256
 1325 280 1522 77 1832 77 c 256
 2114 77 2325 197 2325 414 c 256
2322 305 m 256
 2349 315 2380 301 2390 274 c 256
 2436 150 2500 97 2689 97 c 257
 2690 97 l 258
 2719 97 2743 74 2743 45 c 256
 2743 16 2719 -7 2690 -7 c 258
 2689 -7 l 257
 2470 -7 2352 76 2292 238 c 256
 2282 265 2295 295 2322 305 c 256
EndSplineSet
EndChar

StartChar: uniE05F
Encoding: 57439 57439 392
Width: 531
GlyphClass: 2
Flags: HW
LayerCount: 2
Fore
SplineSet
215 1263 m 256
 244 1262 266 1238 265 1209 c 256
 257 998 253 789 253 587 c 256
 253 163 283 97 530 97 c 257
 531 97 l 258
 560 97 583 74 583 45 c 256
 583 16 560 -7 531 -7 c 258
 530 -7 l 257
 205 -7 147 142 147 587 c 256
 147 791 153 1002 161 1213 c 256
 162 1242 186 1264 215 1263 c 256
EndSplineSet
EndChar

StartChar: uniE060
Encoding: 57440 57440 393
Width: 1332
GlyphClass: 2
Flags: HW
LayerCount: 2
Fore
SplineSet
693 -646 m 256
 419 -646 107 -516 107 -201 c 256
 107 254 707 459 935 520 c 257
 775 598 520 712 432 712 c 256
 349 712 282 668 234 533 c 256
 224 506 193 491 166 500 c 256
 139 509 125 541 134 568 c 256
 197 747 303 818 433 818 c 256
 583 818 954 633 1100 559 c 256
 1125 546 1145 531 1145 506 c 256
 1145 480 1124 458 1096 453 c 256
 966 435 213 241 213 -201 c 256
 213 -424 437 -540 693 -540 c 256
 821 -540 951 -509 1064 -449 c 256
 1090 -435 1121 -446 1135 -472 c 256
 1149 -498 1138 -529 1112 -543 c 256
 983 -611 839 -646 693 -646 c 256
1385 45 m 256
 1385 16 1361 -7 1332 -7 c 258
 1331 -7 l 257
 1055 -7 840 155 840 458 c 256
 840 487 863 510 892 510 c 256
 921 510 945 487 945 458 c 256
 945 217 1098 97 1331 97 c 257
 1332 97 l 258
 1361 97 1385 74 1385 45 c 256
EndSplineSet
EndChar

StartChar: uniE061
Encoding: 57441 57441 394
Width: 1332
GlyphClass: 2
Flags: HW
LayerCount: 2
Fore
SplineSet
137 481 m 256
 109 488 92 517 99 545 c 256
 145 723 281 819 415 819 c 256
 545 819 692 730 841 646 c 256
 952 583 1062 523 1158 491 c 256
 1187 482 1202 448 1190 420 c 256
 1183 403 1167 393 1151 390 c 256
 1037 370 926 308 800 236 c 256
 600 122 344 -7 0 -7 c 256
 -29 -7 -52 16 -52 45 c 256
 -52 74 -29 97 0 97 c 256
 317 97 552 214 748 326 c 256
 833 375 913 421 1000 447 c 257
 932 475 860 516 789 556 c 256
 638 642 497 715 415 715 c 256
 333 715 237 657 201 519 c 256
 194 491 165 474 137 481 c 256
EndSplineSet
EndChar

StartChar: uniE062
Encoding: 57442 57442 395
Width: 1351
GlyphClass: 2
Flags: HW
LayerCount: 2
Fore
SplineSet
953 429 m 256
 982 429 1005 406 1005 377 c 256
 1005 205 1138 97 1350 97 c 257
 1351 97 l 258
 1380 97 1404 74 1404 45 c 256
 1404 16 1380 -7 1351 -7 c 258
 1350 -7 l 257
 1101 -7 901 133 901 377 c 256
 901 406 924 429 953 429 c 256
137 481 m 256
 109 488 92 517 99 545 c 256
 145 723 281 819 415 819 c 256
 545 819 692 730 841 646 c 256
 952 583 1062 523 1158 491 c 256
 1187 482 1202 448 1190 420 c 256
 1183 403 1167 393 1151 390 c 256
 1037 370 926 308 800 236 c 256
 600 122 344 -7 0 -7 c 256
 -29 -7 -52 16 -52 45 c 256
 -52 74 -29 97 0 97 c 256
 317 97 552 214 748 326 c 256
 833 375 913 421 1000 447 c 257
 932 475 860 516 789 556 c 256
 638 642 497 715 415 715 c 256
 333 715 237 657 201 519 c 256
 194 491 165 474 137 481 c 256
EndSplineSet
EndChar

StartChar: uniE063
Encoding: 57443 57443 396
Width: 1120
GlyphClass: 2
Flags: HW
LayerCount: 2
Fore
SplineSet
1173 45 m 256
 1173 16 1149 -7 1120 -7 c 258
 1119 -7 l 257
 841 -6 755 222 691 403 c 256
 643 545 606 622 538 758 c 256
 526 784 536 816 562 828 c 256
 588 840 620 830 632 804 c 256
 700 668 741 584 791 437 c 256
 857 249 919 97 1119 97 c 257
 1120 97 l 258
 1149 97 1173 74 1173 45 c 256
729 449 m 256
 756 459 786 445 796 418 c 256
 810 379 821 339 821 297 c 256
 821 50 602 -37 389 -37 c 256
 305 -37 229 -26 148 4 c 256
 121 13 108 44 118 71 c 256
 128 98 157 110 185 101 c 256
 253 77 317 67 389 67 c 256
 586 67 715 136 715 297 c 256
 715 327 708 355 698 382 c 256
 688 409 702 439 729 449 c 256
EndSplineSet
EndChar

StartChar: uniE064
Encoding: 57444 57444 397
Width: 917
GlyphClass: 2
Flags: HW
LayerCount: 2
Fore
SplineSet
969 45 m 256
 969 16 946 -7 917 -7 c 258
 916 -7 l 257
 779 -7 682 28 614 98 c 256
 528 188 498 318 461 472 c 256
 455 500 472 529 500 535 c 256
 528 541 557 524 563 496 c 256
 600 340 632 230 690 170 c 256
 734 125 796 97 916 97 c 257
 917 97 l 258
 946 97 969 74 969 45 c 256
499 535 m 256
 527 542 556 525 563 497 c 256
 605 336 629 195 629 71 c 256
 629 -193 469 -394 179 -506 c 256
 152 -516 121 -503 111 -476 c 256
 101 -449 114 -418 141 -408 c 256
 404 -306 525 -145 525 71 c 256
 525 183 503 316 461 471 c 256
 454 499 471 528 499 535 c 256
EndSplineSet
EndChar

StartChar: uniE065
Encoding: 57445 57445 398
Width: 2402
GlyphClass: 2
Flags: HW
LayerCount: 2
Fore
SplineSet
276 408 m 256
 302 397 315 365 304 339 c 256
 249 205 213 64 213 -58 c 256
 213 -261 333 -421 644 -421 c 256
 940 -421 1067 -253 1067 -23 c 256
 1067 95 1039 230 989 364 c 256
 979 391 993 421 1020 431 c 256
 1047 441 1077 427 1087 400 c 256
 1140 256 1173 111 1173 -23 c 256
 1173 -303 994 -525 644 -525 c 256
 285 -525 107 -319 107 -58 c 256
 107 84 149 237 208 379 c 256
 219 405 250 419 276 408 c 256
1020 431 m 256
 1047 441 1077 427 1087 400 c 256
 1175 166 1262 73 1379 73 c 256
 1501 73 1577 139 1610 426 c 256
 1613 454 1640 475 1668 472 c 256
 1696 469 1717 442 1714 414 c 256
 1678 99 1566 -33 1382 -33 c 256
 1199 -33 1080 121 989 364 c 256
 979 391 993 421 1020 431 c 256
1669 472 m 256
 1697 468 1718 441 1714 413 c 256
 1706 356 1703 316 1703 265 c 256
 1703 135 1768 69 1865 69 c 256
 1969 69 2021 163 2021 309 c 256
 2021 371 2014 439 2002 504 c 256
 1996 532 2016 558 2044 564 c 256
 2072 570 2098 550 2104 522 c 256
 2117 451 2127 379 2127 309 c 256
 2127 141 2053 -37 1866 -37 c 256
 1705 -37 1597 87 1597 265 c 256
 1597 322 1602 368 1610 427 c 256
 1614 455 1641 476 1669 472 c 256
2044 564 m 256
 2072 569 2099 550 2104 522 c 256
 2157 212 2190 97 2401 97 c 257
 2402 97 l 258
 2431 97 2455 74 2455 45 c 256
 2455 16 2431 -7 2402 -7 c 258
 2401 -7 l 257
 2107 -7 2053 205 2002 504 c 256
 1997 532 2016 559 2044 564 c 256
EndSplineSet
EndChar

StartChar: uniE066
Encoding: 57446 57446 399
Width: 1545
GlyphClass: 2
Flags: HW
LayerCount: 2
Fore
SplineSet
1302 668 m 256
 1329 678 1360 665 1370 638 c 256
 1403 552 1437 419 1437 295 c 256
 1437 153 1369 -25 1171 -25 c 256
 955 -25 855 182 855 387 c 256
 855 423 858 460 863 496 c 256
 867 524 895 544 923 540 c 256
 951 536 971 508 967 480 c 256
 962 448 959 417 959 387 c 256
 959 200 1039 79 1167 79 c 256
 1284 79 1333 175 1333 295 c 256
 1333 401 1301 524 1272 600 c 256
 1262 627 1275 658 1302 668 c 256
920 540 m 256
 948 537 970 511 967 483 c 256
 947 280 869 -27 583 -27 c 256
 411 -27 321 121 321 275 c 256
 321 360 326 402 339 490 c 256
 343 518 371 538 399 534 c 256
 427 530 447 502 443 474 c 256
 430 386 426 351 426 275 c 256
 426 159 488 77 591 77 c 256
 772 77 841 270 863 493 c 256
 866 521 892 543 920 540 c 256
396 534 m 256
 424 532 445 505 443 477 c 256
 420 214 307 -7 0 -7 c 256
 -29 -7 -52 16 -52 45 c 256
 -52 74 -29 97 0 97 c 256
 235 97 318 244 339 487 c 256
 341 515 368 536 396 534 c 256
EndSplineSet
EndChar

StartChar: uniE067
Encoding: 57447 57447 400
Width: 1767
GlyphClass: 2
Flags: HW
LayerCount: 2
Fore
SplineSet
1819 45 m 256
 1819 16 1796 -7 1767 -7 c 258
 1766 -7 l 257
 1501 -7 1427 145 1382 563 c 256
 1379 591 1400 618 1428 621 c 256
 1456 624 1484 603 1487 575 c 256
 1530 167 1574 97 1766 97 c 257
 1767 97 l 258
 1796 97 1819 74 1819 45 c 256
1431 621 m 256
 1460 623 1484 601 1486 572 c 256
 1489 522 1491 472 1491 419 c 256
 1491 224 1429 -23 1189 -23 c 256
 951 -23 887 207 887 399 c 256
 887 431 889 463 891 494 c 256
 893 523 917 544 946 542 c 256
 975 540 998 515 996 486 c 256
 994 457 993 429 993 399 c 256
 993 211 1045 83 1189 83 c 256
 1334 83 1387 224 1387 419 c 256
 1387 469 1385 517 1382 566 c 256
 1380 595 1402 619 1431 621 c 256
950 542 m 256
 978 538 999 511 995 483 c 256
 965 269 898 -27 612 -27 c 256
 400 -27 347 152 347 344 c 256
 347 386 350 455 353 497 c 256
 355 526 380 547 409 545 c 256
 438 543 460 518 458 489 c 256
 455 451 451 380 451 344 c 256
 451 173 484 79 617 79 c 256
 800 79 859 271 891 497 c 256
 895 525 922 546 950 542 c 256
410 545 m 256
 438 542 460 516 457 488 c 256
 429 172 317 -7 0 -7 c 256
 -29 -7 -52 16 -52 45 c 256
 -52 74 -29 97 0 97 c 256
 255 97 327 204 353 498 c 256
 356 526 382 548 410 545 c 256
EndSplineSet
EndChar

StartChar: uniE068
Encoding: 57448 57448 401
Width: 2424
GlyphClass: 2
Flags: HW
LayerCount: 2
Fore
SplineSet
2198 408 m 256
 2198 118 1886 -7 1650 -7 c 256
 1270 -7 1097 119 1003 346 c 256
 992 372 1005 403 1031 414 c 256
 1057 425 1089 412 1100 386 c 256
 1178 199 1312 97 1650 97 c 256
 1868 97 2093 218 2093 404 c 256
 2093 515 2001 587 1872 587 c 256
 1664 587 1502 425 1376 159 c 256
 1364 133 1332 122 1306 134 c 256
 1280 146 1268 177 1280 203 c 256
 1410 479 1595 693 1873 693 c 256
 2039 693 2198 589 2198 408 c 256
1035 416 m 256
 1062 425 1092 409 1101 382 c 256
 1147 240 1171 109 1171 -7 c 256
 1171 -326 975 -525 589 -525 c 256
 354 -525 107 -403 107 -117 c 256
 107 59 190 251 290 409 c 256
 305 433 339 441 363 426 c 256
 387 411 393 377 378 353 c 256
 284 207 213 27 213 -117 c 256
 213 -325 382 -421 589 -421 c 256
 931 -421 1067 -270 1067 -7 c 256
 1067 95 1045 216 1001 350 c 256
 992 377 1008 407 1035 416 c 256
2058 272 m 256
 2083 286 2116 275 2130 250 c 256
 2182 154 2254 97 2423 97 c 257
 2424 97 l 258
 2453 97 2477 74 2477 45 c 256
 2477 16 2453 -7 2424 -7 c 258
 2423 -7 l 257
 2224 -7 2106 72 2037 200 c 256
 2023 225 2033 258 2058 272 c 256
EndSplineSet
EndChar

StartChar: uniE069
Encoding: 57449 57449 402
Width: 1546
GlyphClass: 2
Flags: HW
LayerCount: 2
Fore
SplineSet
1334 434 m 256
 1334 567 1241 657 1106 657 c 256
 854 657 604 272 476 -63 c 256
 467 -86 441 -98 418 -90 c 256
 395 -82 384 -55 392 -32 c 256
 502 263 758 763 1106 763 c 256
 1295 763 1439 625 1439 434 c 256
 1439 121 1077 -7 809 -7 c 256
 423 -7 301 119 301 485 c 256
 301 514 324 537 353 537 c 256
 382 537 406 514 406 485 c 256
 406 166 469 97 809 97 c 256
 1067 97 1334 223 1334 434 c 256
353 537 m 256
 382 537 405 514 405 485 c 256
 405 123 290 -7 0 -7 c 256
 -29 -7 -52 16 -52 45 c 256
 -52 74 -29 97 0 97 c 256
 234 97 301 159 301 485 c 256
 301 514 324 537 353 537 c 256
EndSplineSet
EndChar

StartChar: uniE06A
Encoding: 57450 57450 403
Width: 1671
GlyphClass: 2
Flags: HW
LayerCount: 2
Fore
SplineSet
1432 434 m 256
 1432 119 1046 -7 780 -7 c 256
 414 -7 300 155 300 485 c 256
 300 514 323 537 352 537 c 256
 381 537 405 514 405 485 c 256
 405 191 465 97 780 97 c 256
 1040 97 1327 225 1327 434 c 256
 1327 565 1223 657 1103 657 c 256
 914 657 712 430 548 98 c 256
 536 72 504 62 478 74 c 256
 452 86 442 118 454 144 c 256
 618 476 836 763 1103 763 c 256
 1272 763 1432 627 1432 434 c 256
356 537 m 256
 385 535 406 510 404 481 c 256
 380 168 295 -7 0 -7 c 256
 -29 -7 -52 16 -52 45 c 256
 -52 74 -29 97 0 97 c 256
 225 97 276 188 300 489 c 256
 302 518 327 539 356 537 c 256
1303 306 m 256
 1330 316 1360 302 1370 275 c 256
 1416 151 1481 97 1670 97 c 257
 1671 97 l 258
 1700 97 1724 74 1724 45 c 256
 1724 16 1700 -7 1671 -7 c 258
 1670 -7 l 257
 1451 -7 1332 77 1272 239 c 256
 1262 266 1276 296 1303 306 c 256
EndSplineSet
EndChar

StartChar: uniE06B
Encoding: 57451 57451 404
Width: 1656
GlyphClass: 2
Flags: HW
LayerCount: 2
Fore
SplineSet
1301 449 m 256
 1301 570 1212 661 1090 661 c 256
 836 661 605 325 497 40 c 256
 487 13 457 -1 430 9 c 256
 403 19 389 49 399 76 c 256
 507 363 750 765 1090 765 c 256
 1270 765 1407 626 1407 449 c 256
 1407 -27 617 -7 160 -7 c 256
 131 -7 107 16 107 45 c 256
 107 74 131 97 160 97 c 256
 675 97 1301 117 1301 449 c 256
429 9 m 256
 402 19 389 50 399 77 c 256
 464 242 489 467 489 716 c 256
 489 872 480 1039 464 1206 c 256
 461 1234 483 1260 511 1263 c 256
 539 1266 566 1244 569 1216 c 256
 585 1047 595 878 595 716 c 256
 595 461 570 224 497 39 c 256
 487 12 456 -1 429 9 c 256
1269 314 m 256
 1295 326 1326 313 1338 287 c 256
 1393 157 1506 97 1655 97 c 257
 1656 97 l 258
 1685 97 1709 74 1709 45 c 256
 1709 16 1685 -7 1656 -7 c 258
 1655 -7 l 257
 1477 -7 1316 69 1242 245 c 256
 1230 271 1243 302 1269 314 c 256
EndSplineSet
EndChar

StartChar: uniE06C
Encoding: 57452 57452 405
Width: 1250
GlyphClass: 2
Flags: HW
LayerCount: 2
Fore
SplineSet
242 1263 m 256
 270 1266 297 1245 300 1217 c 256
 315 1084 323 946 323 747 c 256
 323 463 264 138 140 -82 c 256
 128 -103 101 -111 80 -99 c 256
 59 -87 50 -59 62 -38 c 256
 174 160 219 475 219 747 c 256
 219 944 211 1076 196 1205 c 256
 193 1233 214 1260 242 1263 c 256
1037 466 m 256
 1037 582 943 667 816 667 c 256
 514 667 263 204 142 -78 c 256
 132 -100 105 -111 83 -101 c 256
 61 -91 51 -65 60 -42 c 256
 160 196 418 771 816 771 c 256
 991 771 1143 648 1143 466 c 256
 1143 16 405 -6 5 -6 c 256
 -20 -6 -52 16 -52 45 c 256
 -52 74 -29 97 0 97 c 256
 465 97 1037 156 1037 466 c 256
EndSplineSet
EndChar

StartChar: uniE06D
Encoding: 57453 57453 406
Width: 1338
GlyphClass: 2
Flags: HW
LayerCount: 2
Fore
SplineSet
321 1263 m 256
 349 1266 375 1244 378 1216 c 256
 394 1047 405 878 405 716 c 256
 405 461 380 224 307 39 c 256
 297 12 266 -1 239 9 c 256
 212 19 200 50 210 77 c 256
 275 242 299 467 299 716 c 256
 299 872 290 1039 274 1206 c 256
 271 1234 293 1260 321 1263 c 256
1210 444 m 256
 1210 10 547 -7 0 -7 c 256
 -29 -7 -52 16 -52 45 c 256
 -52 74 -29 97 0 97 c 256
 598 97 1105 139 1105 446 c 256
 1105 547 1039 659 877 659 c 256
 625 659 403 286 307 39 c 256
 297 12 266 -1 239 9 c 256
 212 19 199 50 209 77 c 256
 304 318 533 763 872 763 c 256
 1103 763 1210 593 1210 444 c 256
1017 254 m 256
 1043 266 1074 254 1086 228 c 256
 1133 128 1196 97 1337 97 c 257
 1338 97 l 258
 1367 97 1391 74 1391 45 c 256
 1391 16 1367 -7 1338 -7 c 258
 1337 -7 l 257
 1177 -7 1059 42 992 184 c 256
 980 210 991 242 1017 254 c 256
EndSplineSet
EndChar

StartChar: uniE06E
Encoding: 57454 57454 407
Width: 1092
GlyphClass: 2
Flags: HW
LayerCount: 2
Fore
SplineSet
1145 45 m 256
 1145 16 1121 -7 1092 -7 c 258
 1091 -7 l 257
 712 -6 333 332 147 604 c 256
 131 628 136 661 160 677 c 256
 184 693 218 688 234 664 c 256
 410 406 772 98 1091 97 c 257
 1092 97 l 258
 1121 97 1145 74 1145 45 c 256
153 597 m 256
 133 617 133 651 153 671 c 256
 238 756 414 829 575 829 c 256
 722 829 903 758 903 586 c 256
 903 432 783 345 616 252 c 256
 422 144 213 -32 213 -285 c 256
 213 -498 406 -593 674 -593 c 256
 746 -593 822 -586 896 -572 c 256
 924 -567 951 -586 956 -614 c 256
 961 -642 942 -669 914 -674 c 256
 834 -688 754 -697 674 -697 c 256
 394 -697 107 -590 107 -285 c 256
 107 32 364 232 565 344 c 256
 736 440 799 496 799 584 c 256
 799 673 693 723 575 723 c 256
 444 723 294 660 227 597 c 256
 205 579 173 577 153 597 c 256
EndSplineSet
EndChar

StartChar: uniE06F
Encoding: 57455 57455 408
Width: 1020
GlyphClass: 2
Flags: HW
LayerCount: 2
Fore
SplineSet
772 678 m 256
 753 657 719 656 698 675 c 256
 653 717 589 739 525 739 c 256
 373 739 229 601 229 437 c 256
 229 290 344 201 510 201 c 256
 570 201 631 208 691 218 c 256
 745 226 801 233 858 235 c 256
 887 236 912 214 913 185 c 256
 914 156 891 132 862 131 c 256
 811 129 760 122 707 114 c 256
 645 104 578 97 510 97 c 256
 308 97 125 218 125 437 c 256
 125 661 313 845 525 845 c 256
 613 845 701 813 768 753 c 256
 789 734 791 699 772 678 c 256
913 183 m 256
 913 154 889 131 860 131 c 256
 746 131 666 106 566 76 c 256
 436 37 278 -7 0 -7 c 256
 -29 -7 -52 16 -52 45 c 256
 -52 74 -29 97 0 97 c 256
 266 97 406 139 536 178 c 256
 636 208 730 235 860 235 c 256
 889 235 913 212 913 183 c 256
EndSplineSet
EndChar

StartChar: uniE070
Encoding: 57456 57456 409
Width: 1040
GlyphClass: 2
Flags: HW
LayerCount: 2
Fore
SplineSet
521 772 m 256
 681 772 895 680 895 483 c 256
 895 150 298 -7 0 -7 c 256
 -29 -7 -52 16 -52 45 c 256
 -52 74 -29 97 0 97 c 256
 308 97 789 278 789 486 c 256
 789 597 659 666 528 666 c 256
 430 666 292 613 210 549 c 257
 362 356 664 97 1039 97 c 257
 1040 97 l 258
 1069 97 1093 74 1093 45 c 256
 1093 16 1069 -7 1040 -7 c 258
 1039 -7 l 257
 586 -7 244 316 92 529 c 256
 77 550 80 579 98 597 c 256
 198 692 379 772 521 772 c 256
EndSplineSet
EndChar

StartChar: uniE071
Encoding: 57457 57457 410
Width: 1829
GlyphClass: 2
Flags: HW
LayerCount: 2
Fore
SplineSet
1399 835 m 256
 1607 835 1717 681 1717 484 c 256
 1717 58 1251 -37 840 -37 c 256
 484 -37 107 -9 107 336 c 256
 107 410 125 496 162 595 c 256
 172 622 202 636 229 626 c 256
 256 616 271 586 261 559 c 256
 227 468 213 394 213 336 c 256
 213 109 454 67 840 67 c 256
 1263 67 1611 166 1611 484 c 256
 1611 640 1536 729 1401 729 c 256
 1282 729 1187 636 1187 472 c 256
 1187 210 1459 97 1828 97 c 257
 1829 97 l 258
 1858 97 1881 74 1881 45 c 256
 1881 16 1858 -7 1829 -7 c 258
 1828 -7 l 257
 1458 -7 1083 109 1083 472 c 256
 1083 678 1214 835 1399 835 c 256
EndSplineSet
EndChar

StartChar: uniE072
Encoding: 57458 57458 411
Width: 1461
GlyphClass: 2
Flags: HW
LayerCount: 2
Fore
SplineSet
975 617 m 256
 848 617 761 468 761 316 c 256
 761 145 841 97 1013 97 c 258
 1461 97 l 258
 1490 97 1513 74 1513 45 c 256
 1513 16 1490 -7 1461 -7 c 258
 1018 -8 l 258
 799 -8 655 80 655 316 c 256
 655 494 766 723 977 723 c 256
 1268 723 1313 363 1313 121 c 256
 1313 -285 1071 -515 704 -515 c 256
 306 -515 107 -309 107 -17 c 256
 107 116 146 263 213 415 c 256
 225 441 256 454 282 442 c 256
 308 430 321 399 309 373 c 256
 246 231 213 96 213 -17 c 256
 213 -249 348 -409 704 -409 c 256
 1017 -409 1209 -235 1209 121 c 256
 1209 383 1149 617 975 617 c 256
EndSplineSet
EndChar

StartChar: uniE073
Encoding: 57459 57459 412
Width: 1772
GlyphClass: 2
Flags: HW
LayerCount: 2
Fore
SplineSet
1825 45 m 256
 1825 16 1801 -7 1772 -7 c 258
 1771 -7 l 257
 1533 -7 1338 134 1338 431 c 256
 1338 460 1361 483 1390 483 c 256
 1419 483 1443 460 1443 431 c 256
 1443 193 1580 97 1771 97 c 257
 1772 97 l 258
 1801 97 1825 74 1825 45 c 256
1340 1263 m 256
 1368 1267 1394 1246 1398 1218 c 256
 1426 999 1443 671 1443 431 c 256
 1443 85 1086 -37 786 -37 c 256
 491 -37 107 1 107 363 c 256
 107 440 129 522 163 596 c 256
 175 622 206 634 232 622 c 256
 258 610 271 578 259 552 c 256
 231 488 213 420 213 363 c 256
 213 115 471 69 786 69 c 256
 1078 69 1337 181 1337 431 c 256
 1337 665 1322 993 1294 1204 c 256
 1290 1232 1312 1259 1340 1263 c 256
EndSplineSet
EndChar

StartChar: uniE074
Encoding: 57460 57460 413
Width: 1054
GlyphClass: 2
Flags: HW
LayerCount: 2
Fore
SplineSet
-53 45 m 256
 -53 74 -29 97 0 97 c 256
 402 97 519 176 519 312 c 256
 519 489 312 720 122 914 c 256
 101 936 103 972 126 991 c 256
 130 995 137 998 137 998 c 257
 871 1358 l 258
 897 1370 929 1360 941 1334 c 256
 953 1308 943 1276 917 1264 c 258
 247 936 l 257
 419 757 625 532 625 312 c 256
 625 70 390 -7 0 -7 c 256
 -29 -7 -53 16 -53 45 c 256
EndSplineSet
EndChar

StartChar: uniE075
Encoding: 57461 57461 414
Width: 1113
GlyphClass: 2
Flags: HW
LayerCount: 2
Fore
SplineSet
113 928 m 256
 101 954 111 986 137 998 c 258
 871 1358 l 258
 897 1370 929 1360 941 1334 c 256
 953 1308 943 1276 917 1264 c 258
 183 904 l 258
 157 892 125 902 113 928 c 256
-53 45 m 256
 -53 74 -29 97 0 97 c 256
 395 97 519 166 519 312 c 256
 519 488 310 723 122 914 c 256
 101 936 103 972 126 991 c 256
 147 1009 179 1007 197 988 c 256
 366 816 533 637 603 445 c 256
 722 115 789 97 1112 97 c 257
 1113 97 l 258
 1142 97 1166 74 1166 45 c 256
 1166 16 1142 -7 1113 -7 c 258
 1112 -7 l 257
 848 -7 711 9 592 226 c 257
 548 52 351 -7 0 -7 c 256
 -29 -7 -53 16 -53 45 c 256
EndSplineSet
EndChar

StartChar: uniE076
Encoding: 57462 57462 415
Width: 1450
GlyphClass: 2
Flags: HW
LayerCount: 2
Fore
SplineSet
1089 424 m 256
 1118 426 1142 404 1144 375 c 256
 1159 130 1236 97 1449 97 c 257
 1450 97 l 258
 1479 97 1503 74 1503 45 c 256
 1503 16 1479 -7 1450 -7 c 258
 1449 -7 l 257
 1206 -7 1059 71 1040 369 c 256
 1038 398 1060 422 1089 424 c 256
1044 1263 m 256
 1073 1265 1097 1243 1099 1214 c 256
 1127 824 1149 496 1149 148 c 256
 1149 -201 1021 -477 609 -477 c 256
 295 -477 107 -286 107 -15 c 256
 107 125 155 276 208 382 c 256
 220 408 253 417 279 405 c 256
 305 393 314 360 302 334 c 256
 255 240 213 101 213 -15 c 256
 213 -228 343 -371 609 -371 c 256
 949 -371 1043 -177 1043 148 c 256
 1043 492 1023 818 995 1208 c 256
 993 1237 1015 1261 1044 1263 c 256
EndSplineSet
EndChar

StartChar: uniE077
Encoding: 57463 57463 416
Width: 494
GlyphClass: 2
Flags: HW
LayerCount: 2
Fore
SplineSet
238 1263 m 256
 266 1267 293 1246 297 1218 c 256
 335 928 347 761 347 444 c 256
 347 317 332 210 281 128 c 256
 225 38 129 -7 0 -7 c 256
 -29 -7 -52 16 -52 45 c 256
 -52 74 -29 97 0 97 c 256
 105 97 157 130 191 184 c 256
 224 238 241 325 241 444 c 256
 241 759 231 916 193 1204 c 256
 189 1232 210 1259 238 1263 c 256
EndSplineSet
EndChar

StartChar: uniE078
Encoding: 57464 57464 417
Width: 674
GlyphClass: 2
Flags: HW
LayerCount: 2
Fore
SplineSet
727 45 m 256
 727 16 703 -7 674 -7 c 258
 673 -7 l 257
 455 -7 285 112 285 369 c 256
 285 398 308 421 337 421 c 256
 366 421 390 398 390 369 c 256
 390 173 496 97 673 97 c 257
 674 97 l 258
 703 97 727 74 727 45 c 256
288 1263 m 256
 316 1266 342 1244 345 1216 c 256
 372 928 389 681 389 369 c 256
 389 115 240 -7 0 -7 c 256
 -29 -7 -52 16 -52 45 c 256
 -52 74 -29 97 0 97 c 256
 198 97 285 169 285 369 c 256
 285 677 268 918 241 1206 c 256
 238 1234 260 1260 288 1263 c 256
EndSplineSet
EndChar

StartChar: uniE079
Encoding: 57465 57465 418
Width: 1365
GlyphClass: 2
Flags: HW
LayerCount: 2
Fore
SplineSet
996 372 m 256
 1024 378 1053 361 1059 333 c 256
 1094 182 1163 97 1364 97 c 257
 1365 97 l 258
 1394 97 1418 74 1418 45 c 256
 1418 16 1394 -7 1365 -7 c 258
 1364 -7 l 257
 1116 -7 1000 123 957 309 c 256
 951 337 968 366 996 372 c 256
EndSplineSet
EndChar

StartChar: uniE07A
Encoding: 57466 57466 419
Width: 996
GlyphClass: 2
Flags: HW
LayerCount: 2
Fore
SplineSet
570 565 m 256
 452 565 404 511 343 321 c 256
 293 164 230 -7 0 -7 c 256
 -29 -7 -52 16 -52 45 c 256
 -52 74 -29 97 0 97 c 256
 158 97 191 189 243 353 c 256
 309 563 392 671 573 671 c 256
 747 671 889 498 889 278 c 256
 889 57 734 -37 576 -37 c 256
 474 -37 369 -3 289 59 c 256
 266 77 261 110 279 133 c 256
 297 156 330 161 353 143 c 256
 413 97 498 67 576 67 c 256
 689 67 783 122 783 278 c 256
 783 458 670 565 570 565 c 256
EndSplineSet
EndChar

StartChar: uniE07B
Encoding: 57467 57467 420
Width: 1199
GlyphClass: 2
Flags: HW
LayerCount: 2
Fore
SplineSet
1251 45 m 256
 1251 16 1228 -7 1199 -7 c 258
 1198 -7 l 257
 939 -7 871 133 825 268 c 256
 796 352 740 442 621 562 c 256
 600 582 601 616 622 636 c 256
 643 656 676 654 696 634 c 256
 818 508 887 408 925 302 c 256
 970 175 1000 97 1198 97 c 257
 1199 97 l 258
 1228 97 1251 74 1251 45 c 256
569 -37 m 256
 394 -37 290 64 290 216 c 256
 290 340 348 483 474 633 c 256
 492 655 526 656 548 638 c 256
 570 620 570 587 552 565 c 256
 433 429 388 308 388 222 c 256
 388 126 451 67 575 67 c 256
 736 67 806 135 806 231 c 256
 806 319 750 438 622 560 c 256
 601 580 600 613 620 634 c 256
 640 655 673 656 694 636 c 256
 834 503 911 357 911 226 c 256
 911 67 783 -37 569 -37 c 256
546 639 m 256
 568 621 571 588 553 566 c 256
 510 514 452 435 420 370 c 256
 346 219 226 -7 0 -7 c 256
 -29 -7 -52 16 -52 45 c 256
 -52 74 -29 97 0 97 c 256
 146 97 247 257 329 416 c 256
 369 494 426 576 473 632 c 256
 491 654 524 657 546 639 c 256
EndSplineSet
EndChar

StartChar: uniE07C
Encoding: 57468 57468 421
Width: 1504
GlyphClass: 2
Flags: HW
LayerCount: 2
Fore
SplineSet
1154 400 m 256
 1181 408 1212 391 1220 364 c 256
 1251 260 1275 192 1313 154 c 256
 1346 120 1396 97 1503 97 c 257
 1504 97 l 258
 1533 97 1557 74 1557 45 c 256
 1557 16 1533 -7 1504 -7 c 258
 1503 -7 l 257
 1383 -7 1296 18 1237 80 c 256
 1175 144 1149 232 1118 334 c 256
 1110 361 1127 392 1154 400 c 256
EndSplineSet
EndChar

StartChar: uniE07D
Encoding: 57469 57469 422
Width: 1081
GlyphClass: 2
Flags: HW
LayerCount: 2
Fore
SplineSet
655 211 m 256
 659 183 638 156 610 152 c 256
 580 148 550 145 518 145 c 256
 322 145 127 233 127 414 c 256
 127 570 248 676 410 752 c 256
 529 807 606 872 626 942 c 256
 634 969 662 986 690 978 c 256
 718 970 735 941 727 914 c 256
 693 794 579 715 454 656 c 256
 302 584 233 506 233 414 c 256
 233 326 336 249 518 249 c 256
 544 249 568 252 596 256 c 256
 624 260 651 239 655 211 c 256
669 1005 m 256
 697 1008 723 986 726 958 c 258
 776 411 l 258
 801 139 881 97 1080 97 c 257
 1081 97 l 258
 1110 97 1134 74 1134 45 c 256
 1134 16 1110 -7 1081 -7 c 258
 1080 -7 l 257
 840 -7 701 88 672 401 c 258
 622 948 l 258
 619 976 641 1002 669 1005 c 256
EndSplineSet
EndChar

StartChar: uniE07E
Encoding: 57470 57470 423
Width: 1283
GlyphClass: 2
Flags: HW
LayerCount: 2
Fore
SplineSet
90 430 m 256
 90 628 243 809 436 809 c 256
 632 809 725 612 725 445 c 256
 725 91 359 -7 0 -7 c 256
 -29 -7 -52 16 -52 45 c 256
 -52 74 -29 97 0 97 c 256
 365 97 638 183 638 450 c 256
 638 587 550 703 436 703 c 256
 311 703 195 580 195 430 c 256
 195 232 515 97 800 97 c 256
 962 97 1058 173 1058 284 c 256
 1058 455 887 569 643 655 c 256
 497 707 322 772 174 852 c 256
 149 866 139 898 153 923 c 256
 167 948 199 958 224 944 c 256
 362 870 534 806 679 753 c 256
 917 666 1155 535 1155 286 c 256
 1155 105 998 -7 800 -7 c 256
 515 -7 90 126 90 430 c 256
EndSplineSet
EndChar

StartChar: uniE07F
Encoding: 57471 57471 424
Width: 930
GlyphClass: 2
Flags: HW
LayerCount: 2
Fore
SplineSet
534 789 m 256
 683 789 757 670 757 546 c 256
 757 285 487 -7 0 -7 c 256
 -29 -7 -52 16 -52 45 c 256
 -52 74 -29 97 0 97 c 256
 448 97 655 352 655 540 c 256
 655 623 616 686 526 686 c 256
 338 686 233 437 233 136 c 256
 233 -136 396 -419 549 -419 c 256
 638 -419 671 -342 671 -232 c 256
 671 -142 646 -42 616 22 c 256
 614 27 610 38 610 46 c 256
 610 74 632 97 663 97 c 258
 930 97 l 258
 959 97 983 74 983 45 c 256
 983 16 959 -7 930 -7 c 258
 735 -7 l 257
 759 -73 775 -154 775 -232 c 256
 775 -370 719 -525 554 -525 c 256
 295 -525 127 -149 127 136 c 256
 127 437 240 789 534 789 c 256
EndSplineSet
EndChar

StartChar: uniE080
Encoding: 57472 57472 425
Width: 931
GlyphClass: 2
Flags: HW
LayerCount: 2
Fore
SplineSet
460 709 m 256
 681 709 783 445 783 134 c 256
 783 -225 555 -437 184 -514 c 256
 156 -521 128 -503 121 -476 c 256
 114 -449 131 -419 159 -413 c 256
 501 -345 679 -166 679 134 c 256
 679 447 584 603 461 603 c 256
 353 603 263 496 263 293 c 256
 263 223 277 174 307 144 c 256
 339 112 391 97 470 97 c 258
 931 97 l 258
 960 97 983 74 983 45 c 256
 983 16 960 -7 931 -7 c 258
 470 -7 l 258
 369 -7 288 12 231 68 c 256
 177 122 157 199 157 287 c 256
 157 509 263 709 460 709 c 256
EndSplineSet
EndChar

StartChar: uniE081
Encoding: 57473 57473 426
Width: 1231
GlyphClass: 2
Flags: HW
LayerCount: 2
Fore
SplineSet
1018 1255 m 256
 1046 1258 1072 1236 1075 1208 c 256
 1094 996 1103 838 1103 520 c 256
 1103 142 981 -7 593 -7 c 256
 440 -7 311 2 173 22 c 256
 145 26 124 54 128 82 c 256
 132 110 160 130 188 126 c 256
 322 106 444 97 593 97 c 256
 935 97 999 178 999 520 c 256
 999 838 990 988 971 1198 c 256
 968 1226 990 1252 1018 1255 c 256
366 1197 m 256
 393 1207 423 1193 433 1166 c 256
 513 942 549 725 549 378 c 256
 549 349 525 326 496 326 c 256
 467 326 444 349 444 378 c 256
 444 719 411 918 335 1130 c 256
 325 1157 339 1187 366 1197 c 256
EndSplineSet
EndChar

StartChar: uniE082
Encoding: 57474 57474 427
Width: 1282
GlyphClass: 2
Flags: HW
LayerCount: 2
Fore
SplineSet
919 1218 m 256
 947 1221 974 1200 977 1172 c 256
 1007 922 1021 755 1021 514 c 256
 1021 90 770 -7 446 -7 c 256
 361 -7 269 0 175 9 c 256
 147 12 125 38 128 66 c 256
 131 94 157 116 185 113 c 256
 279 104 367 97 446 97 c 256
 748 97 915 158 915 514 c 256
 915 751 903 910 873 1160 c 256
 870 1188 891 1215 919 1218 c 256
401 388 m 256
 373 394 354 421 360 449 c 256
 372 506 375 565 375 627 c 256
 375 825 325 978 269 1102 c 256
 257 1128 270 1160 296 1172 c 256
 322 1184 353 1172 365 1146 c 256
 425 1014 481 843 481 627 c 256
 481 559 474 495 462 430 c 256
 456 402 429 382 401 388 c 256
968 567 m 256
 997 567 1021 543 1021 514 c 256
 1021 200 1099 97 1281 97 c 257
 1282 97 l 258
 1311 97 1335 74 1335 45 c 256
 1335 16 1311 -7 1282 -7 c 258
 1281 -7 l 257
 1020 -7 915 185 915 514 c 256
 915 543 939 567 968 567 c 256
EndSplineSet
EndChar

StartChar: uniE083
Encoding: 57475 57475 428
Width: 1610
GlyphClass: 2
Flags: HW
LayerCount: 2
Fore
SplineSet
1357 1188 m 256
 1385 1191 1412 1170 1415 1142 c 256
 1442 901 1463 707 1463 441 c 256
 1463 69 1190 -37 823 -37 c 256
 485 -37 107 10 107 382 c 256
 107 450 119 527 143 613 c 256
 151 641 180 658 208 650 c 256
 236 642 253 613 245 585 c 256
 223 505 213 438 213 382 c 256
 213 120 467 67 823 67 c 256
 1178 67 1357 151 1357 441 c 256
 1357 701 1338 889 1311 1130 c 256
 1308 1158 1329 1185 1357 1188 c 256
EndSplineSet
EndChar

StartChar: uniE084
Encoding: 57476 57476 429
Width: 2681
GlyphClass: 2
Flags: HW
LayerCount: 2
Fore
SplineSet
690 -619 m 256
 347 -619 127 -473 127 -126 c 256
 127 6 155 148 195 291 c 256
 203 319 232 336 260 328 c 256
 288 320 305 291 297 263 c 256
 259 126 233 -10 233 -126 c 256
 233 -408 379 -513 690 -513 c 256
 915 -513 1119 -437 1119 -300 c 256
 1119 -194 1028 -172 909 -150 c 256
 777 -127 591 -80 591 110 c 256
 591 391 904 538 1195 586 c 256
 1222 590 1249 572 1255 548 c 256
 1333 251 1402 77 1544 77 c 256
 1710 77 1773 268 1805 496 c 256
 1809 524 1837 545 1865 541 c 256
 1893 537 1913 510 1909 482 c 256
 1879 270 1814 -27 1542 -27 c 256
 1320 -27 1236 216 1166 473 c 257
 901 420 695 290 695 112 c 256
 695 5 806 -24 929 -48 c 256
 1081 -76 1225 -116 1225 -300 c 256
 1225 -552 904 -619 690 -619 c 256
1860 541 m 256
 1889 539 1911 515 1909 486 c 256
 1907 457 1907 428 1907 398 c 256
 1907 211 1959 81 2112 81 c 256
 2257 81 2305 216 2305 411 c 256
 2305 461 2301 514 2296 563 c 256
 2293 591 2315 617 2343 620 c 256
 2371 623 2398 601 2401 573 c 256
 2406 522 2409 467 2409 411 c 256
 2409 220 2359 -23 2115 -23 c 256
 1867 -23 1801 205 1801 398 c 256
 1801 430 1803 461 1805 492 c 256
 1807 521 1831 543 1860 541 c 256
2342 620 m 256
 2370 623 2397 602 2400 574 c 256
 2450 145 2492 97 2680 97 c 257
 2681 97 l 258
 2710 97 2734 73 2734 44 c 256
 2734 15 2710 -9 2681 -9 c 258
 2680 -9 l 257
 2416 -9 2346 138 2296 562 c 256
 2293 590 2314 617 2342 620 c 256
EndSplineSet
EndChar

StartChar: uniE085
Encoding: 57477 57477 430
Width: 435
GlyphClass: 2
Flags: HW
LayerCount: 2
Fore
SplineSet
318 704 m 256
 298 717 293 746 306 766 c 256
 319 785 327 809 327 845 c 256
 327 924 267 977 176 977 c 256
 99 977 35 916 35 849 c 256
 35 774 73 736 131 684 c 256
 149 668 150 639 134 621 c 256
 118 603 89 602 71 618 c 256
 15 670 -55 734 -55 849 c 256
 -55 972 57 1065 176 1065 c 256
 303 1065 415 980 415 845 c 256
 415 794 403 751 380 716 c 256
 367 696 338 691 318 704 c 256
-302 -464 m 256
 -306 -436 -285 -409 -257 -405 c 256
 60 -361 233 -191 233 181 c 256
 233 238 228 298 218 355 c 256
 213 383 232 411 260 416 c 256
 288 421 315 401 320 373 c 256
 331 310 337 244 337 181 c 256
 337 -237 118 -459 -243 -509 c 256
 -271 -513 -298 -492 -302 -464 c 256
EndSplineSet
EndChar

StartChar: uniE086
Encoding: 57478 57478 431
Width: 593
GlyphClass: 2
Flags: HW
LayerCount: 2
Fore
SplineSet
162 434 m 256
 189 442 220 427 228 399 c 256
 259 292 269 239 269 137 c 256
 269 -196 111 -422 -238 -508 c 256
 -266 -515 -294 -498 -301 -470 c 256
 -308 -442 -290 -413 -262 -406 c 256
 45 -330 165 -156 165 137 c 256
 165 233 157 262 126 369 c 256
 118 397 135 426 162 434 c 256
257 704 m 256
 237 717 231 746 244 766 c 256
 257 785 266 809 266 845 c 256
 266 924 205 977 114 977 c 256
 37 977 -27 916 -27 849 c 256
 -27 774 12 736 70 684 c 256
 88 668 88 639 72 621 c 256
 56 603 28 602 10 618 c 256
 -46 670 -116 734 -116 849 c 256
 -116 972 -5 1065 114 1065 c 256
 241 1065 354 980 354 845 c 256
 354 794 342 751 319 716 c 256
 306 696 277 691 257 704 c 256
645 45 m 256
 645 16 622 -7 593 -7 c 258
 592 -7 l 257
 277 -7 187 182 127 368 c 256
 118 395 134 425 161 434 c 256
 188 443 218 427 227 400 c 256
 284 222 337 97 592 97 c 257
 593 97 l 258
 622 97 645 74 645 45 c 256
EndSplineSet
EndChar

StartChar: uniE087
Encoding: 57479 57479 432
Width: 1465
GlyphClass: 2
Flags: HW
LayerCount: 2
Fore
SplineSet
815 67 m 256
 955 67 1037 106 1037 217 c 256
 1037 370 860 586 691 654 c 256
 664 665 651 695 662 722 c 256
 673 749 703 761 730 750 c 256
 924 672 1141 433 1141 210 c 256
 1141 28 987 -37 815 -37 c 256
 583 -37 497 101 497 264 c 256
 497 346 510 435 538 528 c 257
 252 499 213 392 213 156 c 256
 213 -206 220 -378 242 -694 c 256
 244 -723 223 -748 194 -750 c 256
 165 -752 140 -731 138 -702 c 256
 116 -386 107 -206 107 156 c 256
 107 436 196 626 601 644 c 256
 635 645 661 625 661 591 c 256
 661 585 660 572 656 560 c 257
 620 457 601 356 601 264 c 256
 601 146 649 67 815 67 c 256
662 723 m 256
 674 749 705 762 731 750 c 256
 959 650 1056 483 1132 348 c 256
 1216 198 1277 97 1464 97 c 257
 1465 97 l 258
 1494 97 1518 74 1518 45 c 256
 1518 16 1494 -7 1465 -7 c 258
 1464 -7 l 257
 1217 -7 1125 148 1042 296 c 256
 966 431 885 568 689 654 c 256
 663 666 650 697 662 723 c 256
EndSplineSet
EndChar

StartChar: uniFB00
Encoding: 64256 64256 433
Width: 1386
GlyphClass: 3
Flags: HW
LayerCount: 2
Fore
SplineSet
108 826 m 256
 106 855 127 880 156 882 c 256
 319 894 482 901 643 901 c 256
 840 901 1036 890 1232 868 c 256
 1260 865 1281 838 1278 810 c 256
 1275 782 1248 761 1220 764 c 256
 1029 786 836 795 643 795 c 256
 484 795 325 790 164 778 c 256
 135 776 110 797 108 826 c 256
1260 1515 m 256
 1243 1500 1217 1498 1198 1510 c 256
 1170 1529 1149 1529 1132 1518 c 256
 1076 1434 1028 1185 1018 979 c 256
 995 699 972 221 950 -43 c 256
 928 -51 905 -39 897 -17 c 256
 889 72 886 231 894 328 c 256
 897 628 912 1140 978 1420 c 256
 995 1538 1045 1661 1132 1661 c 256
 1182 1661 1226 1632 1264 1589 c 256
 1283 1568 1281 1534 1260 1515 c 256
647 1515 m 256
 630 1500 604 1498 585 1510 c 256
 557 1529 536 1529 519 1518 c 256
 463 1434 415 1185 405 979 c 256
 382 699 358 221 336 -43 c 256
 314 -51 292 -39 284 -17 c 256
 276 72 273 231 281 328 c 256
 284 628 299 1140 365 1420 c 256
 382 1538 432 1661 519 1661 c 256
 569 1661 613 1632 651 1589 c 256
 670 1568 668 1534 647 1515 c 256
EndSplineSet
Ligature2: "'rlig' Required Ligatures in Latin lookup 8 subtable" f f
EndChar

StartChar: uniFB05
Encoding: 64261 64261 434
Width: 1325
GlyphClass: 3
Flags: HW
LayerCount: 2
Fore
SplineSet
1217 814 m 256
 1213 786 1186 764 1158 768 c 256
 1001 788 826 795 651 795 c 256
 484 795 318 789 164 778 c 256
 135 776 110 797 108 826 c 256
 106 855 127 880 156 882 c 256
 312 893 482 901 651 901 c 256
 830 901 1009 892 1172 872 c 256
 1200 868 1221 842 1217 814 c 256
958 1268 m 256
 986 1265 1007 1238 1004 1210 c 256
 971 926 945 644 945 355 c 256
 945 207 953 67 1088 67 c 256
 1107 67 1129 70 1153 74 c 256
 1181 80 1208 60 1214 32 c 256
 1220 4 1200 -24 1172 -30 c 256
 1142 -36 1113 -37 1088 -37 c 256
 856 -37 841 206 841 355 c 256
 841 650 867 936 900 1222 c 256
 903 1250 930 1271 958 1268 c 256
647 1515 m 256
 634 1503 618 1501 606 1506 c 256
 572 1533 547 1547 525 1547 c 256
 474 1547 425 1435 415 1304 c 256
 387 961 376 347 376 -4 c 256
 376 -33 352 -56 323 -56 c 256
 294 -56 271 -33 271 -4 c 256
 271 349 280 964 311 1314 c 256
 324 1467 379 1661 519 1661 c 256
 569 1661 613 1632 651 1589 c 256
 670 1568 668 1534 647 1515 c 256
EndSplineSet
Ligature2: "'rlig' Required Ligatures in Latin lookup 8 subtable" f t
EndChar

StartChar: uniFD3E
Encoding: 64830 64830 492
Width: 866
GlyphClass: 2
Flags: HW
LayerCount: 2
Fore
SplineSet
591 1415 m 256
 617 1403 627 1371 615 1345 c 256
 503 1118 451 925 451 681 c 256
 451 456 505 192 615 -32 c 256
 627 -58 618 -91 592 -103 c 256
 566 -115 533 -106 521 -80 c 256
 403 160 345 440 345 681 c 256
 345 941 405 1154 521 1391 c 256
 533 1417 565 1427 591 1415 c 256
769 774 m 256
 769 698 648 662 560 648 c 257
 620 627 687 590 687 524 c 256
 687 418 576 415 554 415 c 256
 483 415 442 452 416 500 c 257
 388 429 327 377 237 377 c 256
 183 377 137 420 137 476 c 256
 137 563 189 617 254 651 c 257
 176 677 97 726 97 819 c 256
 97 911 191 931 234 931 c 256
 334 931 387 869 415 802 c 257
 461 870 537 915 629 915 c 256
 713 915 769 852 769 774 c 256
EndSplineSet
EndChar

StartChar: uniFD3F
Encoding: 64831 64831 493
Width: 861
GlyphClass: 2
Flags: HW
LayerCount: 2
Fore
SplineSet
267 1415 m 256
 293 1427 325 1417 337 1391 c 256
 453 1154 513 941 513 681 c 256
 513 421 455 160 337 -79 c 256
 325 -105 293 -115 267 -103 c 256
 241 -91 231 -59 243 -33 c 256
 353 192 407 437 407 681 c 256
 407 925 355 1118 243 1345 c 256
 231 1371 241 1403 267 1415 c 256
177 526 m 256
 177 594 241 629 302 649 c 257
 209 668 97 699 97 781 c 256
 97 867 170 927 247 927 c 256
 343 927 409 874 451 803 c 257
 484 866 544 915 630 915 c 256
 687 915 764 877 764 792 c 256
 764 703 690 665 618 645 c 257
 677 613 720 566 720 493 c 256
 720 406 633 379 593 379 c 256
 523 379 475 420 447 472 c 257
 419 424 371 389 305 389 c 256
 249 389 177 440 177 526 c 256
EndSplineSet
EndChar

StartChar: v
Encoding: 118 118 589
Width: 1084
GlyphClass: 2
Flags: HW
LayerCount: 2
Fore
SplineSet
138 1019 m 256
 164 1031 196 1019 208 993 c 256
 318 759 450 466 520 182 c 257
 662 425 791 700 874 986 c 256
 882 1013 912 1030 939 1022 c 256
 966 1014 982 983 974 956 c 256
 875 616 717 293 547 18 c 256
 541 7 528 -2 516 -6 c 256
 487 -14 456 5 450 35 c 256
 389 346 238 681 112 949 c 256
 100 975 112 1007 138 1019 c 256
EndSplineSet
EndChar

StartChar: w
Encoding: 119 119 590
Width: 1501
GlyphClass: 2
Flags: HW
LayerCount: 2
Fore
SplineSet
328 1000 m 256
 353 986 362 953 348 928 c 256
 296 836 213 576 213 374 c 256
 213 197 269 67 412 67 c 256
 602 67 720 420 730 681 c 256
 732 711 753 735 783 733 c 256
 810 731 831 708 831 682 c 256
 834 382 853 67 1038 67 c 256
 1208 67 1289 265 1289 513 c 256
 1289 667 1253 830 1204 928 c 256
 1192 954 1202 986 1228 998 c 256
 1254 1010 1286 1000 1298 974 c 256
 1357 856 1393 683 1393 513 c 256
 1393 267 1314 -37 1038 -37 c 256
 850 -37 786 174 760 362 c 257
 706 181 592 -37 406 -37 c 256
 173 -37 107 191 107 374 c 256
 107 602 192 866 256 980 c 256
 270 1005 303 1014 328 1000 c 256
EndSplineSet
EndChar

StartChar: x
Encoding: 120 120 591
Width: 1137
GlyphClass: 2
Flags: HW
LayerCount: 2
Fore
SplineSet
127 -41 m 256
 105 -23 101 11 119 33 c 258
 914 1004 l 258
 932 1026 966 1030 988 1012 c 256
 1010 994 1014 960 996 938 c 258
 201 -33 l 258
 183 -55 149 -59 127 -41 c 256
212 1004 m 256
 238 1016 270 1006 282 980 c 256
 441 658 760 291 1014 37 c 256
 1034 17 1034 -17 1014 -37 c 256
 994 -57 960 -57 940 -37 c 256
 682 221 357 594 188 934 c 256
 176 960 186 992 212 1004 c 256
EndSplineSet
EndChar

StartChar: y
Encoding: 121 121 592
Width: 1127
GlyphClass: 2
Flags: HW
LayerCount: 2
Fore
SplineSet
232 1023 m 256
 260 1020 281 993 278 965 c 256
 264 841 257 713 257 589 c 256
 257 303 296 67 526 67 c 256
 707 67 811 191 866 379 c 256
 874 406 904 422 931 414 c 256
 958 406 974 376 966 349 c 256
 905 141 771 -37 526 -37 c 256
 184 -37 153 323 153 589 c 256
 153 717 160 849 174 977 c 256
 177 1005 204 1026 232 1023 c 256
920 1016 m 256
 949 1017 973 995 974 966 c 256
 978 864 979 697 979 546 c 256
 979 102 985 -487 462 -487 c 256
 307 -487 187 -427 117 -324 c 256
 101 -300 106 -267 130 -251 c 256
 154 -235 188 -240 204 -264 c 256
 253 -335 334 -381 462 -381 c 256
 863 -381 875 63 875 546 c 256
 875 697 873 864 869 962 c 256
 868 991 891 1015 920 1016 c 256
EndSplineSet
EndChar

StartChar: z
Encoding: 122 122 596
Width: 1054
GlyphClass: 2
Flags: HW
LayerCount: 2
Fore
SplineSet
108 873 m 256
 103 901 123 929 151 934 c 256
 237 948 381 967 538 967 c 256
 698 967 813 929 875 890 c 256
 905 872 907 827 880 805 c 256
 721 671 412 312 264 61 c 257
 450 75 714 81 894 81 c 256
 923 81 947 58 947 29 c 256
 947 0 923 -23 894 -23 c 256
 686 -23 361 -33 171 -50 c 256
 126 -54 101 -8 119 26 c 256
 249 275 555 642 746 820 c 257
 688 840 598 860 486 858 c 256
 358 856 241 842 169 830 c 256
 141 825 113 845 108 873 c 256
EndSplineSet
EndChar

StartChar: zero
Encoding: 48 48 597
Width: 1141
GlyphClass: 2
Flags: HW
LayerCount: 2
Fore
SplineSet
213 486 m 256
 213 248 298 67 510 67 c 256
 836 67 929 465 929 843 c 256
 929 1084 794 1293 580 1293 c 256
 300 1293 213 829 213 486 c 256
107 486 m 256
 107 801 172 1399 580 1399 c 256
 876 1399 1033 1114 1033 843 c 256
 1033 479 950 -37 510 -37 c 256
 210 -37 107 234 107 486 c 256
EndSplineSet
EndChar

